<svg xmlns="http://www.w3.org/2000/svg" width="330" height="220" viewBox="0 0 330 220">
  <g id="_404" data-name="404" transform="translate(-50.643 -147.787)">
    <rect id="Rectangle_2223" data-name="Rectangle 2223" width="330" height="220" transform="translate(50.643 147.787)" fill="none"/>
    <g id="Text" transform="translate(0 -0.349)">
      <g id="Group_4956" data-name="Group 4956">
        <path id="Path_7089" data-name="Path 7089" d="M103.594,362.9V321.2H52.876v-24.73L97.1,193.146h33.742v105h17.395V321.2H130.839V362.9ZM77.187,298.145h26.407V224.374Z" stroke="#000" stroke-linecap="round" stroke-linejoin="round" stroke-width="1"/>
        <path id="Path_7090" data-name="Path 7090" d="M207.753,365.419q-14.883,0-24.625-6.287a38.935,38.935,0,0,1-14.67-17.395q-4.927-11.106-4.925-25.569V240.93q0-14.878,4.715-26.092a37.62,37.62,0,0,1,14.461-17.5q9.745-6.288,25.044-6.287t25.045,6.287a37.614,37.614,0,0,1,14.461,17.5q4.716,11.213,4.716,26.092v75.238q0,14.46-4.926,25.569a38.954,38.954,0,0,1-14.67,17.395Q222.634,365.419,207.753,365.419Zm0-24.939q6.495,0,9.641-3.983a21.647,21.647,0,0,0,4.192-9.64,61.05,61.05,0,0,0,1.047-11.108v-74.4a72.018,72.018,0,0,0-.942-11.631,20.868,20.868,0,0,0-4.087-9.746q-3.144-3.978-9.851-3.982t-9.85,3.982a20.867,20.867,0,0,0-4.086,9.746,71.907,71.907,0,0,0-.944,11.631v74.4a55.511,55.511,0,0,0,1.153,11.108,22.54,22.54,0,0,0,4.3,9.64Q201.466,340.481,207.753,340.48Z" stroke="#000" stroke-linecap="round" stroke-linejoin="round" stroke-width="1"/>
        <path id="Path_7091" data-name="Path 7091" d="M321.135,362.9V321.2H270.417v-24.73l44.22-103.322h33.742v105h17.395V321.2H348.379V362.9Zm-26.408-64.759h26.408V224.374Z" stroke="#000" stroke-linecap="round" stroke-linejoin="round" stroke-width="1"/>
      </g>
      <g id="Group_4957" data-name="Group 4957">
        <path id="Path_7092" data-name="Path 7092" d="M116.231,362.9V321.2H65.513v-24.73l44.221-103.322h33.742v105h17.4V321.2h-17.4V362.9ZM89.824,298.145h26.407V224.374Z" fill="#fff" stroke="#000" stroke-linecap="round" stroke-linejoin="round" stroke-width="1"/>
        <path id="Path_7093" data-name="Path 7093" d="M220.39,365.419q-14.883,0-24.625-6.287a38.935,38.935,0,0,1-14.67-17.395q-4.928-11.106-4.926-25.569V240.93q0-14.878,4.716-26.092a37.62,37.62,0,0,1,14.461-17.5q9.746-6.288,25.044-6.287t25.045,6.287a37.619,37.619,0,0,1,14.461,17.5q4.716,11.213,4.716,26.092v75.238q0,14.46-4.926,25.569a38.954,38.954,0,0,1-14.67,17.395Q235.27,365.419,220.39,365.419Zm0-24.939q6.5,0,9.641-3.983a21.635,21.635,0,0,0,4.191-9.64,60.964,60.964,0,0,0,1.048-11.108v-74.4a71.907,71.907,0,0,0-.943-11.631,20.868,20.868,0,0,0-4.087-9.746q-3.143-3.978-9.85-3.982t-9.85,3.982a20.867,20.867,0,0,0-4.086,9.746,71.8,71.8,0,0,0-.944,11.631v74.4a55.439,55.439,0,0,0,1.153,11.108,22.528,22.528,0,0,0,4.3,9.64Q214.1,340.481,220.39,340.48Z" fill="#fff" stroke="#000" stroke-linecap="round" stroke-linejoin="round" stroke-width="1"/>
        <path id="Path_7094" data-name="Path 7094" d="M333.771,362.9V321.2H283.053v-24.73l44.221-103.322h33.741v105H378.41V321.2H361.015V362.9Zm-26.408-64.759h26.408V224.374Z" fill="#fff" stroke="#000" stroke-linecap="round" stroke-linejoin="round" stroke-width="1"/>
      </g>
      <g id="Group_4958" data-name="Group 4958">
        <path id="Path_7095" data-name="Path 7095" d="M108.52,184.942a10.5,10.5,0,0,1-5.627-1.314,7.259,7.259,0,0,1-3-3.779,16.934,16.934,0,0,1-.9-5.832V161.573a16.412,16.412,0,0,1,.9-5.771,7.076,7.076,0,0,1,3-3.676,13.208,13.208,0,0,1,11.315,0,7.216,7.216,0,0,1,3,3.676,16.1,16.1,0,0,1,.924,5.771v12.485a16.3,16.3,0,0,1-.924,5.771,7.512,7.512,0,0,1-3,3.778A10.439,10.439,0,0,1,108.52,184.942Zm0-4.477a3.24,3.24,0,0,0,2.238-.657,3.3,3.3,0,0,0,.965-1.807,11.976,11.976,0,0,0,.246-2.505v-15.32a11.614,11.614,0,0,0-.246-2.5,3.17,3.17,0,0,0-.965-1.745,3.308,3.308,0,0,0-2.238-.637,3.249,3.249,0,0,0-2.177.637,3.117,3.117,0,0,0-.986,1.745,11.614,11.614,0,0,0-.246,2.5V175.5a12.974,12.974,0,0,0,.226,2.505,3.133,3.133,0,0,0,.965,1.807A3.251,3.251,0,0,0,108.52,180.465Z" fill="#e50037"/>
        <path id="Path_7096" data-name="Path 7096" d="M131.642,184.942a10.5,10.5,0,0,1-5.627-1.314,7.264,7.264,0,0,1-3-3.779,16.959,16.959,0,0,1-.9-5.832V161.573a16.436,16.436,0,0,1,.9-5.771,7.081,7.081,0,0,1,3-3.676,13.208,13.208,0,0,1,11.315,0,7.216,7.216,0,0,1,3,3.676,16.1,16.1,0,0,1,.924,5.771v12.485a16.3,16.3,0,0,1-.924,5.771,7.512,7.512,0,0,1-3,3.778A10.439,10.439,0,0,1,131.642,184.942Zm0-4.477a3.238,3.238,0,0,0,2.238-.657,3.3,3.3,0,0,0,.965-1.807,11.908,11.908,0,0,0,.247-2.505v-15.32a11.548,11.548,0,0,0-.247-2.5,3.17,3.17,0,0,0-.965-1.745,3.306,3.306,0,0,0-2.238-.637,3.249,3.249,0,0,0-2.177.637,3.11,3.11,0,0,0-.985,1.745,11.548,11.548,0,0,0-.247,2.5V175.5a12.974,12.974,0,0,0,.226,2.505,3.133,3.133,0,0,0,.965,1.807A3.252,3.252,0,0,0,131.642,180.465Z" fill="#e50037"/>
        <path id="Path_7097" data-name="Path 7097" d="M145.729,184.49V151.223H155.5a9.456,9.456,0,0,1,4.867,1.109,6.577,6.577,0,0,1,2.752,3.224,13.257,13.257,0,0,1,.883,5.113,10.74,10.74,0,0,1-1.109,5.237,6.607,6.607,0,0,1-3.1,2.895,11.289,11.289,0,0,1-4.7.9h-3.286V184.49Zm6.078-19.056h2.3a5.722,5.722,0,0,0,2.567-.473,2.523,2.523,0,0,0,1.273-1.52,9.183,9.183,0,0,0,.349-2.813,13.164,13.164,0,0,0-.267-2.936,2.524,2.524,0,0,0-1.15-1.664,5.544,5.544,0,0,0-2.772-.534h-2.3Z" fill="#e50037"/>
        <path id="Path_7098" data-name="Path 7098" d="M175.587,184.942a9.826,9.826,0,0,1-5.011-1.171,7.365,7.365,0,0,1-3.039-3.429,14.708,14.708,0,0,1-1.15-5.544l5.216-1.027a16.083,16.083,0,0,0,.472,3.409,4.934,4.934,0,0,0,1.191,2.279,2.859,2.859,0,0,0,2.115.8,2.373,2.373,0,0,0,2.1-.883,3.821,3.821,0,0,0,.616-2.238,6.055,6.055,0,0,0-.986-3.573,15.376,15.376,0,0,0-2.628-2.793l-4.189-3.7a12.555,12.555,0,0,1-2.814-3.388,9.341,9.341,0,0,1-1.047-4.621,7.883,7.883,0,0,1,2.3-6.078,8.877,8.877,0,0,1,6.284-2.136,9.33,9.33,0,0,1,3.9.719,6.21,6.21,0,0,1,2.484,1.992,8.986,8.986,0,0,1,1.376,2.9,17.1,17.1,0,0,1,.575,3.43l-5.175.9a17.661,17.661,0,0,0-.349-2.792,3.892,3.892,0,0,0-.944-1.931,2.656,2.656,0,0,0-1.993-.7,2.518,2.518,0,0,0-2.073.883,3.363,3.363,0,0,0-.719,2.2,5.045,5.045,0,0,0,.7,2.773,10.84,10.84,0,0,0,2.012,2.238l4.148,3.655a17.189,17.189,0,0,1,3.512,4.046,10.328,10.328,0,0,1,1.458,5.606,8.43,8.43,0,0,1-1.047,4.23,7.509,7.509,0,0,1-2.916,2.9A8.8,8.8,0,0,1,175.587,184.942Z" fill="#e50037"/>
        <path id="Path_7099" data-name="Path 7099" d="M186.635,184.49v-5.421h5.421v5.421Zm1.725-7.8-1.684-25.423h5.585l-1.971,25.423Z" fill="#e50037"/>
      </g>
    </g>
  </g>
</svg>
