<svg width="21" height="20" viewBox="0 0 21 20" fill="none" xmlns="http://www.w3.org/2000/svg">
<g id="vuesax/outline/arrow-right">
<g id="arrow-right">
<path id="Vector" d="M12.425 15.6833C12.2667 15.6833 12.1083 15.625 11.9833 15.5C11.7417 15.2583 11.7417 14.8583 11.9833 14.6166L16.6 9.99998L11.9833 5.38331C11.7417 5.14164 11.7417 4.74164 11.9833 4.49998C12.225 4.25831 12.625 4.25831 12.8667 4.49998L17.925 9.55831C18.1667 9.79998 18.1667 10.2 17.925 10.4416L12.8667 15.5C12.7417 15.625 12.5833 15.6833 12.425 15.6833Z" fill="#1A1E26"/>
<path id="Vector_2" d="M17.3417 10.625H3.31667C2.975 10.625 2.69167 10.3417 2.69167 10C2.69167 9.65833 2.975 9.375 3.31667 9.375H17.3417C17.6833 9.375 17.9667 9.65833 17.9667 10C17.9667 10.3417 17.6833 10.625 17.3417 10.625Z" fill="#1A1E26"/>
</g>
</g>
</svg>
