<svg xmlns="http://www.w3.org/2000/svg" width="104" height="104" viewBox="0 0 104 104" fill="none">
  <path d="M66.0641 41.0172C66.7475 40.3338 66.7475 39.2258 66.0641 38.5423C65.3807 37.8589 64.2727 37.8589 63.5892 38.5423L46.1933 55.9382L40.4541 50.199C39.7707 49.5156 38.6627 49.5156 37.9792 50.199C37.2958 50.8824 37.2958 51.9905 37.9792 52.6739L44.9559 59.6506C45.6393 60.334 46.7474 60.334 47.4308 59.6506L66.0641 41.0172Z" fill="#00428E"/>
  <path fill-rule="evenodd" clip-rule="evenodd" d="M59.2296 8.01919C57.1405 7.25727 54.5301 6.90576 52.0108 6.90576C49.4937 6.90576 46.8985 7.25668 44.8444 8.02388L44.8397 8.02563L23.2204 16.1708L23.2184 16.1715C20.3265 17.2534 17.7972 19.456 15.9981 22.0507C14.1989 24.6457 13.0267 27.7819 13.0267 30.8533V63.0499C13.0267 65.9541 13.9741 69.1831 15.4179 72.0534C16.862 74.9243 18.8928 77.6149 21.2265 79.3589L39.8551 93.2654L39.8582 93.2678C43.2696 95.831 47.6974 97.0616 52.0433 97.0616C56.3891 97.0616 60.8169 95.8311 64.2281 93.268L64.2316 93.2654L82.861 79.3584C85.1946 77.6143 87.2247 74.9243 88.6688 72.0534C90.1126 69.1831 91.06 65.9541 91.06 63.0499V30.8533C91.06 27.7628 89.8896 24.6163 88.0896 22.0143C86.2898 19.4126 83.7593 17.2092 80.8662 16.1274L59.2441 8.02455L59.2296 8.01919ZM46.069 11.3026L46.0713 11.3018C47.6137 10.7262 49.7624 10.4058 52.0108 10.4058C54.255 10.4058 56.4299 10.725 58.0234 11.3048L58.0304 11.3073L79.6392 19.4053L79.6404 19.4058C81.7307 20.1873 83.7286 21.8623 85.2112 24.0055C86.6937 26.1486 87.56 28.6137 87.56 30.8533V63.0499C87.56 65.2591 86.8174 67.9451 85.5421 70.4806C84.267 73.0155 82.5487 75.2223 80.7657 76.5548L62.1331 90.4643L62.1284 90.4678C59.4302 92.4963 55.7778 93.5616 52.0433 93.5616C48.3089 93.5616 44.6565 92.4963 41.9583 90.4678L23.321 76.5548C21.538 75.2223 19.8197 73.0155 18.5446 70.4806C17.2692 67.9451 16.5267 65.2591 16.5267 63.0499V30.8533C16.5267 28.638 17.3911 26.1842 18.8744 24.045C20.3574 21.9061 22.3557 20.2308 24.4462 19.4491L24.4503 19.4476L46.069 11.3026Z" fill="#00428E"/>
</svg>