<svg xmlns="http://www.w3.org/2000/svg" width="104" height="104" viewBox="0 0 104 104" fill="none">
  <path fill-rule="evenodd" clip-rule="evenodd" d="M52 10.4165C36.1965 10.4165 23.4167 23.1963 23.4167 38.9998C23.4167 44.9275 25.172 50.3529 28.1899 54.8815C32.606 61.4215 39.5883 66.029 47.7024 67.2115C47.7197 67.214 47.7369 67.2168 47.7541 67.2198C49.1229 67.4614 50.5376 67.5832 52 67.5832C53.4624 67.5832 54.8771 67.4614 56.2459 67.2198C56.2631 67.2168 56.2804 67.214 56.2976 67.2115C64.4117 66.029 71.394 61.4216 75.8101 54.8816C78.828 50.353 80.5833 44.9275 80.5833 38.9998C80.5833 23.1963 67.8035 10.4165 52 10.4165ZM19.9167 38.9998C19.9167 21.2633 34.2635 6.9165 52 6.9165C69.7365 6.9165 84.0833 21.2633 84.0833 38.9998C84.0833 45.637 82.1131 51.7368 78.7194 56.8273L78.7138 56.8356C73.7745 64.1532 65.9482 69.3344 56.8283 70.6711C55.2585 70.9465 53.6486 71.0832 52 71.0832C50.3514 71.0832 48.7415 70.9465 47.1717 70.6711C38.0519 69.3344 30.2256 64.1532 25.2862 56.8356L25.2806 56.8273C21.8869 51.7368 19.9167 45.637 19.9167 38.9998Z" fill="#00428E"/>
  <path fill-rule="evenodd" clip-rule="evenodd" d="M26.9041 54.1579C27.4242 54.2079 27.8948 54.4877 28.1871 54.9208C32.6031 61.463 39.5867 66.0723 47.7024 67.255C47.7197 67.2575 47.7369 67.2603 47.7541 67.2633C49.0055 67.4841 50.2953 67.6049 51.6248 67.624C51.7467 67.5972 51.8722 67.5833 51.9992 67.5833C52.1268 67.5832 52.2528 67.5971 52.3752 67.624C53.7047 67.6049 54.9945 67.4841 56.2459 67.2633C56.2631 67.2603 56.2803 67.2575 56.2976 67.255C64.4133 66.0723 71.3969 61.463 75.8129 54.9208C76.1052 54.4877 76.5758 54.2079 77.0959 54.1579C77.616 54.1079 78.1313 54.293 78.5008 54.6625L95.3894 71.5511C95.3915 71.5532 95.3936 71.5553 95.3957 71.5574C98.7773 74.8867 97.0844 80.6505 92.4866 81.7395L85.3469 83.427C85.3453 83.4274 85.3436 83.4278 85.342 83.4282C84.3447 83.6726 83.6316 84.4036 83.4371 85.3031C83.4356 85.3102 83.4341 85.3172 83.4325 85.3242C83.4314 85.329 83.4302 85.3338 83.4291 85.3386L81.9126 91.7077C80.7561 96.5772 74.5603 98.0265 71.3411 94.2188L52.0012 72.0001L32.6595 94.2612C29.4405 98.07 23.244 96.6208 22.0874 91.7509L20.5729 85.3902L22.2733 84.9765L20.5709 85.3819L20.572 85.3865C20.3321 84.4061 19.5684 83.6741 18.687 83.4782L18.6641 83.473L11.5141 81.7831C6.89408 80.6888 5.24252 74.9192 8.59923 71.5624L25.4992 54.6625C25.8687 54.293 26.384 54.1079 26.9041 54.1579ZM55.6759 70.8909L73.99 91.931L74.0091 91.9534C75.3863 93.5904 78.0184 92.9575 78.5074 90.8989L80.0204 84.5442C80.5248 82.2484 82.3191 80.5614 84.5197 80.0261L84.5308 80.0235L91.68 78.3337C93.666 77.8633 94.3139 75.4002 92.9373 74.0486L92.9259 74.0373L77.4773 58.5887C72.5174 64.9989 65.2205 69.4846 56.8282 70.7146C56.4465 70.7816 56.0624 70.8403 55.6759 70.8909ZM48.3279 70.8914C47.9401 70.8407 47.5548 70.7818 47.1718 70.7146C38.7795 69.4846 31.4826 64.9989 26.5227 58.5887L11.0741 74.0373C9.66433 75.4471 10.3532 77.9107 12.3192 78.3769M12.3192 78.3769L19.4588 80.0644C21.6903 80.5654 23.4337 82.3426 23.9737 84.5629L23.9758 84.5712L25.4924 90.9412C25.9813 92.9998 28.6137 93.6336 29.9909 91.9966L30.009 91.9754L48.3279 70.8914" fill="#00428E"/>
  <path fill-rule="evenodd" clip-rule="evenodd" d="M52.0189 25.5875C51.941 25.613 51.604 25.7676 51.2107 26.6358C51.2015 26.6561 51.1919 26.6762 51.1819 26.6961L48.6252 31.8094C48.2992 32.4615 47.7761 33.0049 47.2542 33.3964C46.7331 33.7872 46.0545 34.1456 45.3118 34.2695C45.3116 34.2696 45.3121 34.2695 45.3118 34.2695L40.6844 35.048C40.1302 35.1465 39.7869 35.3028 39.5963 35.4332C39.419 35.5545 39.3948 35.6355 39.3935 35.6399C39.3925 35.6428 39.3651 35.7186 39.4376 35.9143C39.5163 36.1265 39.7058 36.4511 40.1074 36.8527C40.1074 36.8527 40.1074 36.8527 40.1074 36.8527L43.7041 40.4493C44.2897 41.0349 44.6357 41.7988 44.8171 42.4716C45 43.1498 45.0726 43.9457 44.9158 44.6907C44.9132 44.7029 44.9105 44.7151 44.9077 44.7273L43.8671 49.1931C43.6963 49.9213 43.6976 50.4086 43.7489 50.6906C43.7667 50.7884 43.7875 50.849 43.8029 50.8837C43.8432 50.8889 43.9135 50.8916 44.024 50.8778C44.3184 50.8409 44.7911 50.6941 45.4382 50.3171C45.4393 50.3164 45.4404 50.3158 45.4415 50.3151L49.7576 47.7686C50.4865 47.3276 51.3381 47.1626 52.0867 47.1626C52.8352 47.1626 53.6869 47.3276 54.4157 47.7686L58.7473 50.3243C59.3948 50.711 59.8655 50.8595 60.1551 50.8968C60.26 50.9102 60.3272 50.9082 60.3661 50.9035C60.3825 50.8676 60.405 50.8036 60.4241 50.6984C60.4761 50.4112 60.4767 49.92 60.3062 49.1931L59.2683 44.7389C59.0732 43.9434 59.1506 43.121 59.3462 42.4327C59.5428 41.7408 59.9079 41.0107 60.4692 40.4493L64.0659 36.8527C64.465 36.4536 64.6549 36.1276 64.7344 35.9117C64.8082 35.7113 64.7816 35.6291 64.779 35.6211C64.7766 35.6134 64.7519 35.5339 64.5815 35.418C64.3965 35.2922 64.0583 35.1401 63.5072 35.051L63.4964 35.0492L58.8671 34.2705C58.1125 34.1492 57.4248 33.7983 56.891 33.4037C56.3569 33.0089 55.8316 32.4631 55.5047 31.8094L52.9481 26.6961C52.4789 25.7578 52.0945 25.6102 52.0189 25.5875ZM60.3435 50.9424C60.3433 50.9422 60.345 50.9395 60.3492 50.9351C60.3457 50.9404 60.3436 50.9426 60.3435 50.9424ZM60.4012 50.8971C60.4068 50.8944 60.4099 50.8935 60.4101 50.8937C60.4103 50.894 60.4075 50.8953 60.4012 50.8971ZM43.7584 50.8736C43.7585 50.8734 43.7614 50.8742 43.7666 50.8767C43.7608 50.875 43.7582 50.8738 43.7584 50.8736ZM43.8195 50.9158C43.8238 50.9204 43.8256 50.9233 43.8255 50.9235C43.8253 50.9238 43.8231 50.9214 43.8195 50.9158ZM52.0162 22.0835C53.8902 22.0835 55.264 23.5018 56.0786 25.1309L58.6352 30.2442C58.6551 30.2839 58.7581 30.4314 58.9714 30.5891C59.1828 30.7453 59.3581 30.8047 59.4229 30.8149L59.4403 30.8177L64.0719 31.5969C65.8573 31.887 67.5517 32.795 68.1136 34.5578C68.6745 36.3176 67.8238 38.0446 66.5408 39.3276L62.9441 42.9242C62.8988 42.9695 62.7872 43.1278 62.713 43.3892C62.639 43.6497 62.6512 43.8394 62.6677 43.9057L62.6743 43.933L63.7137 48.3938C63.7139 48.3945 63.714 48.3951 63.7142 48.3957C64.16 50.2978 64.1017 52.5196 62.444 53.736C60.7839 54.9542 58.6459 54.3393 56.9569 53.3317C56.9555 53.3309 56.9541 53.33 56.9527 53.3292L52.6274 50.7773L52.6041 50.7633C52.5559 50.7339 52.3735 50.6626 52.0867 50.6626C51.7998 50.6626 51.6174 50.7339 51.5692 50.7633L51.5459 50.7773L47.2051 53.3384C45.5199 54.3214 43.3894 54.926 41.7359 53.7246C40.0695 52.5138 40.0138 50.295 40.4593 48.3949C40.4594 48.3945 40.4595 48.3942 40.4596 48.3938L41.4928 43.9597C41.5078 43.8736 41.5119 43.6575 41.4378 43.3828C41.4027 43.2526 41.3577 43.1395 41.312 43.0521C41.2896 43.0094 41.2693 42.9773 41.2534 42.9548C41.238 42.9332 41.2292 42.9241 41.2292 42.9241L37.6326 39.3276C36.3559 38.0509 35.4957 36.3326 36.0607 34.5711C36.6233 32.8172 38.3146 31.9121 40.0825 31.6001L40.0963 31.5977L44.7356 30.8173C44.7727 30.8111 44.9387 30.758 45.1541 30.5964C45.3689 30.4354 45.4741 30.2854 45.4947 30.2442L48.0374 25.1589C48.789 23.5198 50.1251 22.0835 52.0162 22.0835Z" fill="#00428E"/>
</svg>