<svg xmlns="http://www.w3.org/2000/svg" width="104" height="104" viewBox="0 0 104 104" fill="none">
  <path fill-rule="evenodd" clip-rule="evenodd" d="M60.6776 19.354C59.4941 19.354 57.8032 20.2832 56.3014 23.3468L56.2954 23.3592L50.189 35.5717C49.6212 36.7323 48.6476 37.7659 47.6062 38.5406C46.5624 39.3171 45.2877 39.9546 44.0058 40.1635C44.0054 40.1636 44.005 40.1636 44.0045 40.1637L32.9639 41.9822C29.7364 42.5379 28.3442 43.874 27.9701 45.0422C27.5968 46.2078 27.9528 48.0976 30.2709 50.4157L38.8942 59.0391L38.9125 59.0577C39.8757 60.05 40.5594 61.4009 40.9427 62.7424C41.3247 64.0794 41.4618 65.5952 41.137 66.9603C41.1365 66.9625 41.1359 66.9646 41.1354 66.9668L38.6682 77.6149C37.7289 81.6643 38.5635 83.5817 39.4662 84.2385C40.375 84.8996 42.4696 85.1017 46.0393 82.9934C46.0391 82.9935 46.0396 82.9933 46.0393 82.9934L56.3812 76.8489C56.3833 76.8477 56.3854 76.8465 56.3874 76.8452C57.6594 76.0781 59.2379 75.7515 60.71 75.7515C62.1822 75.7515 63.7607 76.0782 65.0328 76.8453C65.0348 76.8465 65.0368 76.8477 65.0388 76.8489L75.3839 82.9953L75.3865 82.9969C78.9548 85.1253 81.0456 84.9182 81.951 84.2567C82.8573 83.5947 83.691 81.6638 82.7519 77.6153L80.2828 66.9586C80.2826 66.9576 80.2823 66.9565 80.2821 66.9555C79.96 65.5763 80.0937 64.053 80.4774 62.7099C80.8609 61.3675 81.5481 60.0168 82.5259 59.039L91.1441 50.421C91.1446 50.4204 91.1452 50.4198 91.1458 50.4192C93.4664 48.078 93.8238 46.1767 93.4501 45.0097C93.0775 43.846 91.6904 42.5179 88.4608 41.9829L77.4123 40.1632C77.4004 40.1612 77.3885 40.1591 77.3766 40.1569C76.1236 39.9238 74.8641 39.2992 73.8194 38.5284C72.7806 37.762 71.8019 36.7386 71.231 35.5716L65.1269 23.3632C65.1265 23.3623 65.126 23.3614 65.1256 23.3605C63.5808 20.2925 61.8687 19.354 60.6776 19.354ZM60.6776 15.854C63.8195 15.854 66.4617 18.2299 68.2533 21.7898L68.2554 21.7939L74.3652 34.0139L74.3732 34.03C74.6263 34.5494 75.162 35.1695 75.8973 35.712C76.623 36.2474 77.3932 36.5964 78.0011 36.713L89.0327 38.53C92.8665 39.165 95.8344 40.9785 96.7834 43.9424C97.7313 46.9026 96.3772 50.114 93.6294 52.8853L93.6242 52.8906L85.0008 61.5139C84.5486 61.9661 84.1092 62.7388 83.8427 63.6714C83.5768 64.6022 83.537 65.5043 83.6907 66.161L83.6916 66.1648L86.1614 76.8244C87.1723 81.1825 86.7277 85.1016 84.0157 87.0829C81.3033 89.0644 77.4364 88.2945 73.5953 86.0037C73.5947 86.0034 73.5941 86.0031 73.5936 86.0027L63.2278 79.8441C62.6375 79.4871 61.7271 79.2515 60.71 79.2515C59.6929 79.2515 58.7825 79.4871 58.1922 79.844L58.1806 79.851L47.8239 86.0043L47.82 86.0066C43.9801 88.2746 40.1166 89.04 37.4071 87.0687C34.6916 85.093 34.248 81.1819 35.2585 76.8248C35.2585 76.8249 35.2586 76.8247 35.2585 76.8248L37.7314 66.1528C37.8812 65.5263 37.8448 64.6398 37.5774 63.7039C37.3122 62.7758 36.8728 61.9854 36.409 61.5036L27.796 52.8906C25.0441 50.1386 23.6884 46.9367 24.6368 43.9749C25.5841 41.0163 28.5454 39.1899 32.3771 38.5317L32.389 38.5297L43.439 36.7097L43.4422 36.7092C44.0232 36.6146 44.7847 36.2772 45.5172 35.7324C46.2498 35.1874 46.7907 34.5558 47.0468 34.03L47.0548 34.0138L53.1617 21.8C54.91 18.237 57.5295 15.854 60.6776 15.854Z" fill="#00428E"/>
  <path fill-rule="evenodd" clip-rule="evenodd" d="M6.91667 21.6665C6.91667 20.7 7.70017 19.9165 8.66667 19.9165H34.6667C35.6332 19.9165 36.4167 20.7 36.4167 21.6665C36.4167 22.633 35.6332 23.4165 34.6667 23.4165H8.66667C7.70017 23.4165 6.91667 22.633 6.91667 21.6665Z" fill="#00428E"/>
  <path fill-rule="evenodd" clip-rule="evenodd" d="M6.91667 82.3335C6.91667 81.367 7.70017 80.5835 8.66667 80.5835H21.6667C22.6332 80.5835 23.4167 81.367 23.4167 82.3335C23.4167 83.3 22.6332 84.0835 21.6667 84.0835H8.66667C7.70017 84.0835 6.91667 83.3 6.91667 82.3335Z" fill="#00428E"/>
  <path fill-rule="evenodd" clip-rule="evenodd" d="M6.91667 52C6.91667 51.0335 7.70017 50.25 8.66667 50.25H13C13.9665 50.25 14.75 51.0335 14.75 52C14.75 52.9665 13.9665 53.75 13 53.75H8.66667C7.70017 53.75 6.91667 52.9665 6.91667 52Z" fill="#00428E"/>
</svg>