<svg xmlns="http://www.w3.org/2000/svg" width="104" height="104" viewBox="0 0 104 104" fill="none">
  <path fill-rule="evenodd" clip-rule="evenodd" d="M60.3806 10.0311C65.1415 11.6382 68.3724 16.8772 67.3135 21.8178L65.1583 35.6111C64.9087 37.3986 66.0986 38.5168 67.5133 38.5168H84.8466C88.6378 38.5168 91.8771 40.0473 93.8234 42.6887C95.7746 45.3367 96.242 48.8537 94.9724 52.4311L84.6016 83.9756C83.8026 87.0845 81.7551 89.7028 79.2568 91.5308C76.7402 93.3722 73.626 94.5168 70.5467 94.5168H54.08C52.5868 94.5168 50.777 94.2721 49.0889 93.7898C47.4935 93.334 45.7507 92.5941 44.5318 91.4281L31.189 81.0982L33.6377 77.9353L47.1712 88.4129L47.2609 88.5025C47.7719 89.0136 48.7936 89.5454 50.1878 89.9437C51.5329 90.328 52.9731 90.5168 54.08 90.5168H70.5467C72.6673 90.5168 74.9697 89.7113 76.8948 88.3027C78.8184 86.8952 80.225 84.9905 80.7397 82.9317L80.7573 82.8612L91.188 51.1347L91.1965 51.1108C92.0824 48.6301 91.6808 46.5239 90.6032 45.0615C89.5162 43.5863 87.5555 42.5168 84.8466 42.5168H67.5133C63.7311 42.5168 60.5897 39.3064 61.2001 35.0339L61.2019 35.0209L63.3805 21.0784L63.3943 21.0162C64.0227 18.1882 62.0796 14.8137 59.0809 13.8141L59.0457 13.8024L59.0111 13.7894C57.8031 13.3364 56.3418 13.3828 54.9468 13.8623C53.5383 14.3465 52.4198 15.1959 51.8441 16.0595L51.8399 16.0658L34.0732 42.4991L30.7534 40.2678L48.5159 13.8407C48.5166 13.8396 48.5174 13.8384 48.5182 13.8373C49.676 12.1025 51.5896 10.7866 53.6465 10.0796C55.7075 9.37109 58.1317 9.19885 60.3806 10.0311Z" fill="#00428E"/>
  <path fill-rule="evenodd" clip-rule="evenodd" d="M13.7282 32.1282C12.9233 32.8712 12.3133 34.2423 12.3133 37.0502V79.5169C12.3133 82.3249 12.9233 83.696 13.7282 84.439C14.5724 85.2182 16.0999 85.7502 18.98 85.7502H23.3133C26.1934 85.7502 27.7209 85.2182 28.5651 84.439C29.37 83.696 29.98 82.3249 29.98 79.5169V37.0502C29.98 34.2423 29.37 32.8712 28.5651 32.1282C27.7209 31.3489 26.1934 30.8169 23.3133 30.8169H18.98C16.0999 30.8169 14.5724 31.3489 13.7282 32.1282ZM11.0151 29.189C12.9876 27.3682 15.7934 26.8169 18.98 26.8169H23.3133C26.4999 26.8169 29.3058 27.3682 31.2782 29.189C33.29 31.046 33.98 33.7915 33.98 37.0502V79.5169C33.98 82.7756 33.29 85.5212 31.2782 87.3782C29.3058 89.1989 26.4999 89.7502 23.3133 89.7502H18.98C15.7934 89.7502 12.9876 89.1989 11.0151 87.3782C9.00334 85.5212 8.31332 82.7756 8.31332 79.5169V37.0502C8.31332 33.7915 9.00334 31.046 11.0151 29.189Z" fill="#00428E"/>
</svg>