<svg xmlns="http://www.w3.org/2000/svg" width="20" height="20" viewBox="0 0 20 20" fill="none">
  <path d="M4.0811 5.1812C4.57725 4.22282 5.31136 3.40202 6.21593 2.79425C7.1205 2.18648 8.16651 1.81125 9.2578 1.70305C9.75146 1.65452 10.2488 1.65452 10.7425 1.70305C11.8338 1.81132 12.8798 2.18654 13.7844 2.79424C14.689 3.40194 15.4232 4.22262 15.9195 5.18088C16.544 6.40357 16.7852 7.77996 16.6128 9.13669C16.4404 10.4934 15.862 11.7698 14.9505 12.8051L10.5058 18.0994C10.4444 18.1725 10.3672 18.2314 10.2798 18.2719C10.1924 18.3123 10.097 18.3333 10.0003 18.3333C9.90366 18.3333 9.8082 18.3123 9.7208 18.2719C9.6334 18.2314 9.55624 18.1725 9.49486 18.0994L5.05014 12.8051C4.13868 11.7699 3.5603 10.4935 3.38785 9.13686C3.21541 7.78017 3.45662 6.40383 4.0811 5.1812ZM10.0003 10.6407C10.518 10.6407 11.024 10.4903 11.4544 10.2085C11.8848 9.92678 12.2203 9.52632 12.4184 9.05778C12.6165 8.58924 12.6683 8.07367 12.5673 7.57628C12.4663 7.07888 12.217 6.62199 11.851 6.26339C11.485 5.90478 11.0186 5.66057 10.5109 5.56163C10.0032 5.46269 9.47698 5.51347 8.99873 5.70755C8.52049 5.90162 8.11173 6.23028 7.82414 6.65195C7.53655 7.07362 7.38305 7.56938 7.38305 8.07652C7.38386 8.75633 7.65987 9.40807 8.15053 9.88877C8.64118 10.3695 9.30642 10.6399 10.0003 10.6407Z" fill="#001833"/>
</svg>