<svg xmlns="http://www.w3.org/2000/svg" width="20" height="20" viewBox="0 0 20 20" fill="none">
  <path d="M9.05294 10.4604C9.3201 10.7016 9.65473 10.8333 10 10.8333C10.3453 10.8333 10.6799 10.7016 10.9471 10.4604L17.5 4.52404C17.2229 4.1532 16.8751 3.85425 16.4814 3.64846C16.0877 3.44266 15.6577 3.33507 15.222 3.33334H4.77805C4.34233 3.33507 3.91232 3.44266 3.51858 3.64846C3.12485 3.85425 2.77708 4.1532 2.5 4.52404L9.05294 10.4604Z" fill="#001833"/>
  <path d="M11.9239 11.2905C11.381 11.7543 10.7015 12.0076 10.0003 12.0076C9.29919 12.0076 8.61962 11.7543 8.0768 11.2905L1.71952 5.83334C1.68698 6.01201 1.6694 6.19329 1.66699 6.37515V13.5001C1.66785 14.3396 1.98739 15.1445 2.55549 15.7382C3.1236 16.3319 3.89387 16.6658 4.6973 16.6667H15.3034C16.1068 16.6658 16.8771 16.3319 17.4452 15.7382C18.0133 15.1445 18.3328 14.3396 18.3337 13.5001V6.37515C18.3312 6.19329 18.3137 6.01201 18.2811 5.83334L11.9239 11.2905Z" fill="#17181A"/>
</svg>