<svg xmlns="http://www.w3.org/2000/svg" width="20" height="20" viewBox="0 0 20 20" fill="none">
  <path d="M15.82 13.2669C14.8477 12.4058 13.861 11.8841 12.9006 12.744L12.3272 13.2637C11.9076 13.6409 11.1276 15.4035 8.11152 11.8106C5.0961 8.22229 6.89053 7.66358 7.31071 7.28959L7.88729 6.76926C8.84261 5.90746 8.48209 4.82257 7.79308 3.7058L7.37729 3.02937C6.68514 1.91521 5.93145 1.18349 4.97362 2.04399L4.45608 2.51229C4.03275 2.83164 2.84944 3.86971 2.56241 5.84177C2.21697 8.20798 3.30669 10.9176 5.80332 13.8907C8.2968 16.865 10.7382 18.359 13.0508 18.333C14.9727 18.3115 16.1334 17.2435 16.4964 16.8552L17.0158 16.3863C17.9712 15.5264 17.3776 14.651 16.4047 13.7879L15.82 13.2669Z" fill="#001833"/>
</svg>