<svg xmlns="http://www.w3.org/2000/svg" width="24" height="24" viewBox="0 0 24 24" fill="none">
  <path d="M14 22.75H10C4.57 22.75 2.25 20.43 2.25 15V9C2.25 3.57 4.57 1.25 10 1.25H14C19.43 1.25 21.75 3.57 21.75 9V15C21.75 20.43 19.43 22.75 14 22.75ZM10 2.75C5.39 2.75 3.75 4.39 3.75 9V15C3.75 19.61 5.39 21.25 10 21.25H14C18.61 21.25 20.25 19.61 20.25 15V9C20.25 4.39 18.61 2.75 14 2.75H10Z" fill="#1A1E26"/>
  <path d="M15 10.83H9C7.76 10.83 6.75 9.82 6.75 8.58V7.58C6.75 6.34 7.76 5.33 9 5.33H15C16.24 5.33 17.25 6.34 17.25 7.58V8.58C17.25 9.82 16.24 10.83 15 10.83ZM9 6.83C8.59 6.83 8.25 7.17 8.25 7.58V8.58C8.25 8.99 8.59 9.33 9 9.33H15C15.41 9.33 15.75 8.99 15.75 8.58V7.58C15.75 7.17 15.41 6.83 15 6.83H9Z" fill="#1A1E26"/>
  <path d="M8.15003 14.92C8.02003 14.92 7.89003 14.89 7.77003 14.84C7.65003 14.79 7.54003 14.72 7.45003 14.63C7.26003 14.44 7.16003 14.19 7.16003 13.92C7.16003 13.79 7.18003 13.66 7.23003 13.54C7.28003 13.41 7.35003 13.31 7.45003 13.21C7.49003 13.17 7.54003 13.12 7.60003 13.09C7.65003 13.05 7.71003 13.02 7.77003 13C7.83003 12.97 7.90003 12.95 7.96003 12.94C8.28003 12.87 8.63003 12.98 8.86003 13.21C8.95003 13.3 9.03003 13.41 9.08003 13.54C9.13003 13.66 9.16003 13.79 9.16003 13.92C9.16003 14.19 9.05003 14.44 8.86003 14.63C8.67003 14.82 8.42003 14.92 8.15003 14.92Z" fill="#1A1E26"/>
  <path d="M12.16 14.92C11.89 14.92 11.64 14.82 11.45 14.63C11.26 14.44 11.16 14.19 11.16 13.92C11.16 13.79 11.18 13.66 11.23 13.54C11.28 13.41 11.35 13.31 11.45 13.21C11.49 13.17 11.54 13.12 11.6 13.09C11.65 13.05 11.71 13.02 11.77 13C11.83 12.97 11.9 12.95 11.96 12.94C12.15 12.9 12.35 12.92 12.54 13C12.66 13.05 12.77 13.12 12.86 13.21C12.95 13.31 13.03 13.41 13.08 13.54C13.13 13.66 13.16 13.79 13.16 13.92C13.16 14.19 13.05 14.44 12.86 14.63C12.67 14.82 12.42 14.92 12.16 14.92Z" fill="#1A1E26"/>
  <path d="M16.15 14.92C16.02 14.92 15.89 14.89 15.77 14.84C15.65 14.79 15.54 14.72 15.45 14.63C15.35 14.53 15.28 14.42 15.23 14.3C15.18 14.18 15.16 14.05 15.16 13.92C15.16 13.79 15.18 13.66 15.23 13.54C15.28 13.41 15.35 13.31 15.45 13.21C15.82 12.84 16.49 12.84 16.86 13.21C17.05 13.4 17.16 13.66 17.16 13.92C17.16 14.19 17.05 14.44 16.86 14.63C16.68 14.81 16.43 14.92 16.15 14.92Z" fill="#1A1E26"/>
  <path d="M8.16002 18.92C7.89002 18.92 7.64002 18.82 7.45002 18.63C7.26002 18.44 7.15002 18.19 7.15002 17.92C7.15002 17.66 7.26002 17.4 7.45002 17.21C7.49002 17.17 7.55002 17.12 7.60002 17.09C7.65002 17.05 7.71002 17.02 7.77002 17C7.83002 16.97 7.90002 16.95 7.96002 16.94C8.29002 16.88 8.63002 16.98 8.86002 17.21C8.91002 17.26 8.95002 17.31 8.99002 17.36C9.02002 17.42 9.05002 17.48 9.08002 17.54C9.10002 17.6 9.12002 17.66 9.14002 17.72C9.15002 17.79 9.16002 17.85 9.16002 17.92C9.16002 18.19 9.05002 18.44 8.86002 18.63C8.67002 18.82 8.42002 18.92 8.16002 18.92Z" fill="#1A1E26"/>
  <path d="M12.16 18.92C11.89 18.92 11.64 18.82 11.45 18.63C11.26 18.44 11.15 18.19 11.15 17.92C11.15 17.66 11.26 17.4 11.45 17.21C11.68 16.98 12.03 16.88 12.35 16.94C12.41 16.95 12.48 16.97 12.54 17C12.6 17.02 12.66 17.05 12.71 17.09C12.76 17.12 12.81 17.17 12.86 17.21C13.05 17.4 13.15 17.66 13.15 17.92C13.15 18.19 13.05 18.44 12.86 18.63C12.67 18.82 12.42 18.92 12.16 18.92Z" fill="#1A1E26"/>
  <path d="M16.15 18.92C15.89 18.92 15.64 18.82 15.45 18.63C15.26 18.44 15.16 18.19 15.16 17.92C15.16 17.66 15.26 17.4 15.45 17.21C15.54 17.12 15.65 17.05 15.77 17C16.14 16.85 16.59 16.93 16.86 17.21C17.05 17.4 17.15 17.66 17.15 17.92C17.15 18.19 17.05 18.44 16.86 18.63C16.77 18.72 16.66 18.79 16.54 18.84C16.42 18.89 16.29 18.92 16.15 18.92Z" fill="#1A1E26"/>
</svg>