<svg width="86" height="112" viewBox="0 0 86 112" fill="none" xmlns="http://www.w3.org/2000/svg">
<path d="M5.14068 0.546884C3.10162 1.10938 1.48443 2.53907 0.523496 4.67188C0.0547461 5.72657 0.0313086 6.00782 0.0313086 56.0234C0.0313086 112.18 -0.109316 107.469 1.71881 109.555C2.23443 110.141 3.21881 110.914 3.87506 111.266L5.07037 111.898H42.5704H80.0704L81.2657 111.266C82.6719 110.516 84.0313 109.086 84.7344 107.586L85.2266 106.508V75.4531C85.2266 49.7422 85.1797 44.1875 84.8985 43.1094C84.5235 41.6563 83.6797 39.8281 82.836 38.7266C82.1094 37.7891 80.1641 36.4531 78.5469 35.7969C77.3047 35.2813 76.9532 35.2578 66.3594 35.1406L55.461 35.0234L54.1719 34.4141C52.5313 33.6406 51.2891 32.5625 50.5157 31.25C49.2032 29 49.1797 28.7656 49.0157 18.0313C48.8751 8.42188 48.8516 8.02345 48.336 6.59376C47.0469 3.0547 44.2813 0.992196 40.0157 0.453134C37.3438 0.101571 6.47662 0.195321 5.14068 0.546884ZM27.5235 56.8438C29.0469 57.1016 30.7579 58.3203 31.4141 59.5859C32.211 61.1563 32.2344 63.8516 31.461 65.4453C30.3126 67.8125 28.461 68.6563 24.4766 68.6563H21.8282V72.1719V75.6875H18.7813H15.7344V66.1953V56.7031H21.1954C24.1719 56.7031 27.0313 56.7734 27.5235 56.8438ZM46.1797 56.9375C46.8594 57.0547 47.7969 57.3594 48.2657 57.5703C49.6485 58.2266 51.2188 59.9609 51.8516 61.5313C52.3438 62.75 52.3907 63.2891 52.4141 66.3125C52.4141 69.6875 52.4141 69.7344 51.6407 71.2813C50.7501 73.1094 49.2735 74.5156 47.6563 75.125C46.7422 75.4531 45.5235 75.5469 40.8829 75.6406L35.1876 75.7344V66.2188V56.7031H40.086C42.7579 56.7031 45.5235 56.7969 46.1797 56.9375ZM70.1094 58.8125V60.9219H65.8907H61.6719V62.5625V64.2031H65.3047H68.961L68.8907 66.125L68.8204 68.0703L65.2579 68.1406L61.6719 68.2109V71.9375V75.6875H58.6251H55.5782V66.1953V56.7031H62.8438H70.1094V58.8125Z" fill="#006072"/>
<path d="M21.8281 62.7969V64.9766L23.1875 64.8359C23.9141 64.7891 24.8047 64.6016 25.1562 64.4375C26.3516 63.875 26.5625 62.1641 25.5312 61.25C25.2266 60.9453 24.5937 60.7812 23.4453 60.7344L21.8281 60.6406V62.7969Z" fill="#006072"/>
<path d="M41.0469 66.3359V71.5391L42.6875 71.3984C45.9219 71.1172 46.5547 70.3203 46.5547 66.4297C46.5312 63.1953 46.2031 62.2812 44.75 61.625C44.1406 61.3438 43.2266 61.1562 42.4062 61.1562H41.0469V66.3359Z" fill="#006072"/>
<path d="M49.2033 2.79687C49.6017 3.3828 50.2814 4.85937 50.7033 6.07812L51.4767 8.30468L51.5939 17.4453C51.758 27.8047 51.758 27.9219 53.6095 29.9609C54.1955 30.5937 55.1564 31.3672 55.7658 31.6719C56.8439 32.2109 57.008 32.2109 66.8283 32.3516C78.008 32.5156 78.5939 32.5859 81.383 34.3203C82.1564 34.7891 82.8361 35.1406 82.883 35.1172C82.9298 35.0703 76.6251 28.9062 68.8908 21.4297C48.2423 1.46093 48.383 1.62499 49.2033 2.79687Z" fill="#006072"/>
</svg>
