<svg xmlns="http://www.w3.org/2000/svg" width="20" height="20" viewBox="0 0 20 20" fill="none">
  <path d="M6.66602 4.79166C6.32435 4.79166 6.04102 4.50832 6.04102 4.16666V1.66666C6.04102 1.32499 6.32435 1.04166 6.66602 1.04166C7.00768 1.04166 7.29102 1.32499 7.29102 1.66666V4.16666C7.29102 4.50832 7.00768 4.79166 6.66602 4.79166Z" fill="#6E737D"/>
  <path d="M13.334 4.79166C12.9923 4.79166 12.709 4.50832 12.709 4.16666V1.66666C12.709 1.32499 12.9923 1.04166 13.334 1.04166C13.6757 1.04166 13.959 1.32499 13.959 1.66666V4.16666C13.959 4.50832 13.6757 4.79166 13.334 4.79166Z" fill="#6E737D"/>
  <path d="M17.0827 8.19998H2.91602C2.57435 8.19998 2.29102 7.91665 2.29102 7.57498C2.29102 7.23331 2.57435 6.94998 2.91602 6.94998H17.0827C17.4243 6.94998 17.7077 7.23331 17.7077 7.57498C17.7077 7.91665 17.4243 8.19998 17.0827 8.19998Z" fill="#6E737D"/>
  <path d="M13.3333 18.9583H6.66667C3.625 18.9583 1.875 17.2083 1.875 14.1667V7.08332C1.875 4.04166 3.625 2.29166 6.66667 2.29166H13.3333C16.375 2.29166 18.125 4.04166 18.125 7.08332V14.1667C18.125 17.2083 16.375 18.9583 13.3333 18.9583ZM6.66667 3.54166C4.28333 3.54166 3.125 4.69999 3.125 7.08332V14.1667C3.125 16.55 4.28333 17.7083 6.66667 17.7083H13.3333C15.7167 17.7083 16.875 16.55 16.875 14.1667V7.08332C16.875 4.69999 15.7167 3.54166 13.3333 3.54166H6.66667Z" fill="#6E737D"/>
  <path d="M7.08333 12.0833C6.975 12.0833 6.86666 12.0583 6.76666 12.0167C6.66666 11.975 6.57501 11.9167 6.49167 11.8417C6.41667 11.7583 6.35832 11.6667 6.31666 11.5667C6.27499 11.4667 6.25 11.3583 6.25 11.25C6.25 11.0333 6.34167 10.8167 6.49167 10.6583C6.57501 10.5833 6.66666 10.525 6.76666 10.4833C6.91666 10.4167 7.08334 10.4 7.25001 10.4333C7.30001 10.4417 7.35 10.4583 7.4 10.4833C7.45 10.5 7.5 10.525 7.55 10.5583C7.59166 10.5917 7.63333 10.625 7.67499 10.6583C7.70833 10.7 7.74999 10.7417 7.77499 10.7833C7.80832 10.8333 7.83334 10.8833 7.85001 10.9333C7.87501 10.9833 7.89168 11.0333 7.90001 11.0833C7.90834 11.1417 7.91667 11.1917 7.91667 11.25C7.91667 11.4667 7.82499 11.6833 7.67499 11.8417C7.51666 11.9917 7.3 12.0833 7.08333 12.0833Z" fill="#6E737D"/>
  <path d="M9.99935 12.0833C9.78268 12.0833 9.56602 11.9916 9.40769 11.8416C9.37436 11.8 9.34103 11.7583 9.30769 11.7167C9.27436 11.6667 9.24934 11.6167 9.23267 11.5667C9.20767 11.5167 9.19101 11.4667 9.18267 11.4167C9.17434 11.3583 9.16602 11.3083 9.16602 11.25C9.16602 11.1417 9.191 11.0333 9.23267 10.9333C9.27434 10.8333 9.33269 10.7417 9.40769 10.6583C9.64102 10.425 10.016 10.35 10.316 10.4833C10.4244 10.525 10.5077 10.5833 10.591 10.6583C10.741 10.8167 10.8327 11.0333 10.8327 11.25C10.8327 11.3083 10.8244 11.3583 10.816 11.4167C10.8077 11.4667 10.791 11.5167 10.766 11.5667C10.7494 11.6167 10.7243 11.6667 10.691 11.7167C10.6577 11.7583 10.6243 11.8 10.591 11.8416C10.5077 11.9166 10.4244 11.975 10.316 12.0167C10.216 12.0583 10.1077 12.0833 9.99935 12.0833Z" fill="#6E737D"/>
  <path d="M7.08333 15C6.975 15 6.86666 14.975 6.76666 14.9334C6.66666 14.8917 6.57501 14.8333 6.49167 14.7583C6.41667 14.675 6.35832 14.5917 6.31666 14.4833C6.27499 14.3833 6.25 14.275 6.25 14.1667C6.25 13.95 6.34167 13.7333 6.49167 13.575C6.57501 13.5 6.66666 13.4417 6.76666 13.4C7.075 13.2667 7.44166 13.3417 7.67499 13.575C7.70833 13.6167 7.74999 13.6583 7.77499 13.7C7.80832 13.75 7.83334 13.8 7.85001 13.85C7.87501 13.9 7.89168 13.95 7.90001 14.0083C7.90834 14.0583 7.91667 14.1167 7.91667 14.1667C7.91667 14.3833 7.82499 14.6 7.67499 14.7583C7.51666 14.9083 7.3 15 7.08333 15Z" fill="#6E737D"/>
</svg>