<svg width="32" height="32" viewBox="0 0 32 32" fill="none" xmlns="http://www.w3.org/2000/svg">
<path d="M26.0404 7.3741C26.4309 6.98357 26.4309 6.35041 26.0404 5.95989C25.6499 5.56936 25.0167 5.56936 24.6262 5.95989L16 14.5861L7.37373 5.95989C6.98321 5.56936 6.35004 5.56936 5.95952 5.95989C5.56899 6.35041 5.56899 6.98357 5.95952 7.3741L14.5857 16.0003L5.95952 24.6266C5.56899 25.0171 5.56899 25.6502 5.95952 26.0408C6.35004 26.4313 6.98321 26.4313 7.37373 26.0408L16 17.4145L24.6262 26.0408C25.0167 26.4313 25.6499 26.4313 26.0404 26.0408C26.4309 25.6502 26.4309 25.0171 26.0404 24.6266L17.4142 16.0003L26.0404 7.3741Z" fill="white"/>
</svg>
