<svg id="close" xmlns="http://www.w3.org/2000/svg" width="24" height="24" viewBox="0 0 24 24">
  <rect id="Rectangle_116" data-name="Rectangle 116" width="24" height="24" fill="none"/>
  <path id="Path_4995" data-name="Path 4995" d="M858.435-1910.151l-5.657-5.657-5.657,5.657a1,1,0,0,1-1.414,0,1,1,0,0,1,0-1.414l5.657-5.657-5.657-5.657a1,1,0,0,1,0-1.414,1,1,0,0,1,1.414,0l5.657,5.657,5.657-5.657a1,1,0,0,1,1.414,0,1,1,0,0,1,0,1.414l-5.657,5.657,5.657,5.657a1,1,0,0,1,0,1.414,1,1,0,0,1-.707.293A1,1,0,0,1,858.435-1910.151Z" transform="translate(-840.778 1929.222)" fill="#fff"/>
</svg>
