<svg xmlns="http://www.w3.org/2000/svg" width="14" height="14" viewBox="0 0 14 14">
  <g id="eye2" transform="translate(-0.356 -0.356)">
    <rect id="Rectangle_2056" data-name="Rectangle 2056" width="14" height="14" transform="translate(0.356 0.356)" fill="none"/>
    <path id="Path_5057" data-name="Path 5057" d="M2.229.959,5.276,4.006a1.226,1.226,0,0,1,1.729,1.73l3.025,3.025a.613.613,0,1,1-.867.867l-.552-.552a4.885,4.885,0,0,1-2.482.688c-2.2,0-4.139-1.483-5.828-4.353L.173,5.187,0,4.883l.173-.307A13.962,13.962,0,0,1,1.793,2.257l-.429-.429A.613.613,0,1,1,2.229.959ZM1.561,4.638l-.147.245.128.21c1.448,2.349,2.98,3.451,4.59,3.451A3.608,3.608,0,0,0,7.71,8.177L5.395,5.858a1.23,1.23,0,0,1-.245-.245L2.659,3.123a11.964,11.964,0,0,0-1.1,1.517ZM6.13,0c2.2,0,4.139,1.483,5.828,4.353l.129.224.173.307-.3.523A13.671,13.671,0,0,1,10.49,7.485l-.865-.864a12.444,12.444,0,0,0,1.226-1.737C9.362,2.391,7.786,1.221,6.13,1.221a3.6,3.6,0,0,0-1.55.357l-.906-.9A4.878,4.878,0,0,1,6.13,0Z" transform="translate(1.226 2.452)" fill="#9aa0a6"/>
  </g>
</svg>
