<svg xmlns="http://www.w3.org/2000/svg" width="20" height="20" viewBox="0 0 20 20"><defs><style>.a{fill:none;}.b{fill:#9aa0a6;}</style></defs><rect class="a" width="20" height="20"/><g transform="translate(1.671 0.858)"><path class="b" d="M16.153,7.351a9.194,9.194,0,0,0-7.824-4.7A9.194,9.194,0,0,0,.5,7.351a3.407,3.407,0,0,0,0,3.583,9.194,9.194,0,0,0,7.824,4.7,9.194,9.194,0,0,0,7.824-4.7A3.407,3.407,0,0,0,16.153,7.351ZM14.97,10.207a7.854,7.854,0,0,1-6.641,4.034,7.854,7.854,0,0,1-6.641-4.034,2.026,2.026,0,0,1,0-2.13A7.854,7.854,0,0,1,8.329,4.043,7.848,7.848,0,0,1,14.97,8.077,2.026,2.026,0,0,1,14.97,10.207Z" transform="translate(0)"/><path class="b" d="M10.471,7a3.471,3.471,0,1,0,3.471,3.471A3.471,3.471,0,0,0,10.471,7Zm0,5.554a2.083,2.083,0,1,1,2.083-2.083A2.083,2.083,0,0,1,10.471,12.554Z" transform="translate(-2.142 -1.329)"/></g></svg>