<svg width="15" height="10" viewBox="0 0 15 10" fill="none" xmlns="http://www.w3.org/2000/svg">
<path d="M9.75 8.5C10.1642 8.5 10.5 8.83579 10.5 9.25C10.5 9.66421 10.1642 10 9.75 10H5.25C4.83579 10 4.5 9.66421 4.5 9.25C4.5 8.83579 4.83579 8.5 5.25 8.5H9.75ZM11.75 4.25C12.1642 4.25 12.5 4.58579 12.5 5C12.5 5.41421 12.1642 5.75 11.75 5.75H3.25C2.83579 5.75 2.5 5.41421 2.5 5C2.5 4.58579 2.83579 4.25 3.25 4.25H11.75ZM13.75 0C14.1642 0 14.5 0.335786 14.5 0.75C14.5 1.16421 14.1642 1.5 13.75 1.5H1.25C0.835786 1.5 0.5 1.16421 0.5 0.75C0.5 0.335786 0.835786 0 1.25 0H13.75Z" fill="#1A1E26"></path>
</svg>