<svg width="24" height="48" viewBox="0 0 24 48" fill="none" xmlns="http://www.w3.org/2000/svg">
<path d="M16.6094 3C14.9457 3 13.4873 3.78845 12.3918 5.28015C12.2457 5.4791 12.1154 5.67813 12 5.8709C11.8846 5.67809 11.7543 5.4791 11.6082 5.28015C10.5127 3.78845 9.0543 3 7.39062 3C4.24781 3 2 5.79687 2 9.15298C2 12.9905 4.95926 16.6072 11.5952 20.8799C11.7196 20.9599 11.8598 21 12 21C12.1402 21 12.2804 20.96 12.4048 20.8799C19.0407 16.6073 22 12.9906 22 9.15302C22 5.79866 19.754 3 16.6094 3ZM18.3733 13.9314C16.9918 15.5697 14.9041 17.2948 12 19.1967C9.0959 17.2948 7.0082 15.5697 5.62668 13.9314C4.2377 12.2842 3.5625 10.7212 3.5625 9.15302C3.5625 6.73657 5.09898 4.66068 7.39062 4.66068C8.55766 4.66068 9.55273 5.19998 10.3482 6.26365C10.9843 7.11429 11.2523 7.99266 11.2542 7.99893C11.356 8.3458 11.6582 8.58208 12 8.58208C12.3419 8.58208 12.6441 8.34585 12.7459 7.99893C12.7483 7.99054 13.0083 7.13957 13.6235 6.30193C14.4233 5.21285 15.4279 4.66064 16.6094 4.66064C18.9034 4.66064 20.4375 6.73852 20.4375 9.15298C20.4375 10.7211 19.7623 12.2841 18.3733 13.9314Z" fill="#262626"/>
<path d="M16.6094 27C14.9457 27 13.4873 27.7884 12.3918 29.2802C12.2457 29.4791 12.1154 29.6781 12 29.8709C11.8846 29.6781 11.7543 29.4791 11.6082 29.2802C10.5127 27.7884 9.0543 27 7.39062 27C4.24781 27 2 29.7969 2 33.153C2 36.9905 4.95926 40.6072 11.5952 44.8799C11.7196 44.9599 11.8598 45 12 45C12.1402 45 12.2804 44.96 12.4048 44.8799C19.0407 40.6073 22 36.9906 22 33.153C22 29.7987 19.754 27 16.6094 27Z" fill="#D4252A"/>
</svg>
