<svg xmlns="http://www.w3.org/2000/svg" version="1.1" xmlns:xlink="http://www.w3.org/1999/xlink" width="22" height="22" x="0" y="0" viewBox="0 0 513.515 513.515" style="enable-background:new 0 0 22 22" xml:space="preserve" class=""><g><path d="M437.776 75.74C338.221-22.652 176.132-25.33 75.74 74.222S-25.33 335.868 74.222 436.26c.503.507 1.008 1.013 1.516 1.516 99.555 100.392 261.644 101.07 362.036 1.515s101.07-261.644 1.515-362.035a220.609 220.609 0 0 0-1.515-1.516zM256.757 477.414c-121.669 0-220.655-98.986-220.655-220.655S135.088 36.104 256.757 36.104s220.655 98.986 220.655 220.655-98.986 220.655-220.655 220.655z" fill="#6E737D" opacity="1" data-original="#000000" class=""></path><path d="M296.718 359.837h-22.289V208.719c0-9.76-7.912-17.673-17.673-17.673h-39.961c-9.76 0-17.673 7.912-17.673 17.673 0 9.76 7.912 17.673 17.673 17.673h22.289v133.445h-22.289c-9.76 0-17.673 7.912-17.673 17.673 0 9.76 7.912 17.673 17.673 17.673h79.922c9.76 0 17.673-7.912 17.673-17.673.001-9.761-7.912-17.673-17.672-17.673zM256.757 173.012c9.76 0 17.673-7.912 17.673-17.673v-19.331c0-9.76-7.912-17.673-17.673-17.673-9.76 0-17.673 7.912-17.673 17.673v19.331c0 9.761 7.913 17.673 17.673 17.673z" fill="#6E737D" opacity="1" data-original="#000000" class=""></path></g></svg>