<svg xmlns="http://www.w3.org/2000/svg" width="20" height="20" viewBox="0 0 20 20" fill="none">
  <path fill-rule="evenodd" clip-rule="evenodd" d="M9.99996 1.66666C7.73663 1.66666 7.45329 1.67611 6.5644 1.71666C5.67718 1.75722 5.07107 1.89833 4.54107 2.10444C3.98551 2.31333 3.48163 2.64111 3.06496 3.06555C2.64119 3.48174 2.31321 3.98527 2.10385 4.54111C1.89885 5.07111 1.75718 5.67778 1.71663 6.565C1.67663 7.45333 1.66663 7.73611 1.66663 10C1.66663 12.2639 1.67607 12.5467 1.71663 13.4356C1.75718 14.3228 1.89829 14.9289 2.1044 15.4589C2.31329 16.0144 2.64107 16.5183 3.06551 16.935C3.48171 17.3588 3.98524 17.6867 4.54107 17.8961C5.07107 18.1017 5.67718 18.2428 6.5644 18.2833C7.45329 18.3239 7.73663 18.3333 9.99996 18.3333C12.2633 18.3333 12.5466 18.3239 13.4355 18.2833C14.3227 18.2428 14.9288 18.1017 15.4588 17.8956C16.0144 17.6867 16.5183 17.3589 16.935 16.9344C17.3587 16.5183 17.6867 16.0147 17.8961 15.4589C18.1016 14.9289 18.2427 14.3228 18.2833 13.4356C18.3238 12.5467 18.3333 12.2633 18.3333 10C18.3333 7.73666 18.3238 7.45333 18.2833 6.56444C18.2427 5.67722 18.1016 5.07111 17.8955 4.54111C17.6863 3.98503 17.3583 3.48129 16.9344 3.065C16.5182 2.64123 16.0147 2.31325 15.4588 2.10389C14.9288 1.89889 14.3222 1.75722 13.435 1.71666C12.5466 1.67666 12.2638 1.66666 9.99996 1.66666ZM9.99996 3.16833C12.225 3.16833 12.4888 3.17666 13.3677 3.21666C14.18 3.25389 14.6211 3.38889 14.915 3.50389C15.3038 3.65444 15.5816 3.83555 15.8733 4.12666C16.165 4.41833 16.3455 4.69611 16.4961 5.085C16.6105 5.37889 16.7461 5.82 16.7833 6.63222C16.8233 7.51111 16.8316 7.775 16.8316 10C16.8316 12.225 16.8233 12.4889 16.7833 13.3678C16.7461 14.18 16.6111 14.6211 16.4961 14.915C16.3627 15.277 16.1499 15.6044 15.8733 15.8733C15.6044 16.15 15.277 16.3628 14.915 16.4961C14.6211 16.6106 14.18 16.7461 13.3677 16.7833C12.4888 16.8233 12.2255 16.8317 9.99996 16.8317C7.7744 16.8317 7.51107 16.8233 6.63218 16.7833C5.81996 16.7461 5.37885 16.6111 5.08496 16.4961C4.72299 16.3627 4.39552 16.1499 4.12663 15.8733C3.85006 15.6044 3.63725 15.277 3.50385 14.915C3.3894 14.6211 3.25385 14.18 3.21663 13.3678C3.17663 12.4889 3.16829 12.225 3.16829 10C3.16829 7.775 3.17663 7.51111 3.21663 6.63222C3.25385 5.82 3.38885 5.37889 3.50385 5.085C3.6544 4.69611 3.83552 4.41833 4.12663 4.12666C4.39548 3.85002 4.72296 3.63721 5.08496 3.50389C5.37885 3.38944 5.81996 3.25389 6.63218 3.21666C7.51107 3.17666 7.77496 3.16833 9.99996 3.16833Z" fill="#414752"/>
  <path fill-rule="evenodd" clip-rule="evenodd" d="M9.99997 12.7806C9.63483 12.7806 9.27325 12.7086 8.9359 12.5689C8.59855 12.4292 8.29202 12.2243 8.03382 11.9661C7.77562 11.7079 7.57081 11.4014 7.43107 11.0641C7.29134 10.7267 7.21942 10.3651 7.21942 10C7.21942 9.63485 7.29134 9.27328 7.43107 8.93592C7.57081 8.59857 7.77562 8.29205 8.03382 8.03385C8.29202 7.77565 8.59855 7.57084 8.9359 7.4311C9.27325 7.29136 9.63483 7.21944 9.99997 7.21944C10.7374 7.21944 11.4447 7.51239 11.9661 8.03385C12.4876 8.5553 12.7805 9.26255 12.7805 10C12.7805 10.7374 12.4876 11.4447 11.9661 11.9661C11.4447 12.4876 10.7374 12.7806 9.99997 12.7806ZM9.99997 5.71666C8.86396 5.71666 7.77448 6.16794 6.9712 6.97122C6.16792 7.7745 5.71664 8.86399 5.71664 10C5.71664 11.136 6.16792 12.2255 6.9712 13.0288C7.77448 13.8321 8.86396 14.2833 9.99997 14.2833C11.136 14.2833 12.2255 13.8321 13.0287 13.0288C13.832 12.2255 14.2833 11.136 14.2833 10C14.2833 8.86399 13.832 7.7745 13.0287 6.97122C12.2255 6.16794 11.136 5.71666 9.99997 5.71666ZM15.5294 5.63889C15.5294 5.90742 15.4227 6.16495 15.2329 6.35483C15.043 6.54471 14.7854 6.65139 14.5169 6.65139C14.2484 6.65139 13.9909 6.54471 13.801 6.35483C13.6111 6.16495 13.5044 5.90742 13.5044 5.63889C13.5044 5.37035 13.6111 5.11282 13.801 4.92294C13.9909 4.73306 14.2484 4.62639 14.5169 4.62639C14.7854 4.62639 15.043 4.73306 15.2329 4.92294C15.4227 5.11282 15.5294 5.37035 15.5294 5.63889Z" fill="#414752"/>
</svg>