<svg xmlns="http://www.w3.org/2000/svg" width="32" height="32" viewBox="0 0 32 32" fill="none">
  <path fill-rule="evenodd" clip-rule="evenodd" d="M16 2.66675C12.3786 2.66675 11.9253 2.68186 10.5031 2.74675C9.08352 2.81164 8.11374 3.03741 7.26574 3.36719C6.37685 3.70141 5.57063 4.22586 4.90396 4.90497C4.22593 5.57087 3.70117 6.37652 3.36618 7.26586C3.03818 8.11386 2.81151 9.08453 2.74663 10.5041C2.68263 11.9254 2.66663 12.3779 2.66663 16.0001C2.66663 19.6223 2.68174 20.0747 2.74663 21.497C2.81151 22.9165 3.03729 23.8863 3.36707 24.7343C3.70129 25.6232 4.22574 26.4294 4.90485 27.0961C5.57076 27.7741 6.37641 28.2989 7.26574 28.6339C8.11374 28.9627 9.08352 29.1885 10.5031 29.2534C11.9253 29.3183 12.3786 29.3334 16 29.3334C19.6213 29.3334 20.0746 29.3183 21.4968 29.2534C22.9164 29.1885 23.8862 28.9627 24.7342 28.633C25.6231 28.2987 26.4293 27.7743 27.096 27.0952C27.774 26.4293 28.2988 25.6236 28.6337 24.7343C28.9626 23.8863 29.1884 22.9165 29.2533 21.497C29.3182 20.0747 29.3333 19.6214 29.3333 16.0001C29.3333 12.3787 29.3182 11.9254 29.2533 10.5032C29.1884 9.08364 28.9626 8.11386 28.6328 7.26586C28.2981 6.37614 27.7733 5.57014 27.0951 4.90408C26.4292 4.22606 25.6235 3.70129 24.7342 3.3663C23.8862 3.0383 22.9155 2.81164 21.496 2.74675C20.0746 2.68275 19.6222 2.66675 16 2.66675ZM16 5.06941C19.56 5.06941 19.9822 5.08275 21.3884 5.14675C22.688 5.2063 23.3937 5.4223 23.864 5.6063C24.4862 5.84719 24.9306 6.13697 25.3973 6.60275C25.864 7.06942 26.1528 7.51386 26.3937 8.13608C26.5768 8.6063 26.7937 9.31208 26.8533 10.6116C26.9173 12.0179 26.9306 12.4401 26.9306 16.0001C26.9306 19.5601 26.9173 19.9823 26.8533 21.3885C26.7937 22.6881 26.5777 23.3939 26.3937 23.8641C26.1803 24.4432 25.8398 24.9672 25.3973 25.3974C24.9671 25.8401 24.4432 26.1806 23.864 26.3939C23.3937 26.577 22.688 26.7939 21.3884 26.8534C19.9822 26.9174 19.5608 26.9308 16 26.9308C12.4391 26.9308 12.0177 26.9174 10.6115 26.8534C9.31196 26.7939 8.60618 26.5779 8.13596 26.3939C7.55681 26.1805 7.03285 25.84 6.60263 25.3974C6.16012 24.9671 5.81963 24.4432 5.60618 23.8641C5.42307 23.3939 5.20618 22.6881 5.14663 21.3885C5.08263 19.9823 5.06929 19.5601 5.06929 16.0001C5.06929 12.4401 5.08263 12.0179 5.14663 10.6116C5.20618 9.31208 5.42218 8.6063 5.60618 8.13608C5.84707 7.51386 6.13685 7.06942 6.60263 6.60275C7.0328 6.16012 7.55677 5.81962 8.13596 5.6063C8.60618 5.42319 9.31196 5.2063 10.6115 5.14675C12.0177 5.08275 12.44 5.06941 16 5.06941Z" fill="#D7F4FA"/>
  <path fill-rule="evenodd" clip-rule="evenodd" d="M16 20.449C15.4157 20.449 14.8372 20.3339 14.2975 20.1103C13.7577 19.8867 13.2673 19.559 12.8541 19.1459C12.441 18.7328 12.1133 18.2424 11.8897 17.7026C11.6662 17.1628 11.5511 16.5843 11.5511 16.0001C11.5511 15.4158 11.6662 14.8373 11.8897 14.2976C12.1133 13.7578 12.441 13.2674 12.8541 12.8542C13.2673 12.4411 13.7577 12.1134 14.2975 11.8898C14.8372 11.6663 15.4157 11.5512 16 11.5512C17.1799 11.5512 18.3115 12.0199 19.1458 12.8542C19.9802 13.6886 20.4489 14.8202 20.4489 16.0001C20.4489 17.18 19.9802 18.3116 19.1458 19.1459C18.3115 19.9803 17.1799 20.449 16 20.449ZM16 9.14675C14.1824 9.14675 12.4392 9.86879 11.1539 11.154C9.86869 12.4393 9.14665 14.1825 9.14665 16.0001C9.14665 17.8177 9.86869 19.5609 11.1539 20.8461C12.4392 22.1314 14.1824 22.8534 16 22.8534C17.8176 22.8534 19.5608 22.1314 20.846 20.8461C22.1313 19.5609 22.8533 17.8177 22.8533 16.0001C22.8533 14.1825 22.1313 12.4393 20.846 11.154C19.5608 9.86879 17.8176 9.14675 16 9.14675ZM24.8471 9.0223C24.8471 9.45195 24.6764 9.86401 24.3726 10.1678C24.0688 10.4716 23.6567 10.6423 23.2271 10.6423C22.7974 10.6423 22.3854 10.4716 22.0816 10.1678C21.7778 9.86401 21.6071 9.45195 21.6071 9.0223C21.6071 8.59265 21.7778 8.1806 22.0816 7.87679C22.3854 7.57298 22.7974 7.4023 23.2271 7.4023C23.6567 7.4023 24.0688 7.57298 24.3726 7.87679C24.6764 8.1806 24.8471 8.59265 24.8471 9.0223Z" fill="#D7F4FA"/>
</svg>