<svg xmlns="http://www.w3.org/2000/svg" width="20" height="20" viewBox="0 0 20 20" fill="none">
  <path d="M18.3333 2.89215V17.1078C18.3333 17.4329 18.2042 17.7446 17.9744 17.9744C17.7445 18.2042 17.4328 18.3333 17.1078 18.3333H2.89212C2.5671 18.3333 2.25539 18.2042 2.02556 17.9744C1.79574 17.7446 1.66663 17.4329 1.66663 17.1078V2.89215C1.66663 2.56713 1.79574 2.25543 2.02556 2.0256C2.25539 1.79578 2.5671 1.66666 2.89212 1.66666L17.1078 1.66666C17.4328 1.66666 17.7445 1.79578 17.9744 2.0256C18.2042 2.25543 18.3333 2.56713 18.3333 2.89215ZM6.56859 8.03921H4.11761V15.8824H6.56859V8.03921ZM6.78918 5.34313C6.79047 5.15774 6.75523 4.9739 6.68547 4.80212C6.61572 4.63035 6.51281 4.47399 6.38262 4.34199C6.25244 4.20998 6.09753 4.10491 5.92673 4.03277C5.75594 3.96064 5.57261 3.92285 5.38721 3.92157H5.3431C4.96607 3.92157 4.60449 4.07134 4.3379 4.33793C4.0713 4.60453 3.92153 4.96611 3.92153 5.34313C3.92153 5.72016 4.0713 6.08174 4.3379 6.34834C4.60449 6.61493 4.96607 6.7647 5.3431 6.7647C5.52851 6.76926 5.713 6.73725 5.88603 6.67048C6.05906 6.60372 6.21724 6.50351 6.35153 6.3756C6.48583 6.24768 6.5936 6.09455 6.66869 5.92497C6.74378 5.75538 6.78472 5.57266 6.78918 5.38725V5.34313ZM15.8823 11.1176C15.8823 8.7598 14.3823 7.84314 12.8921 7.84314C12.4042 7.8187 11.9184 7.92263 11.4832 8.14454C11.048 8.36645 10.6785 8.69859 10.4117 9.10784H10.3431V8.03921H8.03918V15.8824H10.4902V11.7108C10.4547 11.2835 10.5893 10.8596 10.8647 10.531C11.14 10.2024 11.5339 9.99574 11.9607 9.95588H12.0539C12.8333 9.95588 13.4117 10.4461 13.4117 11.6814V15.8824H15.8627L15.8823 11.1176Z" fill="#414752"/>
</svg>