<svg xmlns="http://www.w3.org/2000/svg" width="32" height="32" viewBox="0 0 32 32" fill="none">
  <path d="M29.3333 4.62753V27.3726C29.3333 27.8927 29.1267 28.3914 28.759 28.7591C28.3913 29.1268 27.8925 29.3334 27.3725 29.3334H4.62741C4.10738 29.3334 3.60864 29.1268 3.24093 28.7591C2.87321 28.3914 2.66663 27.8927 2.66663 27.3726V4.62753C2.66663 4.1075 2.87321 3.60877 3.24093 3.24105C3.60864 2.87333 4.10738 2.66675 4.62741 2.66675L27.3725 2.66675C27.8925 2.66675 28.3913 2.87333 28.759 3.24105C29.1267 3.60877 29.3333 4.1075 29.3333 4.62753ZM10.5098 12.8628H6.58819V25.4118H10.5098V12.8628ZM10.8627 8.5491C10.8648 8.25247 10.8084 7.95833 10.6968 7.68348C10.5852 7.40864 10.4205 7.15847 10.2122 6.94726C10.0039 6.73605 9.75606 6.56794 9.4828 6.45252C9.20953 6.33711 8.9162 6.27664 8.61957 6.27459H8.54898C7.94574 6.27459 7.36721 6.51423 6.94066 6.94078C6.5141 7.36733 6.27447 7.94586 6.27447 8.5491C6.27447 9.15234 6.5141 9.73087 6.94066 10.1574C7.36721 10.584 7.94574 10.8236 8.54898 10.8236C8.84563 10.8309 9.14082 10.7797 9.41767 10.6729C9.69452 10.566 9.94761 10.4057 10.1625 10.201C10.3773 9.99637 10.5498 9.75137 10.6699 9.48003C10.7901 9.2087 10.8556 8.91635 10.8627 8.61969V8.5491ZM25.4117 17.7883C25.4117 14.0158 23.0117 12.5491 20.6274 12.5491C19.8467 12.51 19.0695 12.6763 18.3731 13.0313C17.6767 13.3864 17.0857 13.9178 16.6588 14.5726H16.549V12.8628H12.8627V25.4118H16.7843V18.7373C16.7276 18.0538 16.9429 17.3754 17.3835 16.8497C17.824 16.3239 18.4543 15.9933 19.1372 15.9295H19.2862C20.5333 15.9295 21.4588 16.7138 21.4588 18.6903V25.4118H25.3804L25.4117 17.7883Z" fill="#D7F4FA"/>
</svg>