<svg xmlns="http://www.w3.org/2000/svg" width="20" height="20" viewBox="0 0 20 20" fill="none">
  <path d="M4.08061 5.18117C4.57676 4.22279 5.31087 3.40199 6.21544 2.79422C7.12001 2.18645 8.16603 1.81122 9.25731 1.70302C9.75098 1.65449 10.2484 1.65449 10.742 1.70302C11.8333 1.81129 12.8793 2.18651 13.7839 2.79421C14.6885 3.40191 15.4227 4.22259 15.9191 5.18085C16.5435 6.40354 16.7848 7.77993 16.6123 9.13666C16.4399 10.4934 15.8615 11.7698 14.95 12.8051L10.5053 18.0993C10.4439 18.1725 10.3667 18.2314 10.2793 18.2719C10.192 18.3123 10.0965 18.3333 9.99983 18.3333C9.90317 18.3333 9.80771 18.3123 9.72031 18.2719C9.63291 18.2314 9.55575 18.1725 9.49437 18.0993L5.04965 12.8051C4.13819 11.7699 3.55981 10.4935 3.38737 9.13683C3.21492 7.78014 3.45613 6.4038 4.08061 5.18117ZM9.99983 10.6406C10.5175 10.6406 11.0235 10.4903 11.4539 10.2085C11.8843 9.92675 12.2198 9.52629 12.4179 9.05775C12.616 8.58921 12.6678 8.07364 12.5668 7.57625C12.4658 7.07885 12.2166 6.62196 11.8505 6.26336C11.4845 5.90475 11.0181 5.66054 10.5104 5.5616C10.0027 5.46266 9.47649 5.51344 8.99824 5.70752C8.52 5.90159 8.11124 6.23025 7.82365 6.65192C7.53606 7.07359 7.38256 7.56934 7.38256 8.07649C7.38337 8.7563 7.65938 9.40804 8.15004 9.88874C8.6407 10.3694 9.30594 10.6398 9.99983 10.6406Z" fill="white"/>
</svg>