<svg id="location_fill" data-name="location fill" xmlns="http://www.w3.org/2000/svg" width="24" height="24" viewBox="0 0 24 24">
  <rect id="Rectangle_116" data-name="Rectangle 116" width="24" height="24" fill="none"/>
  <g id="Pin" transform="translate(-1.745 -1.042)">
    <path id="Path_4999" data-name="Path 4999" d="M20.668,7.236a7.724,7.724,0,0,0-6.111-4.191,8.778,8.778,0,0,0-1.753,0,7.726,7.726,0,0,0-6.111,4.19,8.347,8.347,0,0,0,1.144,9.187L13.084,22.8a.772.772,0,0,0,1.193,0l5.247-6.379a8.346,8.346,0,0,0,1.144-9.186Zm-6.987,6.578a3.09,3.09,0,1,1,3.09-3.09A3.09,3.09,0,0,1,13.681,13.814Z"/>
  </g>
</svg>
