<svg xmlns="http://www.w3.org/2000/svg" width="164" height="48" viewBox="0 0 164 48" fill="none">
  <path d="M0 16.6247C0 8.78774 0 4.86926 2.43202 2.43463C4.86404 0 8.77832 0 16.6069 0H147.386C155.215 0 159.129 0 161.561 2.43463C163.993 4.86926 163.993 8.78774 163.993 16.6247V31.1713C163.993 39.0083 163.993 42.9267 161.561 45.3614C159.129 47.796 155.215 47.796 147.386 47.796H16.6069C8.77832 47.796 4.86404 47.796 2.43202 45.3614C0 42.9267 0 39.0083 0 31.1713V16.6247Z" fill="white"/>
  <path d="M10.3793 39.0398V20.4574V16.2874L18.3459 9.08138H38.89L30.923 16.2874H18.3459V20.4574H30.923V27.6638H18.3459V31.8334H30.923V39.0398H10.3793ZM60.8899 20.4574C60.8899 16.9487 59.6091 14.1014 57.0481 11.9154C54.8373 10.026 52.3434 9.08138 49.5663 9.08138H45.9671L38.0005 16.2874V39.0398H45.9671V16.2874H49.5261C50.6316 16.2874 51.6021 16.6789 52.4379 17.4614C53.2737 18.2445 53.6916 19.2431 53.6916 20.4574C53.6916 21.6989 53.2803 22.7043 52.4579 23.4734C51.6359 24.2427 50.6585 24.6274 49.5261 24.6274H47.8277V31.8334H49.5261C52.3029 31.8334 54.7967 30.9025 57.0077 29.0402C59.5958 26.8538 60.8899 23.9929 60.8899 20.4574ZM83.9008 39.0398H81.6765C76.9047 39.0398 72.9077 37.6027 69.6858 34.728C66.4644 31.8538 64.8532 28.298 64.8532 24.0607C64.8532 19.8503 66.471 16.3011 69.7062 13.4132C72.9414 10.5252 76.9314 9.08138 81.6765 9.08138H91.8678L83.9008 16.2874H82.2428C79.5739 16.2874 77.3361 17.0296 75.5296 18.5141C73.7233 19.9987 72.8202 21.8476 72.8202 24.0607C72.8202 26.2467 73.7301 28.0889 75.5498 29.5867C77.3698 31.0845 79.6007 31.8334 82.2428 31.8334H83.9008V39.0398ZM90.1288 29.0942V39.6876L103.393 27.6638V39.6876L116.86 27.6638V39.0398H125.231V8.31226L113.059 18.9596V8.31226L90.1288 29.0942ZM136.029 16.2874V39.0398H143.996V16.2874H145.654L153.621 9.08138H135.625L127.658 16.2874H136.029Z" fill="#00458E"/>
</svg>