<svg xmlns="http://www.w3.org/2000/svg" width="269" height="162" viewBox="0 0 269 162" fill="none">
<path d="M260.18 8.06514H10.7708V154.653H260.18V8.06514Z" fill="#006072"/>
<path fill-rule="evenodd" clip-rule="evenodd" d="M5.53498 3.32877H263.221V157.93H5.53498V3.32877ZM14.1274 11.9413H254.64V149.329H14.1274V11.9413Z" fill="#F0F2F7"/>
<path fill-rule="evenodd" clip-rule="evenodd" d="M120.126 73.6993V73.7973H120.137C119.909 74.0368 118.942 73.8953 118.062 73.3073C117.172 72.7084 116.813 71.8483 117.02 71.685C117.128 71.6087 117.313 71.685 117.584 71.8374C117.65 71.9898 117.747 72.1423 117.867 72.2729C118.66 73.1766 119.029 73.3835 120.126 73.6884M111.208 46.3917C111.208 46.3917 112.533 46.0759 113.424 46.2719C114.315 46.457 114.88 46.8925 115.14 46.7292C115.325 46.6094 115.064 46.2065 115.064 46.2065C115.064 46.2065 116.074 46.1521 116.129 45.7819C116.161 45.5315 115.51 45.7384 114.934 45.5206C114.293 45.2811 113.989 44.8455 113.869 44.9109C113.761 44.9653 113.902 45.3246 114.152 45.6077C114.369 45.869 114.836 46.0977 114.836 46.0977C114.836 46.0977 114 45.7928 113.12 45.8364C112.251 45.8908 111.208 46.4025 111.208 46.4025V46.3917ZM118.225 43.724C118.41 43.724 118.79 44.2902 119.355 44.3882C119.996 44.508 120.756 44.2793 121.202 44.3338C121.582 44.3773 121.973 44.6822 121.973 44.6822C121.973 44.6822 121.528 44.6822 121.115 44.7693C120.691 44.8455 119.605 45.3028 119.225 45.2811C118.844 45.2593 118.497 45.0197 118.497 45.0197C118.497 45.0197 118.204 45.1177 117.899 45.3464C117.595 45.5641 117.454 45.9126 117.269 45.8908C117.085 45.869 116.965 45.4117 117.128 45.1177C117.335 44.7366 117.954 44.5515 117.954 44.5515C117.954 44.5515 117.813 44.3447 117.834 44.1705C117.856 43.9962 118.073 43.7132 118.214 43.7132L118.225 43.724ZM118.855 43.822C118.931 43.9309 119.475 43.5281 119.92 43.5063C120.376 43.4845 120.865 43.8329 121.093 43.8983C121.321 43.9636 121.843 43.9527 121.864 43.8547C121.886 43.7567 120.724 42.9945 120.126 42.9836C119.637 42.9836 118.779 43.7132 118.855 43.822ZM150.846 49.9848C150.77 49.9412 150.705 49.8977 150.64 49.8541C149.966 49.4621 148.5 48.9504 147.164 48.5257C147.359 48.8415 147.653 49.2117 147.968 49.3859C148.522 49.6799 149.814 49.7234 150.846 49.9848ZM121.56 70.705C121.843 70.3675 122.038 70.03 122.038 70.03C122.255 68.7016 122.451 67.5039 122.69 66.0666C122.69 66.0666 122.885 63.7257 122.722 62.8982C122.636 62.4191 122.353 62.038 122.353 62.038L122.049 61.94V62.1033C121.973 63.301 122.972 64.6294 121.908 66.2409C122.462 64.5205 121.734 63.3446 121.853 62.0924C121.853 62.0162 121.864 61.9509 121.875 61.8856L121.691 61.8202L121.484 61.7114C121.56 62.136 121.614 62.5824 121.604 63.0397C121.571 64.8798 120.843 67.2861 120.898 68.9738C120.919 69.8775 121.267 70.4002 121.56 70.6832V70.705ZM105.929 51.4547C105.929 51.4547 105.505 50.8232 105.451 50.3114C105.342 50.7143 105.223 51.3022 105.299 51.6071C105.407 52.0753 105.82 52.5217 106.048 52.5653C106.276 52.6088 106.711 52.2931 106.711 52.2931C106.711 52.2931 106.048 52.108 106.168 51.9555C106.276 51.7922 108.014 51.8902 109.285 52.1624C110.556 52.4346 112.327 53.3274 113.261 53.469C114.173 53.5996 115.064 53.5234 115.238 53.6759C115.401 53.8174 115.26 54.1332 115.26 54.1332C115.26 54.1332 117.552 55.7337 119.105 57.2363C120.648 58.7389 122.788 61.2758 123.081 62.1687C124.232 65.642 122.31 68.7125 122.386 71.3583C122.407 72.0878 122.636 73.0678 122.451 73.4162C122.31 73.6775 121.734 73.8735 121.115 73.8735C121.202 74.015 121.354 74.1784 121.571 74.2001C121.995 74.2437 122.407 73.7211 122.407 73.7211C122.407 73.7211 122.31 74.5703 121.614 74.6901C121.267 74.7445 120.963 74.5486 120.767 74.3526C120.832 74.7228 120.963 75.1256 121.213 75.2781C121.691 75.572 122.646 75.2127 123.016 74.7119C123.385 74.211 123.363 72.36 123.57 71.2712C123.776 70.1824 124.623 67.9176 124.71 67.0575C124.797 66.1864 124.558 64.5967 124.558 64.5967C124.558 64.5967 125.101 65.8271 125.036 67.0575C124.971 68.2878 124.287 69.932 124.004 71.3692C123.733 72.7629 123.798 73.9279 123.342 74.8208C123.592 74.6683 124.026 74.3417 124.384 73.7537C124.928 72.8609 125.525 70.6288 125.612 68.6907C125.688 66.7526 125.188 64.0306 124.808 63.3119C124.417 62.5933 123.494 61.9727 123.027 61.1996C122.56 60.4266 121.462 57.1819 121.115 56.485C120.767 55.7882 120.3 55.0913 120.3 55.0913C120.3 55.0913 120.963 55.6902 121.365 56.4306C121.767 57.171 122.951 60.1979 123.505 60.971C124.069 61.744 126.133 64.0197 126.753 64.9343C127.372 65.8489 127.828 67.0466 127.774 67.5366C127.719 68.0265 126.807 68.4294 126.763 68.7234C126.72 69.0173 127.133 69.4202 127.111 69.6706C127.089 69.9211 126.438 70.6397 125.894 71.8809C125.351 73.1222 125.286 74.113 125.134 74.3417C124.982 74.5703 124.417 74.6139 124.417 74.6139C124.417 74.6139 123.798 75.4305 123.059 75.7027C122.788 75.8007 122.549 75.8225 122.375 75.8225C122.484 76.1273 122.733 76.6827 123.124 76.8895C123.646 77.1617 124.786 77.1944 125.579 77.0855C126.22 76.9984 126.839 76.6173 126.839 76.6173C126.839 76.6173 126.796 76.0185 127.1 75.7898C127.47 75.5176 128.719 75.4632 128.719 75.4632C128.719 75.4632 129.208 74.7772 129.262 74.1675C129.316 73.5686 129.088 72.8718 129.132 72.5233C129.175 72.1749 130.392 71.2277 130.609 70.7595C130.826 70.2913 130.804 69.1916 130.381 68.6036C129.957 68.0265 128.773 65.8053 128.588 64.6621C128.393 63.5188 128.36 62.5497 128.48 61.9618C128.599 61.3847 129.273 59.5228 129.294 58.9349C129.316 58.3578 128.893 57.6392 128.99 57.465C129.088 57.2907 130.37 57.2581 130.522 57.0621C130.674 56.8661 129.577 55.2764 129.653 55.026C129.729 54.7756 130.022 54.6558 130.022 54.6558C130.022 54.6558 130.272 53.5125 130.066 52.9137C129.848 52.3148 128.447 50.932 128.578 50.5836C128.719 50.2352 129.762 50.4856 129.762 50.4856C129.762 50.4856 129.468 49.9848 129.686 49.865C129.903 49.7452 130.75 50.0828 130.88 49.8323C131.011 49.5819 129.957 48.7108 130.087 48.3406C130.229 47.9704 131.293 47.7418 131.445 47.5458C131.597 47.3498 131.586 46.5767 131.391 46.2065C131.195 45.8363 130.62 45.1177 130.924 44.9871C131.239 44.8564 131.695 46.5441 132.097 46.7183C132.499 46.8925 133.455 46.4243 133.553 46.5985C133.65 46.7727 132.314 47.3934 132.293 47.5894C132.271 47.7853 132.586 47.9922 132.586 48.2318C132.586 48.4604 131.032 48.5257 131.022 48.7544C131 48.983 132.705 50.1154 132.705 50.4203C132.705 50.736 131.576 50.9865 131.565 51.2151C131.543 51.4438 132.553 52.2495 132.553 52.5108C132.553 52.783 131.434 52.9355 131.369 53.4799C131.315 54.0243 132.108 54.6994 132.021 54.9716C131.945 55.2438 130.902 55.2655 130.815 55.4942C130.739 55.7228 131.141 56.485 131.532 56.9097C131.923 57.3343 133.292 58.7715 133.02 59.12C132.749 59.4684 131.282 58.6191 131.282 58.6191C131.282 58.6191 131.326 59.1635 131.185 59.3377C131.054 59.5119 130.424 59.4575 130.272 59.8821C130.12 60.3068 130.75 61.4718 130.62 61.7114C130.479 61.94 129.903 61.5154 129.903 61.5154C129.903 61.5154 130.479 63.5515 130.37 64.0523C130.25 64.5532 129.848 65.152 129.827 65.936C129.805 66.709 130.305 67.4494 130.305 67.4494C130.305 67.4494 130.348 66.5022 130.555 65.936C130.772 65.3698 131.271 64.9887 131.402 65.0867C131.532 65.1847 131.434 65.8053 131.163 66.4259C130.891 67.0466 130.794 67.493 130.924 68.1572C131.054 68.8214 131.565 69.2787 131.771 69.5944C131.988 69.9102 132.151 70.4437 132.021 70.6615C131.902 70.8575 131.673 70.7812 131.673 70.7812C131.673 70.7812 131.456 71.4236 131.076 71.7503C130.902 71.9027 130.62 72.0443 130.359 72.1967C130.848 72.4907 131.587 72.9807 131.978 73.4815C132.586 74.2655 133.27 77.8368 134.02 79.9818C134.769 82.1376 136.714 85.7308 136.714 85.7308C136.714 85.7308 134.096 82.5078 133.281 80.4173C132.466 78.3268 132.151 74.8534 131.51 74.1021C131.054 73.5795 130.174 73.2637 129.686 73.1331C129.729 73.4706 129.892 73.8953 129.772 74.6357C129.62 75.5938 128.979 76.16 128.979 76.16C128.979 76.16 127.904 76.0402 127.611 76.258C127.415 76.4104 127.611 76.8786 127.611 76.8786C127.611 76.8786 126.829 77.3686 126.036 77.5319C125.156 77.717 123.342 77.8041 122.69 77.4557C122.147 77.1726 121.701 76.258 121.571 75.964C121.289 75.964 121.028 75.9096 120.865 75.768C120.572 75.5176 120.387 74.8752 120.268 74.3635C119.616 74.6465 118.345 74.0804 117.889 73.7755C117.454 73.4815 117.074 73.0569 116.846 72.5887C116.694 72.2947 116.607 71.6305 116.824 71.4672C116.954 71.3801 117.269 71.4345 117.519 71.5325C117.519 71.4345 117.53 71.3474 117.574 71.2712C117.66 71.097 117.899 71.0534 118.16 71.0861C118.573 71.1406 118.953 71.3583 119.366 71.4781C119.844 71.6196 120.344 71.6305 120.898 71.3801C121.104 71.2821 121.299 71.1188 121.473 70.9337C121.039 70.7159 120.496 70.215 120.485 69.0827C120.474 67.1881 121.223 65.0867 121.321 63.1595C121.343 62.6369 121.321 62.1469 121.267 61.6896C119.572 60.7967 120.105 61.1887 117.595 59.5446C116.574 58.63 115.662 58.042 115.662 58.042C115.662 58.042 115.162 58.7062 114.749 58.63C114.336 58.5647 114.087 58.0638 114.087 58.0638C114.087 58.0638 113.587 58.434 113.272 58.336C112.794 58.1945 112.522 56.9641 112.522 56.9641C112.522 56.9641 112.153 57.2363 111.881 57.1056C111.414 56.877 111.067 55.5051 111.067 55.5051L110.632 55.2547C110.632 55.2547 110.382 56.0277 110.285 57.1492C110.187 58.2707 110.143 59.3813 109.85 59.4575C109.296 59.5882 108.807 58.4122 108.807 58.4122C108.807 58.4122 108.623 59.3922 108.308 59.4357C107.993 59.4793 107.308 58.4558 106.993 57.3125C106.678 56.1693 106.7 54.8736 106.7 54.8736C106.7 54.8736 106.309 54.6449 106.059 54.1658C105.809 53.6868 105.874 53.1859 105.874 53.1859C105.874 53.1859 105.06 52.4564 104.94 51.8358C104.832 51.2151 105.212 50.1045 105.212 50.1045C105.212 50.1045 104.647 49.6037 104.484 49.1464C104.321 48.6891 104.375 47.8724 104.582 47.622C104.788 47.3716 105.624 47.1865 106.102 46.9361C106.58 46.6856 107.406 45.8255 107.797 45.5533C108.188 45.281 109.85 44.6278 110.611 44.4971C111.403 44.3664 113.011 44.2793 113.011 44.2793C113.011 44.2793 114.89 42.9183 116.031 42.6679C116.498 42.559 117.193 42.6134 117.617 42.6679C117.758 42.559 117.899 42.461 118.062 42.3848C118.91 41.971 120.517 41.8295 121.365 41.9493C122.201 42.069 124.276 42.6026 125.818 42.6461C127.361 42.6897 130.37 42.3195 132.51 42.461C133.944 42.559 135.28 43.0707 135.953 43.3647C137.485 43.0816 139.875 43.2341 141.233 42.9728C142.601 42.7005 143.351 42.1126 144.1 42.1779C144.85 42.2432 145.925 43.5498 145.762 45.2375C145.697 45.8908 145.458 46.555 145.143 47.1538C145.936 47.426 149.325 48.5911 150.977 49.4948C152.856 50.5183 155.17 52.783 155.68 53.0226C156.191 53.2621 158.341 53.7739 159.667 54.4598C161.068 55.1784 162.632 57.1601 162.632 57.1601C162.632 57.1601 160.59 55.5486 159.33 54.928C158.113 54.3292 155.778 53.9698 155.376 53.7956C155.256 53.7412 154.909 53.4581 154.463 53.0552C154.225 53.0226 153.877 52.9572 153.605 52.8266C153.127 52.5979 152.845 52.2604 152.845 52.2604C152.845 52.2604 152.476 52.4346 152.139 52.2931C151.802 52.1515 151.357 50.9103 150.814 50.6816C150.281 50.4529 148.978 50.4529 148.978 50.4529C148.978 50.4529 150.097 51.3567 150.238 51.6398C150.379 51.9229 150.629 53.4145 150.857 53.7847C151.085 54.1549 151.476 54.3836 151.585 54.6885C151.693 55.0042 151.531 56.2999 151.389 56.6592C151.248 57.0294 150.77 57.6718 150.542 57.4758C150.314 57.2799 150.738 55.7011 150.596 55.4398C150.455 55.1893 150.205 55.1567 150.01 54.8518C149.814 54.536 149.51 52.0317 149.51 52.0317C149.51 52.0317 148.782 52.1188 148.5 51.9773C148.217 51.8358 147.294 50.7034 147.12 50.3985C146.946 50.0828 147.012 49.4403 146.816 49.1028C146.697 48.8959 146.284 48.5257 145.991 48.2753C145.415 48.1011 144.937 47.9704 144.676 47.8942C144.187 48.5802 143.612 49.1246 143.144 49.3968C142.243 49.9085 141.32 49.8105 141.32 49.8105C141.32 49.8105 140.776 50.8776 139.799 51.0627C138.821 51.2478 137.952 50.5836 138.202 50.2134C138.397 49.9303 139.017 50.6489 139.907 50.3985C140.7 50.1699 141.005 49.277 141.005 49.277C141.005 49.277 142.254 49.1681 142.938 48.7326C143.144 48.602 143.416 48.3624 143.72 48.0358C142.862 48.4495 141.645 48.504 141.298 48.4169C140.907 48.3189 140.233 47.8289 139.81 47.9595C139.81 47.9595 139.158 48.3298 139.038 48.6782C138.93 49.0157 139.234 49.473 139.006 49.5492C138.778 49.6146 138.419 49.0701 138.506 48.6782C138.593 48.2862 139.104 47.8833 139.104 47.8833C139.104 47.8833 138.789 47.4042 138.148 47.1756C137.431 46.9143 136.518 47.0776 136.518 47.0776C136.518 47.0776 136.681 46.163 137.615 45.6186C138.55 45.0742 140.418 44.8346 141.602 44.3338C142.786 43.8329 143.536 43.1143 143.536 43.1143C143.536 43.1143 143.025 43.9527 141.863 44.5515C140.711 45.1395 138.615 45.5097 137.974 45.8799C137.42 46.1957 137.235 46.6312 137.235 46.6312C137.235 46.6312 137.898 46.5767 138.582 46.849C138.832 46.9469 139.071 47.132 139.266 47.3063C139.288 46.8925 139.375 46.2828 139.647 46.0868C140.092 45.7601 142.178 45.6839 142.688 45.3355C143.123 45.0306 143.481 44.0942 143.481 44.0942C143.481 44.0942 143.427 45.3137 142.96 45.7166C142.417 46.1848 140.451 46.5332 140.07 46.8163C139.788 47.0341 139.668 47.5349 139.636 47.6873L139.658 47.72C139.744 47.6873 139.983 47.6002 140.244 47.622C140.57 47.6438 141.091 47.8398 141.504 47.8724C141.906 47.916 143.286 47.426 143.883 47.0232C144.296 46.7401 144.883 45.9561 145.219 45.4879C145.252 45.3464 145.274 45.2048 145.284 45.0633C145.35 43.724 144.557 42.8312 144.035 42.6897C143.72 42.6026 143.286 42.7659 142.667 42.9619C142.221 43.2776 141.884 43.7023 141.678 43.8547C141.406 44.0725 140.125 44.6278 139.679 44.6822C139.234 44.7366 138.691 44.3338 138.343 44.3338C137.996 44.3338 136.344 44.4644 135.888 44.4644C135.584 44.4644 135.019 44.3229 134.682 44.2358C134.063 44.4318 133.585 44.6386 133.585 44.6386C133.585 44.6386 134.041 44.0833 134.9 43.6805C134.4 43.4845 133.487 43.147 132.542 43.0054C131.054 42.7877 127.741 43.0054 125.742 42.9401C123.744 42.8639 122.201 42.3957 121.31 42.2977C120.496 42.2106 118.899 42.4828 118.28 42.8639C117.66 43.2558 117.345 44.0942 117.161 44.1596C116.976 44.2249 116.748 43.8438 116.802 43.6805C116.835 43.5607 116.954 43.3647 117.128 43.147C116.835 43.1143 116.433 43.0925 116.074 43.1361C115.412 43.2014 113.348 44.4971 113.348 44.4971C113.348 44.4971 113.533 44.704 113.489 44.8346C113.446 44.9762 111.599 44.7475 110.741 44.8564C109.828 44.9653 108.492 45.4662 108.123 45.6948C107.754 45.9235 106.646 47.0885 106.646 47.0885C106.646 47.0885 107.417 47.2083 107.667 47.8616C107.667 47.8616 107.026 47.4914 106.504 47.4478C105.961 47.4042 105.114 47.6547 104.984 47.8616C104.842 48.0684 104.777 48.6564 104.94 49.0484C105.07 49.375 105.472 49.7997 105.603 49.9412C105.744 49.6254 106.037 49.4403 106.037 49.4403C106.037 49.4403 105.331 48.8742 105.559 48.3189C105.69 48.014 106.374 48.5475 107.08 48.4604C107.743 48.3733 108.862 47.6656 109.264 47.2736C109.633 46.9252 109.861 46.4025 110.035 46.4025C110.219 46.4025 110.448 46.9252 110.306 47.1974C110.165 47.4696 109.665 47.7418 108.71 48.1338C107.754 48.5149 107.091 48.7979 106.819 49.0157C106.548 49.2444 106.07 49.8541 105.972 50.2896C105.885 50.7252 105.994 51.52 105.994 51.52L105.929 51.4547ZM121.712 70.1824C121.897 70.1062 122.006 70.0517 122.027 70.0408L121.712 70.1824ZM121.93 73.1222C121.723 73.4488 120.637 73.4706 119.485 73.0242C118.312 72.5669 117.802 71.6087 117.921 71.4454C118.117 71.2168 118.888 71.8701 119.768 71.9572C120.659 72.0443 121.299 71.6196 121.56 71.7176C121.995 71.8918 122.136 72.7847 121.919 73.1222H121.93ZM115.955 56.5286C115.564 56.3652 115.52 55.5486 115.52 55.5486C115.52 55.5486 114.793 56.3326 114.358 56.1584C113.837 55.9515 113.902 54.8082 113.902 54.8082C113.902 54.8082 113.381 55.3526 113.055 55.222C112.544 55.0042 112.577 53.6432 112.577 53.6432C112.577 53.6432 113.576 53.8501 114.847 54.536C116.118 55.222 116.933 56.0168 116.933 56.0168C116.933 56.0168 116.313 56.681 115.933 56.5177L115.955 56.5286ZM114.76 58.2816C114.423 58.2271 114.195 57.4323 114.195 57.4323C114.195 57.4323 113.706 58.0638 113.348 57.9658C112.892 57.846 112.642 56.3761 112.642 56.3761C112.642 56.3761 112.305 56.8443 112.034 56.779C111.61 56.681 111.338 55.4833 111.338 55.4833C111.338 55.4833 112.283 55.7446 113.478 56.387C114.673 57.0294 115.444 57.7154 115.444 57.7154C115.444 57.7154 115.151 58.336 114.76 58.2707V58.2816ZM110.1 56.3326C109.937 57.6609 109.991 58.9022 109.698 58.924C109.405 58.9458 108.807 57.9114 108.492 56.3979C108.177 54.8953 108.286 53.1423 108.481 52.9572C108.981 52.4673 110.404 52.9137 110.524 53.5234C110.6 53.9481 110.274 55.0151 110.111 56.3435L110.1 56.3326ZM108.253 59.0437C108.003 59.0655 107.471 58.0856 107.2 56.9423C106.939 55.8208 107.037 54.7647 107.037 54.7647C107.037 54.7647 107.308 54.732 107.471 54.6122C107.721 54.4271 107.895 54.1549 107.895 54.1549C107.873 55.9079 108.623 57.8787 108.623 57.8787C108.623 57.8787 108.492 59.022 108.242 59.0437H108.253ZM106.711 54.5034C106.711 54.5034 106.352 54.3183 106.168 53.8827C105.994 53.4581 106.081 53.1097 106.081 53.1097C106.081 53.1097 106.255 52.9681 106.396 53.0879C106.396 53.0879 106.396 53.3492 106.494 53.665C106.58 53.9807 106.732 54.1549 106.765 54.2856C106.787 54.3836 106.711 54.4925 106.711 54.4925V54.5034ZM106.678 53.0443C106.776 52.8701 107.319 52.7504 107.536 52.8375C107.764 52.9246 107.938 53.2512 107.938 53.4472C107.938 53.6432 107.504 54.3618 107.265 54.3618C106.95 54.3618 106.515 53.371 106.689 53.0552L106.678 53.0443ZM108.21 48.9613C108.21 49.081 108.112 49.179 107.993 49.179C107.873 49.179 107.775 49.081 107.775 48.9613C107.775 48.8415 107.873 48.7435 107.993 48.7435C108.112 48.7435 108.21 48.8415 108.21 48.9613ZM113.142 48.6782C113.142 48.7979 113.044 48.8959 112.924 48.8959C112.805 48.8959 112.707 48.7979 112.707 48.6782C112.707 48.5584 112.805 48.4604 112.924 48.4604C113.044 48.4604 113.142 48.5584 113.142 48.6782ZM112.805 49.9303C112.805 50.0501 112.707 50.1481 112.588 50.1481C112.468 50.1481 112.37 50.0501 112.37 49.9303C112.37 49.8106 112.468 49.7126 112.588 49.7126C112.707 49.7126 112.805 49.8106 112.805 49.9303ZM108.568 50.8776C108.568 50.9974 108.471 51.0954 108.351 51.0954C108.232 51.0954 108.134 50.9974 108.134 50.8776C108.134 50.7578 108.232 50.6598 108.351 50.6598C108.471 50.6598 108.568 50.7578 108.568 50.8776ZM111.664 50.4094C111.664 50.5292 111.566 50.6272 111.447 50.6272C111.327 50.6272 111.23 50.5292 111.23 50.4094C111.23 50.2896 111.327 50.1916 111.447 50.1916C111.566 50.1916 111.664 50.2896 111.664 50.4094ZM107.602 50.0501C107.602 50.1699 107.504 50.2679 107.384 50.2679C107.265 50.2679 107.167 50.1699 107.167 50.0501C107.167 49.9303 107.265 49.8323 107.384 49.8323C107.504 49.8323 107.602 49.9303 107.602 50.0501ZM109.513 48.6999C109.513 48.8306 109.405 48.9504 109.264 48.9504C109.122 48.9504 109.014 48.8415 109.014 48.6999C109.014 48.5693 109.122 48.4495 109.264 48.4495C109.394 48.4495 109.513 48.5584 109.513 48.6999ZM109.014 49.7779C109.014 49.9085 108.905 50.0283 108.764 50.0283C108.633 50.0283 108.514 49.9194 108.514 49.7779C108.514 49.6472 108.623 49.5275 108.764 49.5275C108.905 49.5275 109.014 49.6363 109.014 49.7779ZM111.979 49.2552C111.979 49.3968 111.871 49.5057 111.729 49.5057C111.599 49.5057 111.48 49.3968 111.48 49.2552C111.48 49.1246 111.588 49.0048 111.729 49.0048C111.86 49.0048 111.979 49.1137 111.979 49.2552ZM110.143 50.7905C110.143 50.9211 110.035 51.0409 109.894 51.0409C109.752 51.0409 109.644 50.932 109.644 50.7905C109.644 50.6598 109.752 50.5401 109.894 50.5401C110.024 50.5401 110.143 50.6489 110.143 50.7905ZM112.088 48.1664C112.088 48.2971 111.979 48.4169 111.838 48.4169C111.708 48.4169 111.588 48.308 111.588 48.1664C111.588 48.0249 111.697 47.916 111.838 47.916C111.968 47.916 112.088 48.0249 112.088 48.1664ZM110.752 48.1447C110.752 48.2862 110.632 48.406 110.491 48.406C110.35 48.406 110.23 48.2862 110.23 48.1447C110.23 48.0031 110.35 47.8833 110.491 47.8833C110.632 47.8833 110.752 48.0031 110.752 48.1447ZM110.6 49.5057C110.6 49.6472 110.48 49.767 110.339 49.767C110.198 49.767 110.078 49.6472 110.078 49.5057C110.078 49.3641 110.198 49.2444 110.339 49.2444C110.48 49.2444 110.6 49.3641 110.6 49.5057ZM109.894 51.7922C109.85 51.9555 112.229 52.7286 112.74 52.8375C113.239 52.9572 115.564 53.0552 116.14 53.3601C116.715 53.6759 118.149 55.4724 118.844 56.1584C119.496 56.8008 120.735 57.7481 120.876 57.6936C121.017 57.6392 119.344 55.6793 119.192 55.4071C119.018 55.0913 118.964 54.3727 118.812 54.1985C118.66 54.0243 117.519 53.7085 117.421 53.5017C117.324 53.2839 117.519 52.9572 117.465 52.8266C117.345 52.5544 115.857 52.1406 115.683 51.716C115.597 51.4982 115.857 50.8014 115.781 50.6272C115.705 50.453 115.39 50.3114 115.336 50.1045C115.281 49.8868 115.314 48.885 115.184 48.5148C115.053 48.1447 114.489 47.622 114.489 47.622C114.489 47.622 114.782 48.2644 114.814 48.6455C114.858 49.0375 114.641 50.0392 114.641 50.0392C114.641 50.0392 114.347 48.6237 114.076 48.6455C113.804 48.6673 113.858 49.8868 113.652 50.2787C113.435 50.6707 112.761 50.7252 112.566 50.8776C112.37 51.03 112.023 51.52 111.718 51.5962C111.403 51.6724 109.98 51.52 109.904 51.7922H109.894ZM115.477 46.9687C115.271 47.1974 116.042 47.8616 116.303 48.5257C116.574 49.1899 116.574 50.736 116.683 50.9865C116.802 51.2369 117.53 51.4329 117.878 51.6833C118.225 51.9338 118.899 53.2403 119.149 53.6214C119.398 54.0134 119.942 54.5687 119.942 54.5687C119.942 54.5687 119.616 53.8283 119.377 53.273C119.149 52.7068 118.823 51.2369 118.682 51.0845C118.551 50.932 117.443 50.5401 117.226 50.2243C117.009 49.9085 116.683 48.8633 116.498 48.2644C116.303 47.6656 115.727 46.6747 115.455 46.9687H115.477ZM115.857 46.4461C115.738 46.653 116.227 46.9905 116.357 46.7401C116.487 46.4896 116.009 46.1739 115.857 46.4461ZM117.356 46.849C117.4 46.555 118.269 46.6203 118.269 46.6203C118.269 46.6203 118.128 46.3045 118.323 46.2174C118.725 46.0214 119.963 46.4896 120.202 46.3699C120.43 46.2501 120.43 45.8255 120.745 45.7492C121.06 45.673 121.517 45.967 121.517 45.967C121.517 45.967 122.103 44.9435 122.375 44.7802C122.646 44.6278 123.19 44.4753 123.57 44.4862C123.907 44.508 124.265 44.5624 124.58 44.5624C124.884 44.5624 125.666 44.2358 126.068 44.214C126.47 44.1922 127.057 44.3882 127.263 44.3556C127.48 44.312 128.328 43.4409 128.556 43.6152C128.784 43.7894 128.404 44.5624 128.404 44.5624C128.404 44.5624 128.893 44.606 128.903 44.7911C128.925 44.9871 128.534 45.3573 128.241 45.4444C127.947 45.5424 126.959 45.3464 126.557 45.1504C126.155 44.9544 125.221 44.6495 124.645 44.704C124.069 44.7584 123.016 45.4988 122.744 45.6295C122.473 45.7601 122.179 45.7057 122.179 45.7057C122.179 45.7057 121.506 46.6312 121.289 46.6965C121.071 46.751 120.821 46.6421 120.821 46.6421C120.821 46.6421 120.724 47.0123 120.43 47.0667C120.137 47.1212 118.551 46.6965 118.551 46.6965C118.551 46.6965 118.844 46.9469 118.725 47.1647C118.606 47.3825 117.291 47.1103 117.335 46.8381L117.356 46.849ZM116.542 46.9252C116.542 46.9252 117.041 47.6002 117.28 48.1338C117.508 48.6564 117.65 49.3315 117.78 49.6037C117.91 49.8759 118.79 50.7143 119.073 50.7252C119.366 50.7469 120.724 49.8759 121.071 49.8976C121.419 49.9194 122.136 50.5618 122.168 50.8123C122.212 51.0627 122.016 51.7813 122.266 51.9337C122.516 52.0862 123.157 51.5853 123.407 51.6398C123.657 51.6942 124.156 51.9664 124.319 52.2822C124.471 52.5979 124.841 53.5234 124.895 53.8718C124.949 54.2203 125.015 55.2655 124.917 55.8099C124.819 56.3544 124.276 57.4541 124.298 57.8025C124.319 58.1509 124.873 59.893 125.091 60.2632C125.308 60.6334 125.96 61.0798 126.351 61.646C126.742 62.2122 126.948 62.9091 126.948 62.9091C126.948 62.9091 126.829 61.842 126.568 61.3738C126.296 60.9056 125.471 59.8821 125.406 59.5664C125.351 59.2506 125.601 58.4993 125.482 58.2271C125.362 57.9549 125.08 57.5085 125.08 57.2036C125.08 56.8988 126.014 56.0168 126.09 55.6575C126.166 55.2873 125.764 54.242 125.894 53.9481C126.036 53.6541 127.002 53.6214 127.111 53.371C127.231 53.1206 125.927 51.7051 125.949 51.3349C125.97 50.9647 126.394 50.6163 126.394 50.4094C126.394 50.1916 126.09 49.5601 126.188 49.2444C126.285 48.9286 126.655 48.5693 127.024 48.4277C127.393 48.2971 127.524 48.2535 127.795 48.0031C128.067 47.7527 128.219 47.6111 128.556 47.5785C128.882 47.5349 129.294 47.622 129.294 47.4805C129.294 47.3498 127.763 46.6203 127.383 46.6203C126.992 46.6203 126.709 46.9252 126.492 46.9252C126.275 46.9252 126.068 46.3045 125.873 46.261C125.677 46.2174 125.525 46.359 125.525 46.359C125.525 46.359 125.818 45.4444 125.569 45.3682C125.319 45.2919 124.526 46.3154 124.537 46.6421C124.558 46.9687 125.33 47.9813 125.308 48.3733C125.286 48.7653 124.721 49.3206 124.721 49.6581C124.721 49.9848 125.221 50.6272 125.221 50.9211C125.221 51.2151 124.732 51.7487 124.526 51.7922C124.308 51.8358 123.787 51.52 123.581 51.2042C123.363 50.8885 122.983 50.061 122.636 49.7888C122.288 49.5166 121.441 49.1137 120.778 49.0157C120.115 48.9177 118.768 48.5693 118.399 48.3515C118.03 48.1338 117.574 47.4151 117.259 47.2083C116.954 46.9905 116.563 46.9143 116.563 46.9143L116.542 46.9252ZM123.374 46.8381C123.2 46.8163 122.983 47.5131 122.983 47.5131C122.983 47.5131 122.614 47.7091 122.592 47.9813C122.57 48.2535 122.864 48.7762 122.864 48.7762C122.864 48.7762 122.744 49.2988 122.961 49.4512C123.179 49.6037 123.678 48.9068 123.7 48.504C123.722 48.1011 123.624 46.8707 123.374 46.8381ZM129.175 44.3229C129.284 44.5298 129.838 44.3011 129.838 44.3011C129.838 44.3011 130.24 44.6169 130.457 44.4971C130.674 44.3773 130.728 43.5716 130.478 43.5063C130.229 43.4518 129.686 43.6043 129.512 43.7567C129.338 43.9091 129.121 44.2031 129.186 44.3229H129.175ZM120.572 54.2638C120.745 54.3618 121.071 53.2186 121.039 52.9028C120.995 52.587 120.745 51.9664 120.517 51.814C120.289 51.6615 119.822 51.5635 119.703 51.7378C119.583 51.912 120.072 52.2822 120.246 52.6741C120.42 53.0661 120.376 54.1441 120.572 54.2638ZM122.006 54.3618C122.082 54.6667 122.722 54.3292 122.722 54.3292C122.722 54.3292 122.875 54.6994 123.092 54.8518C123.309 55.0042 124.156 54.9498 124.254 54.732C124.352 54.5143 123.581 53.6867 123.233 53.6432C122.885 53.5996 121.951 54.1223 122.016 54.3618H122.006ZM135.91 47.4043C135.649 47.4043 135.595 47.9378 135.171 48.504C134.748 49.0701 134.183 49.2117 134.096 49.4621C134.009 49.7126 135.16 51.128 135.334 52.7939C135.497 54.4598 134.769 55.7337 134.791 56.0386C134.824 56.3544 135.095 56.485 135.095 56.485C135.095 56.485 134.9 56.877 134.987 57.1928C135.073 57.5085 136.866 60.0237 136.931 60.579C136.985 61.1452 136.931 62.6369 136.562 63.7148C136.192 64.7818 135.66 65.0649 135.519 65.4025C135.378 65.74 135.323 66.7853 135.008 67.493C134.693 68.2007 134.28 68.4185 134.28 68.4185C134.28 68.4185 134.052 67.6019 133.748 67.2861C133.444 66.9704 132.705 66.7526 132.597 66.9486C132.488 67.1446 133.129 67.4603 133.466 68.0483C133.803 68.6472 133.607 69.4311 133.911 69.6053C134.215 69.7795 135.128 68.9302 135.465 68.3967C135.801 67.8632 136.203 66.6437 136.203 66.6437C136.203 66.6437 136.79 68.081 136.822 68.7669C136.855 69.442 136.594 69.6706 136.399 70.1497C136.203 70.6288 136.084 71.9245 135.714 72.8282C135.345 73.7319 134.954 74.2437 134.672 74.2437C134.389 74.2437 134.107 73.6231 133.574 73.2855C133.042 72.948 132.282 72.9698 132.282 72.9698C132.282 72.9698 133.096 73.5033 133.346 73.8408C133.596 74.1784 133.596 74.6357 133.77 74.9405C133.933 75.2563 134.411 75.9314 134.758 75.9858C135.095 76.0402 136.138 74.799 136.649 73.536C137.159 72.262 137.67 69.3331 137.355 68.1463C137.05 66.9595 136.257 65.8271 136.257 65.6093C136.257 65.3807 137.192 64.6185 137.528 63.6386C137.865 62.6477 138.463 59.8604 138.289 59.3813C138.115 58.9022 136.203 57.2036 136.095 56.6157C135.986 56.0277 136.627 55.0369 136.431 53.3166C136.236 51.5962 134.748 49.6146 134.748 49.6146C134.748 49.6146 135.562 49.3641 135.877 48.9068C136.203 48.4277 136.16 47.4151 135.91 47.4151V47.4043ZM155.137 54.3727C155.137 54.3727 154.04 55.7228 153.812 56.289C153.584 56.8552 153.833 58.826 153.442 59.8168C153.051 60.8076 151.661 61.9073 151.042 62.528C150.423 63.1486 150.194 63.8019 149.63 64.3572C149.065 64.9234 148.25 65.3698 147.989 65.8815C147.739 66.3933 147.392 68.4185 147.229 69.1262C147.055 69.834 146.523 70.9881 146.523 70.9881C146.523 70.9881 147.457 69.8884 147.674 69.1589C147.902 68.4294 148.293 66.8179 148.63 66.2844C148.967 65.7509 152.465 63.2357 153.084 62.5606C153.703 61.8856 154.442 60.187 154.529 59.316C154.616 58.4449 154.225 56.7463 154.225 56.7463C154.225 56.7463 154.616 56.7028 154.789 56.485C154.963 56.2564 155.126 54.3836 155.126 54.3836L155.137 54.3727ZM149.347 68.2552C149.347 68.2552 149.206 71.4345 148.674 72.4254C148.141 73.4162 145.371 76.0729 144.774 76.9113C144.176 77.7606 143.557 79.568 142.992 80.2975C142.428 81.027 141.157 81.7348 141.157 81.7348C141.157 81.7348 142.308 80.352 142.677 79.6225C143.047 78.893 143.633 76.7589 144.111 76.0185C144.589 75.289 147.099 73.0024 147.913 71.7612C148.728 70.5199 149.325 68.2552 149.325 68.2552H149.347ZM146.74 59.1309C146.74 59.1309 144.969 60.0563 144.459 60.481C143.948 60.9056 142.764 62.2884 142.623 62.7348C142.482 63.1813 142.873 63.5515 142.96 64.2919C143.047 65.0214 142.558 66.2953 142.59 66.6873C142.623 67.0792 142.927 67.3406 142.927 67.3406C142.927 67.3406 142.895 68.5818 142.275 70.0735C141.656 71.5652 141.037 72.36 140.635 73.4271C140.244 74.505 140.016 76.2253 140.016 76.2253C140.016 76.2253 139.929 74.309 140.049 73.4271C140.157 72.556 141.265 69.5618 141.439 68.658C141.613 67.7543 141.721 65.3589 141.667 64.8472C141.613 64.3354 141.33 64.0305 141.33 64.0305C141.33 64.0305 143.047 60.7859 143.199 59.8277C143.34 58.8695 142.84 56.4415 142.982 55.6248C143.123 54.8082 143.46 53.959 143.383 53.3928C143.297 52.8266 142.71 51.1607 142.514 50.8232C142.319 50.4856 141.721 50.061 141.559 50.1481C141.385 50.2352 141.95 50.7469 142.036 51.1389C142.123 51.5309 141.95 52.3475 142.004 52.8592C142.058 53.371 142.482 54.4707 142.449 54.9171C142.417 55.3635 142.134 55.6249 142.167 56.1039C142.199 56.583 142.808 58.5864 142.699 59.4357C142.59 60.285 140.613 63.889 140.44 64.8798C140.266 65.8707 140.744 67.9285 140.516 69.6271C140.288 71.3256 139.973 72.1096 139.973 72.1096C139.973 72.1096 139.527 72.0225 139.353 72.3056C139.18 72.5887 139.125 73.6884 139.18 74.6792C139.234 75.6701 139.408 76.1165 139.408 76.5955C139.408 77.0746 138.875 78.1199 138.756 79.2741C138.636 80.4282 138.691 82.6385 138.919 82.7147C139.147 82.8018 139.06 80.3955 139.288 79.2741C139.516 78.1417 140.613 76.9004 140.787 76.5084C140.961 76.1165 140.961 73.9715 141.189 73.3509C141.417 72.7302 143.047 70.9228 143.47 69.6815C143.861 68.5165 143.503 67.591 143.449 67.1446C143.394 66.6982 143.959 65.25 143.992 64.2374C144.024 63.2248 143.427 62.5171 143.427 62.5171C143.427 62.5171 144.274 61.5263 145.035 60.7967C145.795 60.0672 146.751 59.1309 146.751 59.1309H146.74ZM139.147 51.3893C139.256 51.2478 140.331 51.7051 140.7 52.0426C141.07 52.3802 141.711 53.7412 141.765 54.5034C141.819 55.2655 141.341 56.2781 141.167 57.0185C140.994 57.748 141.081 58.3687 140.798 58.3687C140.516 58.3687 140.744 57.4432 140.939 56.8117C141.135 56.191 141.124 55.3418 141.081 54.7756C141.026 54.1549 140.374 52.9681 140.016 52.5217C139.647 52.0753 139.038 51.5309 139.147 51.3893ZM151.085 69.3549C151.085 69.3549 152.019 66.8397 152.899 66.0231C153.779 65.2065 156.397 63.6277 156.984 62.8111C157.57 61.9944 158.211 59.8386 158.906 59.4793C159.602 59.1309 161.122 59.0764 161.122 59.0764C161.122 59.0764 159.721 59.893 159.2 60.2959C158.678 60.7096 157.853 62.7457 157.331 63.4535C156.81 64.1503 153.888 65.9578 153.127 66.7744C152.367 67.591 151.085 69.344 151.085 69.344V69.3549ZM120.333 70.7812C120.213 70.6288 120.115 70.4655 120.039 70.2913L119.963 70.1062C119.844 69.7577 119.779 69.3875 119.779 68.9956C119.768 66.9704 120.517 65.0323 120.626 63.0288C120.648 62.6913 120.626 62.3538 120.604 62.0271C120.257 61.8529 119.92 61.6787 119.583 61.4936C118.768 61.0581 117.965 60.5028 117.204 60.0019L117.161 59.9692L117.128 59.9366C116.694 59.5446 116.216 59.1526 115.727 58.8042C115.412 59.0655 115.021 59.2506 114.619 59.1853C114.347 59.1417 114.097 59.0002 113.891 58.8042C113.619 58.9022 113.337 58.9458 113.065 58.8695C112.577 58.728 112.262 58.2162 112.055 57.7045C111.892 57.7045 111.718 57.6718 111.566 57.5956C111.327 57.4759 111.121 57.2363 110.947 56.9532C110.947 56.9968 110.947 57.0512 110.936 57.0948C110.893 57.6174 110.86 58.1618 110.795 58.6735C110.719 59.1853 110.589 59.8495 109.991 59.991C109.579 60.089 109.231 59.9366 108.938 59.6753C108.796 59.8386 108.612 59.9475 108.394 59.9801C108.069 60.0237 107.775 59.8713 107.547 59.6535C107.363 59.4793 107.21 59.2724 107.08 59.0655C106.754 58.5538 106.504 57.9549 106.341 57.3779C106.146 56.6919 106.037 55.8426 106.026 55.0913C105.798 54.8845 105.592 54.6123 105.462 54.3618C105.309 54.0678 105.212 53.6976 105.201 53.3492C104.799 52.9355 104.386 52.3693 104.288 51.8466C104.201 51.3676 104.31 50.7252 104.462 50.1807C104.212 49.8977 103.973 49.571 103.865 49.2552C103.658 48.6673 103.669 47.5785 104.071 47.0885C104.451 46.6312 105.277 46.5114 105.798 46.2392C106.026 46.1194 106.32 45.8472 106.515 45.6839C106.798 45.4335 107.113 45.1286 107.428 44.9C108.014 44.4862 109.785 43.8547 110.513 43.724C111.241 43.6043 112.044 43.5498 112.794 43.5063C113.641 42.9074 114.956 42.1126 115.89 41.8948C116.324 41.7968 116.911 41.8077 117.443 41.8513C117.552 41.775 117.66 41.7097 117.769 41.6662C118.703 41.2089 120.42 41.0238 121.452 41.1653C121.875 41.2197 122.299 41.3177 122.712 41.4049C123.255 41.5137 123.798 41.6226 124.352 41.7097C124.841 41.7859 125.34 41.8513 125.84 41.8622C126.416 41.8839 127.013 41.8404 127.578 41.8077C128.328 41.7642 129.066 41.7206 129.816 41.6771C130.717 41.6335 131.652 41.6117 132.553 41.6771C133.531 41.7424 134.519 41.9928 135.443 42.3303C135.638 42.4066 135.834 42.4828 136.029 42.559C136.79 42.4392 137.594 42.4175 138.354 42.3848C138.865 42.3739 139.364 42.3521 139.875 42.3303C140.277 42.3086 140.69 42.2759 141.081 42.1997C141.635 42.0908 142.113 41.9057 142.634 41.7097C142.992 41.5682 143.351 41.4375 143.731 41.4049H144.231C144.904 41.5137 145.469 42.0799 145.817 42.6352C145.882 42.7441 145.947 42.853 146.001 42.9728L146.371 44.1705C146.425 44.508 146.425 44.8564 146.392 45.1939C146.338 45.6948 146.208 46.1848 146.023 46.6421C146.946 46.9578 147.87 47.3063 148.771 47.6656C149.608 48.0031 150.477 48.3624 151.27 48.7979C151.889 49.1355 152.486 49.5601 153.051 49.9848C153.692 50.4747 154.311 50.9865 154.931 51.4982C155.159 51.6833 155.376 51.8793 155.604 52.0535C155.691 52.1297 155.843 52.2495 155.941 52.304C155.941 52.304 155.963 52.3039 155.963 52.3148L156.006 52.2604V52.3257C156.256 52.4346 156.614 52.5326 156.875 52.6088C157.418 52.7721 157.961 52.9464 158.494 53.1423C158.982 53.3166 159.482 53.5125 159.938 53.7521C161.057 54.3292 162.339 55.6466 163.121 56.6375L163.49 57.1056C163.882 57.5085 164.262 58.14 164.262 58.14L161.448 59.6644C161.09 59.8712 160.731 60.089 160.373 60.3177C160.112 60.481 159.841 60.6552 159.602 60.8403C159.384 61.0145 158.906 61.9836 158.765 62.2558C158.504 62.7675 158.2 63.399 157.864 63.8672C157.625 64.183 157.223 64.4987 156.908 64.7383C156.473 65.0758 156.017 65.4025 155.561 65.7291C155.159 66.0122 154.757 66.3062 154.366 66.6002C154.116 66.7853 153.823 67.0139 153.605 67.2426C153.323 67.5474 153.051 67.885 152.791 68.2116C152.389 68.7125 151.998 69.2351 151.617 69.7469C149.706 72.36 149.184 73.0678 147.261 75.1365C146.86 75.5612 146.458 75.9858 146.067 76.4213C145.828 76.6826 145.534 76.9984 145.328 77.2815C145.024 77.717 144.763 78.3159 144.546 78.795C144.263 79.4047 143.937 80.1669 143.536 80.6895C140.755 84.3044 139.766 81.1577 136.583 86.5147L136.16 86.0574C135.345 85.0557 134.552 83.956 133.868 82.878C133.411 82.1594 132.933 81.3646 132.629 80.5697C132.325 79.7967 132.119 78.9474 131.934 78.1308C131.749 77.3251 131.597 76.4975 131.402 75.6918C131.337 75.4305 131.141 74.6248 130.967 74.4397C130.848 74.2981 130.652 74.1675 130.446 74.0477C130.446 74.2437 130.424 74.4288 130.402 74.6357C130.294 75.3107 129.914 76.0947 129.392 76.552L129.175 76.748L128.882 76.7153C128.762 76.7044 128.501 76.6827 128.273 76.6827L128.415 77.0311L127.937 77.3251C127.426 77.6408 126.742 77.9348 126.155 78.0546C125.21 78.2505 123.222 78.3703 122.364 77.9239C121.864 77.6626 121.419 77.0528 121.126 76.4867C120.865 76.4322 120.615 76.3342 120.409 76.1491C120.115 75.8987 119.909 75.4523 119.757 74.9841C119.431 74.9841 119.094 74.897 118.801 74.8099C118.377 74.6792 117.878 74.4614 117.508 74.211C116.976 73.8517 116.52 73.34 116.237 72.7629C115.966 72.2076 115.857 71.2059 116.433 70.803C116.628 70.6724 116.867 70.6179 117.117 70.6397C117.389 70.3348 117.823 70.2586 118.236 70.313C118.736 70.3784 119.094 70.5961 119.551 70.7268C119.833 70.8139 120.094 70.8248 120.365 70.7595L120.333 70.7812Z" fill="white"/>
<path fill-rule="evenodd" clip-rule="evenodd" d="M182.511 106.331C182.413 106.255 182.326 106.19 182.229 106.103C182.12 106.005 182.022 105.874 181.914 105.787C181.686 105.602 181.447 105.428 181.197 105.264C179.752 104.317 178.492 104.088 176.776 104.088C175.287 104.088 173.408 104.829 172.3 105.809C172.105 105.983 171.833 106.179 171.67 106.375C171.475 106.603 171.279 106.843 171.105 107.093C169.02 110.164 168.172 113.104 168.161 116.817C168.161 118.439 168.39 120.181 168.846 121.738C168.954 122.086 169.063 122.446 169.193 122.783C169.324 123.11 169.443 123.448 169.584 123.763C170.073 124.819 170.855 126.159 171.681 126.986C172.659 127.966 173.473 128.598 174.799 129.033C175.45 129.251 176.309 129.316 176.993 129.316C178.633 129.316 179.709 129.12 181.066 128.206C182.164 127.476 182.88 126.67 183.608 125.582C184.325 124.504 184.966 123.121 185.314 121.869C185.759 120.29 186.052 118.733 186.052 117.089C186.052 113.866 185.444 110.632 183.652 107.91C183.467 107.638 183.282 107.322 183.087 107.061C182.902 106.81 182.696 106.56 182.5 106.32M157.994 116.294C157.994 114.378 158.461 112.069 159.124 110.273C159.71 108.694 160.579 107.028 161.589 105.689C161.904 105.264 162.252 104.84 162.589 104.437C162.936 104.012 163.414 103.424 163.849 103.097C164.251 102.793 164.588 102.401 164.989 102.085C165.413 101.758 165.848 101.442 166.271 101.127C166.51 100.942 166.76 100.811 167.01 100.648C167.716 100.19 168.542 99.7874 169.302 99.439C174.103 97.2831 179.285 97.2614 184.173 99.1341C184.445 99.243 184.705 99.3737 184.977 99.4826C186.367 100.06 188.268 101.257 189.398 102.259L189.42 102.281L190.778 103.522L190.821 103.566C190.821 103.566 190.843 103.587 190.854 103.609C193.352 106.364 194.797 108.727 195.699 112.374C196.035 113.735 196.209 115.162 196.209 116.555C196.209 119.789 195.677 121.749 194.428 124.667C193.906 125.897 192.722 127.705 191.842 128.728L191.821 128.761L189.854 130.797L187.877 132.321L187.834 132.354C182.229 136.067 175.418 136.753 169.248 133.987C166.934 132.953 165.565 131.897 163.719 130.209C163.675 130.176 163.643 130.144 163.599 130.1L163.566 130.078L163.121 129.61C161.785 128.271 160.579 126.431 159.754 124.732C158.45 122.065 157.94 119.266 157.95 116.305L157.994 116.294ZM212.069 104.328L212.036 129.305H220.183C221.302 129.305 222.247 129.24 223.214 128.641C224.561 127.814 225.115 126.376 225.115 124.83V118.994H228.819C229.732 118.994 230.394 119.658 230.394 120.573V133.029C230.383 133.944 229.71 134.608 228.797 134.608L198.403 134.575C197.491 134.575 196.828 133.911 196.828 132.996V129.284H201.597L201.63 104.306H196.861V99.0035L216.827 99.0253V104.317H212.058L212.069 104.328ZM105.223 106.244C105.125 106.168 105.038 106.103 104.94 106.015C104.832 105.917 104.734 105.787 104.625 105.7C104.397 105.515 104.158 105.34 103.908 105.177C102.463 104.23 101.203 104.001 99.487 104.001C97.9988 104.001 96.1196 104.742 95.0116 105.722C94.816 105.896 94.5445 106.092 94.3815 106.288C94.186 106.516 93.9905 106.756 93.8167 107.006C91.731 110.077 90.8837 113.017 90.8729 116.729C90.8729 118.352 91.101 120.094 91.5572 121.651C91.6658 121.999 91.7745 122.359 91.9048 122.696C92.0352 123.023 92.1547 123.36 92.2959 123.676C92.7847 124.732 93.5668 126.072 94.3924 126.899C95.37 127.879 96.1848 128.511 97.51 128.946C98.1618 129.164 99.0199 129.229 99.7043 129.229C101.345 129.229 102.42 129.033 103.778 128.119C104.875 127.389 105.592 126.583 106.32 125.494C107.037 124.417 107.678 123.034 108.025 121.782C108.471 120.203 108.764 118.646 108.764 117.002C108.764 113.779 108.156 110.545 106.363 107.823C106.178 107.54 105.994 107.235 105.798 106.974C105.614 106.723 105.407 106.473 105.212 106.233L105.223 106.244ZM80.7162 116.207C80.7162 114.291 81.1833 111.982 81.8459 110.186C82.4325 108.607 83.3015 106.941 84.3117 105.602C84.6268 105.177 84.9744 104.752 85.3111 104.35C85.6587 103.925 86.1367 103.337 86.5712 103.01C86.9731 102.705 87.3099 102.313 87.7118 101.998C88.1354 101.671 88.5699 101.355 88.9936 101.04C89.2326 100.854 89.4824 100.724 89.7431 100.56C90.4492 100.103 91.2748 99.7003 92.0352 99.3519C96.8365 97.196 102.018 97.1743 106.906 99.047C107.178 99.1559 107.439 99.2866 107.71 99.3955C109.101 99.9725 111.002 101.17 112.131 102.172L112.153 102.194L113.511 103.435L113.543 103.479C113.543 103.479 113.576 103.511 113.587 103.522C116.085 106.277 117.519 108.64 118.432 112.287C118.768 113.648 118.942 115.074 118.942 116.468C118.942 119.702 118.41 121.662 117.172 124.58C116.65 125.81 115.466 127.618 114.586 128.641L114.565 128.674L112.598 130.71L110.621 132.234L110.578 132.267C104.973 135.98 98.1618 136.666 91.9917 133.9C89.678 132.866 88.3092 131.81 86.4626 130.122C86.4083 130.078 86.3539 130.035 86.3105 129.98L86.2888 129.959L85.876 129.523C84.5399 128.184 83.3341 126.344 82.5085 124.645C81.205 121.978 80.6945 119.179 80.7053 116.218L80.7162 116.207Z" fill="white"/>
<path fill-rule="evenodd" clip-rule="evenodd" d="M64.1396 104.513L63.0207 104.186C62.5971 104.099 61.9236 104.099 61.4999 104.088C60.5766 104.056 59.6424 104.056 58.7191 104.056C57.698 104.056 56.6877 104.067 55.6666 104.077V113.245H61.7389C62.8361 113.245 63.8028 113.006 64.7588 112.472C65.2367 112.2 65.6821 111.808 66.0297 111.383C66.6923 110.578 66.9313 109.532 66.9313 108.509C66.9313 106.821 65.7147 105.079 64.1287 104.513M72.1454 117.1C75.6758 119.408 76.6101 124.319 77.4139 129.055C77.4139 129.077 79.8037 129.088 79.9992 129.088V134.379L67.7352 134.368C67.6374 128.064 67.3876 122.184 63.1728 119.495C61.1197 118.461 58.1651 118.482 55.6775 118.526V129.066H60.305V134.358L40.5348 134.336V129.044H45.1732L45.2058 104.066H40.6326V100.354C40.6326 99.439 41.2952 98.7748 42.2077 98.7748L66.4208 98.8075C69.3863 98.8075 71.3959 99.4499 73.6554 101.377L73.9595 101.638L73.9921 101.66C74.1442 101.802 74.242 101.932 74.3723 102.096C74.5135 102.292 74.6765 102.466 74.8286 102.651C75.2413 103.141 75.5346 103.62 75.8171 104.186C76.6969 105.961 76.8816 107.159 76.8816 109.108C76.8816 111.754 75.2848 114.759 73.2209 116.37C72.8733 116.642 72.5256 116.882 72.1672 117.1H72.1454Z" fill="white"/>
<path fill-rule="evenodd" clip-rule="evenodd" d="M144.111 104.774C143.981 104.752 143.851 104.731 143.731 104.687H140.733V99.1886L158.559 99.2104V104.709H155.984C155.311 104.709 154.681 104.85 154.072 105.123C153.236 105.515 152.41 106.103 151.693 106.691L151.672 106.712C150.097 107.921 148.543 109.151 147.012 110.414C145.806 111.394 144.6 112.385 143.394 113.365C144.665 115.129 145.958 116.893 147.24 118.657C148.793 120.78 150.346 122.892 151.867 125.037C152.465 125.876 153.062 126.714 153.692 127.52C154.083 128.021 154.529 128.521 155.017 128.913C155.332 129.164 155.691 129.414 156.06 129.556C156.364 129.676 156.69 129.73 157.016 129.73H159.471V134.477L140.7 134.455V129.654H142.851C143.123 129.654 143.861 129.632 144.35 129.534C144.122 129.142 143.872 128.761 143.612 128.38L136.985 118.385L131.782 122.707V126.747C131.782 127.226 131.782 128.053 131.956 128.511C132.043 128.761 132.26 128.946 132.466 129.088L132.705 129.251C133.444 129.599 134.357 129.686 135.139 129.686H136.573V134.434L117.443 134.412V129.61H120.257C120.919 129.61 121.843 129.556 122.549 129.284L123.038 128.99C123.211 128.881 123.385 128.75 123.45 128.543C123.613 128.053 123.624 127.237 123.624 126.736L123.646 107.507C123.646 107.006 123.635 106.233 123.483 105.743C123.407 105.515 123.211 105.34 123.016 105.21L122.788 105.057C122.038 104.698 121.082 104.611 120.289 104.611H117.476V99.1559L136.605 99.1777V104.676H135.16C134.509 104.676 133.629 104.731 132.933 105.003L132.434 105.308C132.249 105.417 132.054 105.58 131.967 105.787C131.804 106.222 131.793 107.05 131.793 107.507V114.704C133.314 113.496 134.845 112.287 136.366 111.068C138.604 109.271 140.842 107.475 143.068 105.667L143.09 105.645C143.286 105.493 143.742 105.123 144.111 104.785" fill="white"/>
<path fill-rule="evenodd" clip-rule="evenodd" d="M227.168 101.747H227.287C227.939 101.747 228.265 101.519 228.265 101.05C228.265 100.833 228.189 100.658 228.048 100.528C227.907 100.397 227.722 100.321 227.505 100.321C227.396 100.321 227.298 100.343 227.179 100.375V101.736L227.168 101.747ZM226.266 100.158H227.733C228.037 100.158 228.287 100.223 228.504 100.354C228.754 100.506 228.873 100.724 228.873 101.018C228.873 101.442 228.591 101.726 228.026 101.867L228.83 103.01C228.982 103.228 229.134 103.337 229.286 103.348V103.479H228.591L227.461 101.932H227.168V103.108C227.201 103.272 227.342 103.348 227.613 103.348V103.479H226.212V103.348C226.429 103.348 226.56 103.293 226.581 103.174C226.592 103.119 226.603 102.999 226.603 102.825V100.833C226.603 100.637 226.603 100.506 226.57 100.452C226.527 100.365 226.418 100.321 226.256 100.31V100.169L226.266 100.158ZM227.668 99.3519C227.233 99.3519 226.82 99.4608 226.44 99.6786C226.06 99.8963 225.756 100.201 225.539 100.571C225.31 100.963 225.202 101.377 225.202 101.824C225.202 102.509 225.441 103.097 225.919 103.577C226.397 104.056 226.983 104.295 227.668 104.306C228.352 104.306 228.939 104.066 229.417 103.587C229.895 103.108 230.144 102.52 230.144 101.834C230.144 101.388 230.036 100.974 229.808 100.582C229.579 100.19 229.275 99.8963 228.895 99.6786C228.504 99.4608 228.102 99.3519 227.679 99.3519H227.668ZM227.668 99.1124C228.417 99.1124 229.058 99.3737 229.58 99.9072C230.101 100.43 230.372 101.072 230.372 101.824C230.372 102.575 230.112 103.217 229.58 103.74C229.047 104.262 228.417 104.524 227.668 104.524C226.918 104.524 226.277 104.262 225.756 103.729C225.234 103.195 224.963 102.564 224.963 101.813C224.963 101.323 225.082 100.865 225.332 100.441C225.582 100.016 225.919 99.6894 226.342 99.4499C226.766 99.2213 227.211 99.1015 227.668 99.1015V99.1124Z" fill="white"/>
<path d="M136.355 28.2301L123.776 40.8169L124.45 40.9367C124.699 40.9693 124.938 41.0129 125.156 41.0346C125.395 41.0564 125.634 41.0782 125.84 41.0891C126.351 41.1 126.926 41.0673 127.48 41.0455L128.317 40.9911C128.773 40.9693 129.229 40.9366 129.762 40.9149C130.207 40.8931 130.674 40.8713 131.163 40.8713C131.652 40.8713 132.13 40.8713 132.586 40.904C133.096 40.9367 133.607 41.0238 134.118 41.1326C134.661 41.2524 135.193 41.4157 135.693 41.6008C135.823 41.6553 135.975 41.7097 136.116 41.7642C136.833 41.6662 137.561 41.6444 138.256 41.6226H138.604C138.995 41.6008 139.386 41.5899 139.82 41.5682C140.016 41.5573 140.212 41.5464 140.396 41.5246C140.57 41.5028 140.744 41.4811 140.928 41.4484C141.178 41.394 141.406 41.3395 141.624 41.2633C141.884 41.1762 142.113 41.0891 142.362 40.9911C142.569 40.9149 142.775 40.8387 142.96 40.7842C143.177 40.7189 143.416 40.6644 143.666 40.6427C143.84 40.6209 144.187 40.6318 144.361 40.6536C144.806 40.7189 145.208 40.9258 145.556 41.1871C145.936 41.4811 146.251 41.8513 146.49 42.2215L146.61 42.4174C146.849 42.8639 147.099 43.626 147.164 44.0616C147.196 44.2467 147.207 44.4535 147.218 44.6713C147.218 44.8782 147.218 45.0851 147.196 45.281C147.164 45.5641 147.12 45.8472 147.044 46.1086V46.163L147.707 46.4134C148.152 46.5767 148.608 46.7618 149.076 46.9469C149.532 47.132 149.988 47.3171 150.368 47.4805C150.792 47.6656 151.226 47.8724 151.661 48.112C151.998 48.2971 152.324 48.504 152.639 48.7108C152.964 48.9286 153.258 49.1464 153.54 49.3641C153.877 49.6254 154.203 49.8759 154.507 50.1263L155.528 50.9647C155.68 51.0954 155.854 51.2369 156.115 51.4438L156.169 51.4873C156.223 51.5418 156.299 51.5962 156.332 51.6071C156.495 51.6724 156.712 51.7378 156.908 51.7922C157.266 51.9011 157.614 52.01 157.961 52.1188C158.255 52.2168 158.537 52.3039 158.787 52.4019C159.026 52.489 159.287 52.587 159.558 52.6959C159.819 52.8048 160.069 52.9137 160.329 53.0552C160.905 53.3492 161.492 53.7956 162.046 54.2965C162.697 54.8844 163.317 55.5704 163.773 56.1584L164.12 56.6048C164.566 57.073 165 57.7916 165 57.7916L165.337 58.4776L161.861 60.3612L161.35 60.6661L160.796 61.0036C160.568 61.1452 160.329 61.2976 160.123 61.4609C160.025 61.5807 159.688 62.2449 159.536 62.528L159.363 62.8764C159.124 63.3555 158.852 63.889 158.515 64.3354C158.363 64.5423 158.157 64.7383 157.95 64.9234C157.755 65.0867 157.57 65.2391 157.407 65.3589C157.005 65.6747 156.56 65.9904 156.125 66.3062L155.941 66.4368C155.593 66.6873 155.246 66.9377 154.865 67.2317L154.833 67.2535C154.616 67.4168 154.366 67.6128 154.203 67.787C154.072 67.9285 153.942 68.081 153.812 68.2334L153.421 68.7125L152.845 69.4529L152.106 70.4437C150.303 72.9044 149.749 73.6448 147.848 75.6918L146.555 77.0855C146.349 77.3142 146.121 77.5646 145.98 77.7606C145.752 78.0872 145.534 78.5554 145.35 78.9801L145.165 79.3829C144.893 79.9818 144.578 80.6786 144.166 81.2012C143.177 82.4861 142.645 83.074 142.243 83.5204C141.895 83.9015 141.656 84.1737 141.233 84.7944L142.199 83.956C147.805 79.0127 158.222 68.9629 167.586 59.6099L136.377 28.2519L136.355 28.2301ZM136.67 85.6545L137.963 87.0482C140.005 83.6184 140.32 83.2591 141.07 82.4425C141.45 82.0288 141.939 81.4843 142.905 80.2213C143.21 79.8293 143.481 79.2305 143.72 78.7079L143.905 78.305C144.122 77.8259 144.372 77.2924 144.676 76.846C144.893 76.5411 145.154 76.258 145.382 76.0076L146.686 74.6139C148.532 72.6322 149.065 71.9136 150.824 69.5073L151.585 68.4947L152.182 67.7216L152.595 67.2208C152.736 67.0466 152.888 66.8724 153.04 66.709C153.29 66.4477 153.605 66.1973 153.877 66.0013L153.909 65.9795C154.246 65.7182 154.626 65.446 155.017 65.1629L155.202 65.0323C155.615 64.7383 156.028 64.4443 156.441 64.1177C156.593 63.9979 156.756 63.8672 156.908 63.7366C157.038 63.6168 157.168 63.497 157.244 63.3881C157.483 63.0724 157.722 62.5933 157.94 62.1687L158.124 61.8093C158.331 61.4174 158.798 60.4919 159.124 60.2197H159.134C159.384 60.0128 159.678 59.8277 159.949 59.6535C160.938 58.9893 162.1 58.4122 163.132 57.8569C162.904 57.6065 162.741 57.3996 162.524 57.1274C162.122 56.6157 161.568 56.0059 160.97 55.4615C160.503 55.0369 160.025 54.6667 159.602 54.4489C159.395 54.34 159.178 54.242 158.95 54.144C158.743 54.0569 158.504 53.9698 158.255 53.8827L157.462 53.6105L156.451 53.2948C156.202 53.2186 155.93 53.1423 155.702 53.0443L155.582 52.9899C155.452 52.9137 155.3 52.7939 155.18 52.7068C154.637 52.3039 154.029 51.7595 153.518 51.3349C153.203 51.0845 152.899 50.834 152.595 50.6054C152.313 50.3876 152.03 50.1807 151.759 50.0065C151.476 49.8214 151.194 49.6363 150.911 49.4839C150.553 49.2879 150.151 49.1028 149.738 48.9177C149.282 48.7108 148.88 48.5475 148.5 48.3951C148.076 48.2209 147.631 48.0575 147.164 47.8833C146.61 47.6765 146.153 47.5131 145.795 47.3825L145.013 47.1103L145.317 46.3481C145.404 46.1303 145.469 45.9235 145.523 45.7166C145.578 45.5097 145.61 45.3137 145.632 45.1068C145.643 44.9653 145.654 44.8237 145.654 44.6931C145.654 44.5842 145.643 44.4644 145.621 44.3338L145.284 43.2558L145.165 43.049C145.024 42.8203 144.828 42.5917 144.611 42.4174C144.47 42.3086 144.318 42.2215 144.166 42.1888H143.796C143.677 42.1888 143.557 42.2324 143.427 42.265C143.242 42.3195 143.09 42.3739 142.938 42.4283C142.656 42.5372 142.384 42.6352 142.145 42.7223C141.852 42.8203 141.559 42.9074 141.254 42.9619C141.048 43.0054 140.809 43.0381 140.581 43.0599C140.364 43.0816 140.146 43.0925 139.94 43.1034C139.549 43.1252 139.114 43.1361 138.68 43.147H138.332C137.615 43.1796 136.855 43.2014 136.16 43.3212L135.942 43.3538C135.693 43.245 135.443 43.147 135.182 43.049C134.737 42.8856 134.27 42.7441 133.802 42.6352C133.379 42.5372 132.944 42.4719 132.51 42.4392C132.064 42.4066 131.619 42.3957 131.195 42.4066C130.772 42.4066 130.316 42.4283 129.859 42.4501L127.6 42.5808C127.024 42.6134 126.438 42.6461 125.829 42.6243C125.547 42.6243 125.275 42.5917 125.015 42.5699C124.732 42.5372 124.482 42.5046 124.243 42.461L123.396 42.3086L122.57 42.1452L120.604 41.7424L121.636 40.708L136.377 25.9654C147.522 37.1584 158.678 48.3515 169.813 59.5664L169.259 60.1217C159.743 69.638 148.989 80.0253 143.242 85.0883C142.015 86.1772 141.005 87.0156 140.277 87.5709C139.212 88.3657 138.452 88.5943 138.039 88.1262L135.975 85.7961L136.692 85.6219L136.67 85.6545Z" fill="white"/>
</svg>