<svg xmlns="http://www.w3.org/2000/svg" width="20" height="20" viewBox="0 0 20 20" fill="none">
  <path d="M9.05294 10.4604C9.3201 10.7016 9.65473 10.8334 10 10.8334C10.3453 10.8334 10.6799 10.7016 10.9471 10.4604L17.5 4.52408C17.2229 4.15323 16.8751 3.85428 16.4814 3.64849C16.0877 3.44269 15.6577 3.3351 15.222 3.33337H4.77805C4.34233 3.3351 3.91232 3.44269 3.51858 3.64849C3.12485 3.85428 2.77708 4.15323 2.5 4.52408L9.05294 10.4604Z" fill="white"/>
  <path d="M11.9234 11.2906C11.3805 11.7543 10.701 12.0076 9.99984 12.0076C9.2987 12.0076 8.61914 11.7543 8.07631 11.2906L1.71903 5.83337C1.68649 6.01204 1.66891 6.19332 1.6665 6.37518V13.5001C1.66736 14.3396 1.9869 15.1446 2.555 15.7382C3.12311 16.3319 3.89338 16.6658 4.69681 16.6667H15.3029C16.1063 16.6658 16.8766 16.3319 17.4447 15.7382C18.0128 15.1446 18.3323 14.3396 18.3332 13.5001V6.37518C18.3308 6.19332 18.3132 6.01204 18.2806 5.83337L11.9234 11.2906Z" fill="white"/>
</svg>