<svg width="24" height="48" viewBox="0 0 24 48" fill="none" xmlns="http://www.w3.org/2000/svg">
<path fill-rule="evenodd" clip-rule="evenodd" d="M2.25 11.55C2.25 6.41375 6.41375 2.25 11.55 2.25C16.6862 2.25 20.85 6.41375 20.85 11.55C20.85 13.8481 20.0164 15.9516 18.6351 17.5745L21.5303 20.4697C21.8232 20.7626 21.8232 21.2374 21.5303 21.5303C21.2374 21.8232 20.7626 21.8232 20.4697 21.5303L17.5745 18.6351C15.9516 20.0164 13.8481 20.85 11.55 20.85C6.41375 20.85 2.25 16.6862 2.25 11.55ZM11.55 3.75C7.24218 3.75 3.75 7.24218 3.75 11.55C3.75 15.8578 7.24218 19.35 11.55 19.35C15.8578 19.35 19.35 15.8578 19.35 11.55C19.35 7.24218 15.8578 3.75 11.55 3.75Z" fill="#1A1E26"/>
<path d="M20.7449 28.4868C21.085 28.1467 21.085 27.5952 20.7449 27.2551C20.4048 26.915 19.8533 26.915 19.5132 27.2551L12 34.7682L4.48684 27.2551C4.14671 26.915 3.59524 26.915 3.2551 27.2551C2.91497 27.5952 2.91497 28.1467 3.2551 28.4868L10.7682 36L3.2551 43.5132C2.91497 43.8533 2.91497 44.4047 3.2551 44.7449C3.59524 45.085 4.14671 45.085 4.48684 44.7449L12 37.2317L19.5132 44.7449C19.8533 45.085 20.4048 45.085 20.7449 44.7449C21.085 44.4047 21.085 43.8533 20.7449 43.5132L13.2318 36L20.7449 28.4868Z" fill="#1A1E26"/>
</svg>
