<svg xmlns="http://www.w3.org/2000/svg" width="16" height="16" viewBox="0 0 16 16" fill="none">
  <path d="M9.61943 12.5466C9.49276 12.5466 9.36609 12.5 9.26609 12.4C9.07276 12.2066 9.07276 11.8866 9.26609 11.6933L12.9594 7.99996L9.26609 4.30662C9.07276 4.11329 9.07276 3.79329 9.26609 3.59996C9.45943 3.40662 9.77943 3.40662 9.97276 3.59996L14.0194 7.64662C14.2128 7.83996 14.2128 8.15996 14.0194 8.35329L9.97276 12.4C9.87276 12.5 9.74609 12.5466 9.61943 12.5466Z" fill="#A4A9B3"/>
  <path d="M13.554 8.5H2.33398C2.06065 8.5 1.83398 8.27333 1.83398 8C1.83398 7.72667 2.06065 7.5 2.33398 7.5H13.554C13.8273 7.5 14.054 7.72667 14.054 8C14.054 8.27333 13.8273 8.5 13.554 8.5Z" fill="#A4A9B3"/>
</svg>