<svg xmlns="http://www.w3.org/2000/svg" version="1.1" xmlns:xlink="http://www.w3.org/1999/xlink" width="30" height="40" x="0" y="0" viewBox="0 0 294.15 418.32" style="enable-background:new 0 0 512 512" xml:space="preserve" class=""><g transform="matrix(1,0,0,1,0,2.842170943040401e-14)"><g data-name="Capa 2"><g data-name="Capa 1"><path d="M286.15 110.51a8 8 0 0 0-8 8v267.25a16.58 16.58 0 0 1-16.56 16.56h-229A16.58 16.58 0 0 1 16 385.76v-353a16.58 16.58 0 0 1 16.55-16.6H199.4v49a29.25 29.25 0 0 0 29.22 29.21h57.13a8 8 0 0 0 5.66-13.66L213.06 2.32a8 8 0 0 0-7.13-2.18L32.55.16A32.6 32.6 0 0 0 0 32.72v353a32.6 32.6 0 0 0 32.56 32.56h229a32.6 32.6 0 0 0 32.56-32.56V118.51a8 8 0 0 0-7.97-8zm-57.53-32.18a13.23 13.23 0 0 1-13.22-13.21V27.29l51 51z" fill="#6e737d" opacity="1" data-original="#000000" class=""></path><path d="M82.44 297a6.87 6.87 0 0 0-7.12 7.12v48.43c0 5 3 7.56 7.12 7.56s7.12-2.55 7.12-7.56v-13.1h10.81c13.53 0 21-9 21-21.18 0-14.15-10.46-21.27-21.44-21.27zm24.17 21.27c0 4.4-3.34 8.53-9.41 8.53h-7.64v-17.18h7.64c5.63 0 9.41 2.99 9.41 8.61zM135.52 297a6.87 6.87 0 0 0-7.12 7.12v48.34a6.87 6.87 0 0 0 7.12 7.12h17c15.47 0 29.18-11.25 29.18-31.73 0-16.08-10.55-30.85-29.18-30.85zm30.94 30.85c0 10.9-5.19 18.55-16.26 18.55h-7.56v-36.25h8.17c10.37 0 15.65 7.12 15.65 17.66zM218.57 310.15c4.48 0 7.12-2.46 7.12-6.6 0-3.95-2.64-6.59-7.12-6.59h-21.8a6.87 6.87 0 0 0-7.11 7.12v48.43c0 5 3 7.56 7.11 7.56s7.12-2.55 7.12-7.56v-18h12.84c4.48 0 7.11-2.55 7.11-6.59s-2.63-6.59-7.11-6.59h-12.84v-11.18zM213.45 191.25A66.44 66.44 0 1 0 147 257.69a66.51 66.51 0 0 0 66.45-66.44zM147 241.69a50.44 50.44 0 1 1 50.44-50.44A50.5 50.5 0 0 1 147 241.69z" fill="#6e737d" opacity="1" data-original="#000000" class=""></path><path d="M147 179.73a8 8 0 0 0-8 8v29.86a8 8 0 1 0 16 0v-29.86a8 8 0 0 0-8-8z" fill="#6e737d" opacity="1" data-original="#000000" class=""></path><circle cx="147.24" cy="164.39" r="9.53" fill="#6e737d" opacity="1" data-original="#000000" class=""></circle></g></g></g></svg>