<svg width="16" height="16" viewBox="0 0 16 16" fill="none" xmlns="http://www.w3.org/2000/svg">
<path fill-rule="evenodd" clip-rule="evenodd" d="M8 16C12.4062 16 16 12.4062 16 8C16 3.59375 12.4062 0 8 0C3.59375 0 0 3.59375 0 8C0 12.4062 3.59375 16 8 16Z" fill="#CFCFCF"/>
<path fill-rule="evenodd" clip-rule="evenodd" d="M7.99998 3.79062C8.42529 3.79062 8.77342 4.13874 8.77342 4.56406V7.22593H11.4362C11.8615 7.22593 12.2097 7.57406 12.2097 7.99999C12.2097 8.42531 11.8615 8.77406 11.4362 8.77406H8.77342V11.4359C8.77342 11.8612 8.42529 12.2094 7.99998 12.2094C7.57404 12.2094 7.22592 11.8612 7.22592 11.4359V8.77406H4.56404C4.1381 8.77406 3.78998 8.42499 3.78998 7.99999C3.78998 7.57406 4.1381 7.22593 4.56404 7.22593H7.22592V4.56406C7.22592 4.13874 7.57404 3.79062 7.99998 3.79062Z" fill="white"/>
</svg>
