<svg xmlns="http://www.w3.org/2000/svg" width="38" height="38" viewBox="0 0 38 38" fill="none">
  <path d="M29.15 2H8.85C6.7262 2 5 3.74675 5 5.89583V32.1042C5 34.2533 6.7262 36 8.85 36H29.15C31.2738 36 33 34.2533 33 32.1042V5.89583C33 3.74675 31.2738 2 29.15 2ZM15.892 28.52C16.3022 28.9351 16.3022 29.608 15.892 30.0231C15.6876 30.2299 15.4188 30.3333 15.15 30.3333C14.8812 30.3333 14.6124 30.2299 14.408 30.0217L13.4 29.0031L12.392 30.0231C12.1876 30.2299 11.9188 30.3333 11.65 30.3333C11.3812 30.3333 11.1124 30.2299 10.908 30.0217C10.4978 29.6066 10.4978 28.9337 10.908 28.5186L11.9146 27.5L10.9066 26.48C10.4964 26.0649 10.4964 25.392 10.9066 24.9769C11.3168 24.5618 11.9818 24.5618 12.392 24.9769L13.4 25.9969L14.408 24.9769C14.8182 24.5618 15.4832 24.5618 15.8934 24.9769C16.3036 25.392 16.3036 26.0649 15.8934 26.48L14.8854 27.5L15.892 28.52ZM15.15 20.0625H14.45V20.7708C14.45 21.3573 13.9796 21.8333 13.4 21.8333C12.8204 21.8333 12.35 21.3573 12.35 20.7708V20.0625H11.65C11.0704 20.0625 10.6 19.5865 10.6 19C10.6 18.4135 11.0704 17.9375 11.65 17.9375H12.35V17.2292C12.35 16.6427 12.8204 16.1667 13.4 16.1667C13.9796 16.1667 14.45 16.6427 14.45 17.2292V17.9375H15.15C15.7296 17.9375 16.2 18.4135 16.2 19C16.2 19.5865 15.7296 20.0625 15.15 20.0625ZM26.35 30.3333H22.85C22.2704 30.3333 21.8 29.8573 21.8 29.2708C21.8 28.6843 22.2704 28.2083 22.85 28.2083H26.35C26.9296 28.2083 27.4 28.6843 27.4 29.2708C27.4 29.8573 26.9296 30.3333 26.35 30.3333ZM26.35 26.7917H22.85C22.2704 26.7917 21.8 26.3157 21.8 25.7292C21.8 25.1427 22.2704 24.6667 22.85 24.6667H26.35C26.9296 24.6667 27.4 25.1427 27.4 25.7292C27.4 26.3157 26.9296 26.7917 26.35 26.7917ZM26.35 20.4167H22.85C22.2704 20.4167 21.8 19.9407 21.8 19.3542C21.8 18.7677 22.2704 18.2917 22.85 18.2917H26.35C26.9296 18.2917 27.4 18.7677 27.4 19.3542C27.4 19.9407 26.9296 20.4167 26.35 20.4167ZM28.8 10.8542C28.8 12.2212 27.701 13.3333 26.35 13.3333H11.65C10.299 13.3333 9.2 12.2212 9.2 10.8542V8.72917C9.2 7.36208 10.299 6.25 11.65 6.25H26.35C27.701 6.25 28.8 7.36208 28.8 8.72917V10.8542Z" fill="#6E737D"/>
</svg>