<svg width="44" height="46" viewBox="0 0 44 46" fill="none" xmlns="http://www.w3.org/2000/svg">
<g clip-path="url(#clip0_17_2)">
<path d="M4.19461 10.9226C5.97361 10.9226 7.72461 10.9246 9.47561 10.9216C10.3256 10.9206 10.6736 10.5676 10.6756 9.70264C10.6786 8.06464 10.6776 6.42764 10.6726 4.78964C10.6726 4.67464 10.7406 4.53264 10.6476 4.46964C8.49861 6.61864 6.36061 8.75664 4.19461 10.9226ZM24.6436 36.3596C29.8716 36.3596 35.0986 36.3596 40.3266 36.3586C41.2786 36.3586 41.6226 36.0196 41.6226 35.0746C41.6246 30.6106 41.6246 26.1466 41.6226 21.6826C41.6226 20.7566 41.2546 20.3926 40.3216 20.3916C29.8836 20.3916 19.4446 20.3916 9.00561 20.3916C8.02761 20.3916 7.69461 20.7266 7.69361 21.7126C7.69261 26.1596 7.69261 30.6076 7.69361 35.0556C7.69461 36.0416 8.01761 36.3596 9.00961 36.3596C14.2206 36.3596 19.4326 36.3596 24.6436 36.3596ZM2.69461 28.0146C2.69461 32.8686 2.69361 37.7226 2.69561 42.5766C2.69561 43.4656 3.06161 43.8496 3.91161 43.8496C12.7596 43.8516 21.6086 43.8516 30.4566 43.8496C31.2536 43.8496 31.6236 43.4816 31.6276 42.6926C31.6336 41.4266 31.6036 40.1596 31.6426 38.8946C31.6566 38.4236 31.4946 38.3566 31.0776 38.3576C23.7066 38.3696 16.3346 38.3676 8.96361 38.3656C6.93561 38.3646 5.69461 37.1156 5.69361 35.0846C5.69261 30.6526 5.74161 26.2196 5.67161 21.7886C5.64061 19.8096 7.05461 18.3736 9.04961 18.3896C16.4036 18.4466 23.7586 18.4076 31.1136 18.4236C31.5486 18.4246 31.6416 18.3146 31.6396 17.8916C31.6226 13.3296 31.6296 8.76764 31.6286 4.20564C31.6286 3.27764 31.2926 2.93764 30.3746 2.93764C24.6266 2.93664 18.8796 2.94064 13.1316 2.92864C12.7706 2.92764 12.6756 3.00964 12.6786 3.37764C12.6986 5.47164 12.6906 7.56564 12.6876 9.65964C12.6846 11.6636 11.4436 12.9096 9.44261 12.9136C7.41261 12.9176 5.38361 12.9126 3.35361 12.9156C2.60161 12.9176 2.69561 12.8286 2.69561 13.5486C2.69361 18.3706 2.69461 23.1926 2.69461 28.0146ZM0.712609 27.4956C0.712609 22.4146 0.717609 17.3336 0.704609 12.2526C0.702609 11.7426 0.853609 11.3616 1.21461 11.0026C4.40261 7.83164 7.58361 4.65164 10.7546 1.46364C11.1126 1.10464 11.4906 0.942642 12.0016 0.943642C18.1216 0.956642 24.2426 0.950641 30.3636 0.952641C32.4046 0.953641 33.6406 2.18564 33.6416 4.21864C33.6426 8.78064 33.6496 13.3416 33.6296 17.9036C33.6276 18.3516 33.7576 18.4266 34.1686 18.4226C36.2466 18.4006 38.3246 18.4096 40.4026 18.4126C42.3616 18.4156 43.6026 19.6456 43.6036 21.5926C43.6076 26.1216 43.6076 30.6506 43.6036 35.1796C43.6026 37.0916 42.3526 38.3536 40.4416 38.3636C38.3146 38.3746 36.1876 38.3746 34.0616 38.3576C33.7216 38.3556 33.6276 38.4396 33.6336 38.7826C33.6546 40.0646 33.6446 41.3476 33.6406 42.6296C33.6356 44.5716 32.3886 45.8326 30.4486 45.8336C21.6006 45.8386 12.7516 45.8386 3.90361 45.8346C1.94861 45.8336 0.714609 44.5936 0.713609 42.6416C0.710609 37.5936 0.712609 32.5446 0.712609 27.4956Z" fill="#1D1D1B"/>
<path d="M4.19461 10.9226C5.97361 10.9226 7.72461 10.9246 9.47561 10.9216C10.3256 10.9206 10.6736 10.5676 10.6756 9.70264C10.6786 8.06464 10.6776 6.42764 10.6726 4.78964C10.6726 4.67464 10.7406 4.53264 10.6476 4.46964C8.49861 6.61864 6.36061 8.75664 4.19461 10.9226ZM24.6436 36.3596C29.8716 36.3596 35.0986 36.3596 40.3266 36.3586C41.2786 36.3586 41.6226 36.0196 41.6226 35.0746C41.6246 30.6106 41.6246 26.1466 41.6226 21.6826C41.6226 20.7566 41.2546 20.3926 40.3216 20.3916C29.8836 20.3916 19.4446 20.3916 9.00561 20.3916C8.02761 20.3916 7.69461 20.7266 7.69361 21.7126C7.69261 26.1596 7.69261 30.6076 7.69361 35.0556C7.69461 36.0416 8.01761 36.3596 9.00961 36.3596C14.2206 36.3596 19.4326 36.3596 24.6436 36.3596ZM2.69461 28.0146C2.69461 32.8686 2.69361 37.7226 2.69561 42.5766C2.69561 43.4656 3.06161 43.8496 3.91161 43.8496C12.7596 43.8516 21.6086 43.8516 30.4566 43.8496C31.2536 43.8496 31.6236 43.4816 31.6276 42.6926C31.6336 41.4266 31.6036 40.1596 31.6426 38.8946C31.6566 38.4236 31.4946 38.3566 31.0776 38.3576C23.7066 38.3696 16.3346 38.3676 8.96361 38.3656C6.93561 38.3646 5.69461 37.1156 5.69361 35.0846C5.69261 30.6526 5.74161 26.2196 5.67161 21.7886C5.64061 19.8096 7.05461 18.3736 9.04961 18.3896C16.4036 18.4466 23.7586 18.4076 31.1136 18.4236C31.5486 18.4246 31.6416 18.3146 31.6396 17.8916C31.6226 13.3296 31.6296 8.76764 31.6286 4.20564C31.6286 3.27764 31.2926 2.93764 30.3746 2.93764C24.6266 2.93664 18.8796 2.94064 13.1316 2.92864C12.7706 2.92764 12.6756 3.00964 12.6786 3.37764C12.6986 5.47164 12.6906 7.56564 12.6876 9.65964C12.6846 11.6636 11.4436 12.9096 9.44261 12.9136C7.41261 12.9176 5.38361 12.9126 3.35361 12.9156C2.60161 12.9176 2.69561 12.8286 2.69561 13.5486C2.69361 18.3706 2.69461 23.1926 2.69461 28.0146ZM0.712609 27.4956C0.712609 22.4146 0.717609 17.3336 0.704609 12.2526C0.702609 11.7426 0.853609 11.3616 1.21461 11.0026C4.40261 7.83164 7.58361 4.65164 10.7546 1.46364C11.1126 1.10464 11.4906 0.942642 12.0016 0.943642C18.1216 0.956642 24.2426 0.950641 30.3636 0.952641C32.4046 0.953641 33.6406 2.18564 33.6416 4.21864C33.6426 8.78064 33.6496 13.3416 33.6296 17.9036C33.6276 18.3516 33.7576 18.4266 34.1686 18.4226C36.2466 18.4006 38.3246 18.4096 40.4026 18.4126C42.3616 18.4156 43.6026 19.6456 43.6036 21.5926C43.6076 26.1216 43.6076 30.6506 43.6036 35.1796C43.6026 37.0916 42.3526 38.3536 40.4416 38.3636C38.3146 38.3746 36.1876 38.3746 34.0616 38.3576C33.7216 38.3556 33.6276 38.4396 33.6336 38.7826C33.6546 40.0646 33.6446 41.3476 33.6406 42.6296C33.6356 44.5716 32.3886 45.8326 30.4486 45.8336C21.6006 45.8386 12.7516 45.8386 3.90361 45.8346C1.94861 45.8336 0.714609 44.5936 0.713609 42.6416C0.710609 37.5936 0.712609 32.5446 0.712609 27.4956Z" stroke="#1D1D1B" stroke-width="0.196" stroke-miterlimit="10"/>
<path d="M22.1836 10.9231C23.9846 10.9231 25.7866 10.9221 27.5876 10.9241C28.0786 10.9251 28.4366 11.1481 28.5856 11.6211C28.7266 12.0691 28.5866 12.4511 28.2076 12.7361C28.0166 12.8811 27.7916 12.9121 27.5626 12.9121C23.9596 12.9131 20.3566 12.9171 16.7536 12.9091C16.0976 12.9071 15.6716 12.4851 15.6796 11.9061C15.6886 11.3271 16.1246 10.9271 16.7796 10.9251C18.5806 10.9191 20.3826 10.9231 22.1836 10.9231Z" fill="#1D1D1B"/>
<path d="M22.1836 10.9231C23.9846 10.9231 25.7866 10.9221 27.5876 10.9241C28.0786 10.9251 28.4366 11.1481 28.5856 11.6211C28.7266 12.0691 28.5866 12.4511 28.2076 12.7361C28.0166 12.8811 27.7916 12.9121 27.5626 12.9121C23.9596 12.9131 20.3566 12.9171 16.7536 12.9091C16.0976 12.9071 15.6716 12.4851 15.6796 11.9061C15.6886 11.3271 16.1246 10.9271 16.7796 10.9251C18.5806 10.9191 20.3826 10.9231 22.1836 10.9231Z" stroke="#1D1D1B" stroke-width="0.196" stroke-miterlimit="10"/>
<path d="M9.88068 24.7273H10.9318L13.4034 30.7642H13.4886L15.9602 24.7273H17.0114V32H16.1875V26.4744H16.1165L13.8438 32H13.0483L10.7756 26.4744H10.7045V32H9.88068V24.7273Z" fill="#1D1D1B"/>
<path d="M22.7544 26.5455C22.7118 26.1856 22.539 25.9062 22.236 25.7074C21.9329 25.5085 21.5613 25.4091 21.1209 25.4091C20.7989 25.4091 20.5172 25.4612 20.2757 25.5653C20.0366 25.6695 19.8496 25.8127 19.7147 25.995C19.5821 26.1773 19.5158 26.3845 19.5158 26.6165C19.5158 26.8106 19.562 26.9775 19.6543 27.1172C19.749 27.2545 19.8697 27.3693 20.0165 27.4616C20.1633 27.5516 20.3172 27.6262 20.4782 27.6854C20.6391 27.7422 20.7871 27.7884 20.9221 27.8239L21.6607 28.0227C21.8501 28.0724 22.0608 28.1411 22.2928 28.2287C22.5272 28.3163 22.7509 28.4358 22.964 28.5874C23.1794 28.7365 23.357 28.9283 23.4966 29.1626C23.6363 29.397 23.7061 29.6847 23.7061 30.0256C23.7061 30.4186 23.6032 30.7737 23.3972 31.0909C23.1936 31.4081 22.8953 31.6603 22.5023 31.8473C22.1117 32.0343 21.637 32.1278 21.0783 32.1278C20.5575 32.1278 20.1065 32.0438 19.7253 31.8757C19.3465 31.7076 19.0482 31.4732 18.8304 31.1726C18.615 30.8719 18.4931 30.5227 18.4647 30.125H19.3738C19.3974 30.3996 19.4898 30.6269 19.6507 30.8068C19.8141 30.9844 20.0201 31.117 20.2686 31.2045C20.5196 31.2898 20.7895 31.3324 21.0783 31.3324C21.4145 31.3324 21.7163 31.2779 21.9838 31.169C22.2514 31.0578 22.4632 30.9039 22.6195 30.7074C22.7757 30.5085 22.8539 30.2765 22.8539 30.0114C22.8539 29.7699 22.7864 29.5734 22.6515 29.4219C22.5165 29.2704 22.339 29.1473 22.1188 29.0526C21.8986 28.9579 21.6607 28.875 21.405 28.804L20.5101 28.5483C19.9419 28.3849 19.4921 28.1518 19.1607 27.8487C18.8293 27.5457 18.6635 27.1491 18.6635 26.6591C18.6635 26.2519 18.7736 25.8968 18.9938 25.5937C19.2163 25.2884 19.5146 25.0516 19.8887 24.8835C20.2651 24.7131 20.6853 24.6278 21.1493 24.6278C21.6181 24.6278 22.0347 24.7119 22.3993 24.88C22.7639 25.0457 23.0527 25.273 23.2658 25.5618C23.4812 25.8506 23.5949 26.1785 23.6067 26.5455H22.7544Z" fill="#1D1D1B"/>
<path d="M27.3984 32H25.1541V24.7273H27.4979C28.2034 24.7273 28.8071 24.8729 29.309 25.1641C29.8108 25.4529 30.1956 25.8684 30.4631 26.4105C30.7306 26.9503 30.8643 27.5966 30.8643 28.3494C30.8643 29.107 30.7294 29.7592 30.4595 30.3061C30.1896 30.8506 29.7966 31.2696 29.2805 31.5632C28.7644 31.8544 28.1371 32 27.3984 32ZM26.0348 31.2187H27.3416C27.9429 31.2187 28.4413 31.1027 28.8366 30.8707C29.232 30.6387 29.5268 30.3085 29.7209 29.88C29.915 29.4515 30.0121 28.9413 30.0121 28.3494C30.0121 27.7623 29.9162 27.2569 29.7244 26.8331C29.5327 26.407 29.2462 26.0803 28.8651 25.853C28.4839 25.6233 28.0092 25.5085 27.4411 25.5085H26.0348V31.2187Z" fill="#1D1D1B"/>
<path d="M36.3189 26.5455C36.2763 26.1856 36.1035 25.9062 35.8004 25.7074C35.4974 25.5085 35.1257 25.4091 34.6854 25.4091C34.3634 25.4091 34.0817 25.4612 33.8402 25.5653C33.6011 25.6695 33.4141 25.8127 33.2791 25.995C33.1465 26.1773 33.0803 26.3845 33.0803 26.6165C33.0803 26.8106 33.1264 26.9775 33.2188 27.1172C33.3134 27.2545 33.4342 27.3693 33.581 27.4616C33.7277 27.5516 33.8816 27.6262 34.0426 27.6854C34.2036 27.7422 34.3516 27.7884 34.4865 27.8239L35.2251 28.0227C35.4145 28.0724 35.6252 28.1411 35.8572 28.2287C36.0916 28.3163 36.3153 28.4358 36.5284 28.5874C36.7438 28.7365 36.9214 28.9283 37.0611 29.1626C37.2008 29.397 37.2706 29.6847 37.2706 30.0256C37.2706 30.4186 37.1676 30.7737 36.9617 31.0909C36.7581 31.4081 36.4598 31.6603 36.0668 31.8473C35.6761 32.0343 35.2015 32.1278 34.6428 32.1278C34.1219 32.1278 33.6709 32.0438 33.2898 31.8757C32.911 31.7076 32.6127 31.4732 32.3949 31.1726C32.1795 30.8719 32.0575 30.5227 32.0291 30.125H32.9382C32.9619 30.3996 33.0542 30.6269 33.2152 30.8068C33.3786 30.9844 33.5845 31.117 33.8331 31.2045C34.084 31.2898 34.3539 31.3324 34.6428 31.3324C34.9789 31.3324 35.2808 31.2779 35.5483 31.169C35.8158 31.0578 36.0277 30.9039 36.184 30.7074C36.3402 30.5085 36.4183 30.2765 36.4183 30.0114C36.4183 29.7699 36.3509 29.5734 36.2159 29.4219C36.081 29.2704 35.9034 29.1473 35.6832 29.0526C35.4631 28.9579 35.2251 28.875 34.9695 28.804L34.0746 28.5483C33.5064 28.3849 33.0566 28.1518 32.7251 27.8487C32.3937 27.5457 32.228 27.1491 32.228 26.6591C32.228 26.2519 32.3381 25.8968 32.5582 25.5937C32.7808 25.2884 33.0791 25.0516 33.4531 24.8835C33.8295 24.7131 34.2498 24.6278 34.7138 24.6278C35.1825 24.6278 35.5992 24.7119 35.9638 24.88C36.3284 25.0457 36.6172 25.273 36.8303 25.5618C37.0457 25.8506 37.1593 26.1785 37.1712 26.5455H36.3189Z" fill="#1D1D1B"/>
</g>
<defs>
<clipPath id="clip0_17_2">
<rect width="44" height="46" fill="white"/>
</clipPath>
</defs>
</svg>
