<svg xmlns="http://www.w3.org/2000/svg" width="38" height="38" viewBox="0 0 38 38" fill="none">
  <path d="M32.4585 16.1342H27.8827C24.1302 16.1342 21.0743 13.0783 21.0743 9.32584V4.75001C21.0743 3.87917 20.3618 3.16667 19.491 3.16667H12.7777C7.901 3.16667 3.9585 6.33334 3.9585 11.9858V26.0142C3.9585 31.6667 7.901 34.8333 12.7777 34.8333H25.2227C30.0993 34.8333 34.0418 31.6667 34.0418 26.0142V17.7175C34.0418 16.8467 33.3293 16.1342 32.4585 16.1342Z" fill="#6E737D"/>
  <path d="M25.0168 3.49917C24.3677 2.85001 23.2435 3.29334 23.2435 4.19584V9.72167C23.2435 12.0333 25.2068 13.9492 27.5977 13.9492C29.1018 13.965 31.1918 13.965 32.981 13.965C33.8835 13.965 34.3585 12.9042 33.7252 12.2708C31.4452 9.975 27.3602 5.8425 25.0168 3.49917Z" fill="#6E737D"/>
  <path d="M8.47413 20.668H9.50798L11.0303 25.1936L12.5525 20.668H13.5864L11.4454 26.832H10.6151L8.47413 20.668ZM7.9165 20.668H8.94628L9.13351 25.0793V26.832H7.9165V20.668ZM13.1142 20.668H14.1481V26.832H12.927V25.0793L13.1142 20.668Z" fill="white"/>
  <path d="M18.3038 25.219C18.3038 25.109 18.2875 25.0102 18.255 24.9227C18.2251 24.8324 18.1681 24.7505 18.084 24.6771C17.9999 24.6009 17.8819 24.5261 17.7299 24.4528C17.578 24.3794 17.3812 24.3032 17.1397 24.2241C16.8711 24.1338 16.616 24.0322 16.3745 23.9193C16.1357 23.8064 15.9241 23.6752 15.7396 23.5256C15.5577 23.3732 15.4139 23.1968 15.3081 22.9964C15.205 22.796 15.1534 22.5632 15.1534 22.2979C15.1534 22.0411 15.2077 21.8082 15.3162 21.5994C15.4248 21.3877 15.5767 21.2071 15.7721 21.0575C15.9675 20.9051 16.1981 20.7879 16.4641 20.7061C16.7327 20.6243 17.0271 20.5833 17.3473 20.5833C17.7842 20.5833 18.1654 20.6652 18.4911 20.8289C18.8167 20.9926 19.069 21.2169 19.2481 21.502C19.4299 21.7871 19.5208 22.113 19.5208 22.4799H18.3079C18.3079 22.2993 18.2713 22.1413 18.198 22.0058C18.1274 21.8675 18.0189 21.7588 17.8724 21.6798C17.7286 21.6008 17.5468 21.5613 17.327 21.5613C17.1153 21.5613 16.9389 21.5951 16.7978 21.6629C16.6567 21.7278 16.5509 21.8167 16.4803 21.9296C16.4098 22.0397 16.3745 22.1638 16.3745 22.3021C16.3745 22.4066 16.3989 22.5011 16.4478 22.5858C16.4993 22.6704 16.5753 22.7495 16.6757 22.8229C16.7761 22.8962 16.8996 22.9654 17.0461 23.0303C17.1926 23.0952 17.3622 23.1587 17.5549 23.2208C17.8778 23.3224 18.1614 23.4367 18.4056 23.5637C18.6525 23.6907 18.8587 23.8333 19.0243 23.9913C19.1898 24.1494 19.3146 24.3286 19.3987 24.529C19.4828 24.7293 19.5249 24.9565 19.5249 25.2106C19.5249 25.4787 19.4747 25.7186 19.3743 25.9303C19.2739 26.1419 19.1287 26.3211 18.9388 26.4679C18.7488 26.6147 18.5223 26.7262 18.259 26.8024C17.9958 26.8786 17.7014 26.9167 17.3758 26.9167C17.0827 26.9167 16.7938 26.8771 16.5088 26.7981C16.2239 26.7163 15.9648 26.5935 15.7314 26.4298C15.5008 26.2661 15.3162 26.0573 15.1779 25.8032C15.0395 25.5492 14.9703 25.2487 14.9703 24.9015H16.1954C16.1954 25.0934 16.2239 25.2557 16.2809 25.3884C16.3379 25.521 16.4179 25.6283 16.521 25.7101C16.6269 25.792 16.7517 25.8512 16.8955 25.8879C17.042 25.9246 17.2021 25.943 17.3758 25.943C17.5875 25.943 17.7611 25.9119 17.8968 25.8498C18.0352 25.7877 18.1369 25.7016 18.2021 25.5916C18.2699 25.4815 18.3038 25.3573 18.3038 25.219Z" fill="white"/>
  <path d="M22.1746 26.832H20.8844L20.8925 25.8413H22.1746C22.4948 25.8413 22.7648 25.7666 22.9846 25.617C23.2044 25.4646 23.3699 25.243 23.4812 24.9523C23.5952 24.6616 23.6522 24.3102 23.6522 23.8982V23.5976C23.6522 23.2815 23.6196 23.0035 23.5545 22.7636C23.4921 22.5237 23.3984 22.3219 23.2736 22.1582C23.1488 21.9945 22.9955 21.8717 22.8137 21.7899C22.6319 21.7052 22.4229 21.6629 22.1869 21.6629H20.8599V20.668H22.1869C22.583 20.668 22.9453 20.7386 23.2736 20.8797C23.6047 21.018 23.8909 21.2169 24.1324 21.4766C24.3739 21.7363 24.5598 22.0467 24.6901 22.408C24.823 22.7664 24.8895 23.1658 24.8895 23.6061V23.8982C24.8895 24.3356 24.823 24.735 24.6901 25.0963C24.5598 25.4575 24.3739 25.768 24.1324 26.0276C23.8937 26.2845 23.6074 26.4834 23.2736 26.6245C22.9426 26.7628 22.5762 26.832 22.1746 26.832ZM21.5763 20.668V26.832H20.3552V20.668H21.5763Z" fill="white"/>
  <path d="M28.8621 25.219C28.8621 25.109 28.8458 25.0102 28.8132 24.9227C28.7834 24.8324 28.7264 24.7505 28.6423 24.6771C28.5582 24.6009 28.4401 24.5261 28.2882 24.4528C28.1362 24.3794 27.9395 24.3032 27.698 24.2241C27.4294 24.1338 27.1743 24.0322 26.9328 23.9193C26.694 23.8064 26.4823 23.6752 26.2978 23.5256C26.116 23.3732 25.9722 23.1968 25.8664 22.9964C25.7633 22.796 25.7117 22.5632 25.7117 22.2979C25.7117 22.0411 25.766 21.8082 25.8745 21.5994C25.9831 21.3877 26.135 21.2071 26.3304 21.0575C26.5258 20.9051 26.7564 20.7879 27.0223 20.7061C27.291 20.6243 27.5854 20.5833 27.9056 20.5833C28.3425 20.5833 28.7237 20.6652 29.0493 20.8289C29.3749 20.9926 29.6273 21.2169 29.8064 21.502C29.9882 21.7871 30.0791 22.113 30.0791 22.4799H28.8662C28.8662 22.2993 28.8295 22.1413 28.7563 22.0058C28.6857 21.8675 28.5772 21.7588 28.4306 21.6798C28.2868 21.6008 28.105 21.5613 27.8852 21.5613C27.6736 21.5613 27.4972 21.5951 27.3561 21.6629C27.215 21.7278 27.1092 21.8167 27.0386 21.9296C26.9681 22.0397 26.9328 22.1638 26.9328 22.3021C26.9328 22.4066 26.9572 22.5011 27.0061 22.5858C27.0576 22.6704 27.1336 22.7495 27.234 22.8229C27.3344 22.8962 27.4578 22.9654 27.6044 23.0303C27.7509 23.0952 27.9205 23.1587 28.1132 23.2208C28.4361 23.3224 28.7196 23.4367 28.9638 23.5637C29.2108 23.6907 29.417 23.8333 29.5825 23.9913C29.7481 24.1494 29.8729 24.3286 29.957 24.529C30.0411 24.7293 30.0832 24.9565 30.0832 25.2106C30.0832 25.4787 30.033 25.7186 29.9326 25.9303C29.8322 26.1419 29.687 26.3211 29.4971 26.4679C29.3071 26.6147 29.0805 26.7262 28.8173 26.8024C28.5541 26.8786 28.2597 26.9167 27.9341 26.9167C27.641 26.9167 27.352 26.8771 27.0671 26.7981C26.7822 26.7163 26.523 26.5935 26.2897 26.4298C26.059 26.2661 25.8745 26.0573 25.7361 25.8032C25.5977 25.5492 25.5285 25.2487 25.5285 24.9015H26.7537C26.7537 25.0934 26.7822 25.2557 26.8392 25.3884C26.8962 25.521 26.9762 25.6283 27.0793 25.7101C27.1851 25.792 27.31 25.8512 27.4538 25.8879C27.6003 25.9246 27.7604 25.943 27.9341 25.943C28.1457 25.943 28.3194 25.9119 28.4551 25.8498C28.5935 25.7877 28.6952 25.7016 28.7603 25.5916C28.8282 25.4815 28.8621 25.3573 28.8621 25.219Z" fill="white"/>
</svg>