<svg xmlns="http://www.w3.org/2000/svg" width="38" height="38" viewBox="0 0 38 38" fill="none">
  <path
    d="M32.4585 16.1342H27.8827C24.1302 16.1342 21.0743 13.0783 21.0743 9.32582V4.74999C21.0743 3.87916 20.3618 3.16666 19.491 3.16666H12.7777C7.901 3.16666 3.9585 6.33332 3.9585 11.9858V26.0142C3.9585 31.6667 7.901 34.8333 12.7777 34.8333H25.2227C30.0993 34.8333 34.0418 31.6667 34.0418 26.0142V17.7175C34.0418 16.8467 33.3293 16.1342 32.4585 16.1342Z"
    fill="#6E737D" />
  <path
    d="M25.0168 3.49916C24.3677 2.84999 23.2435 3.29332 23.2435 4.19582V9.72166C23.2435 12.0333 25.2068 13.9492 27.5977 13.9492C29.1018 13.965 31.1918 13.965 32.981 13.965C33.8835 13.965 34.3585 12.9042 33.7252 12.2708C31.4452 9.97499 27.3602 5.84249 25.0168 3.49916Z"
    fill="#6E737D" />
  <path xmlns="http://www.w3.org/2000/svg"
    d="m10 27v-7.531h3.2c0.792 0 1.42 0.216 1.894 0.658 0.474 0.432 0.711 1.018 0.711 1.747s-0.237 1.315-0.711 1.747c-0.474 0.442-1.102 0.658-1.894 0.658h-1.277v2.705zm1.924-4.345h1.059c0.288 0 0.514-0.062 0.669-0.208 0.154-0.135 0.237-0.322 0.237-0.571s-0.083-0.437-0.237-0.571c-0.155-0.146-0.381-0.208-0.669-0.208h-1.059zm4.673 4.345v-7.531h2.665c0.525 0 1.02 0.072 1.483 0.226 0.463 0.154 0.885 0.37 1.257 0.667 0.372 0.288 0.671 0.68 0.889 1.174 0.207 0.494 0.32 1.06 0.32 1.698 0 0.627-0.113 1.192-0.32 1.686-0.218 0.494-0.517 0.886-0.889 1.174-0.372 0.298-0.794 0.514-1.257 0.667-0.463 0.154-0.958 0.226-1.483 0.226zm1.884-1.641h0.556c0.298 0 0.575-0.031 0.832-0.104 0.246-0.072 0.482-0.186 0.711-0.341 0.218-0.155 0.395-0.372 0.519-0.658 0.124-0.287 0.187-0.627 0.187-1.02 0-0.402-0.062-0.742-0.187-1.028-0.124-0.287-0.301-0.504-0.519-0.658-0.229-0.155-0.465-0.268-0.711-0.341-0.257-0.072-0.534-0.104-0.832-0.104h-0.556zm5.905 1.641v-7.531h5.554v1.641h-3.559v1.207h2.841v1.631h-2.841v3.052z"
    fill="#fff" />

</svg>