<svg xmlns="http://www.w3.org/2000/svg" width="38" height="38" viewBox="0 0 38 38" fill="none">
  <path d="M32.0625 9.5H29.6875V5.9375C29.6875 4.99267 29.3122 4.08653 28.6441 3.41843C27.976 2.75033 27.0698 2.375 26.125 2.375H11.875C10.9302 2.375 10.024 2.75033 9.35593 3.41843C8.68783 4.08653 8.3125 4.99267 8.3125 5.9375V9.5H5.9375C4.99267 9.5 4.08653 9.87533 3.41843 10.5434C2.75033 11.2115 2.375 12.1177 2.375 13.0625V24.9375C2.375 25.8823 2.75033 26.7885 3.41843 27.4566C4.08653 28.1247 4.99267 28.5 5.9375 28.5H8.3125V32.0625C8.3125 33.0073 8.68783 33.9135 9.35593 34.5816C10.024 35.2497 10.9302 35.625 11.875 35.625H26.125C27.0698 35.625 27.976 35.2497 28.6441 34.5816C29.3122 33.9135 29.6875 33.0073 29.6875 32.0625V28.5H32.0625C33.0073 28.5 33.9135 28.1247 34.5816 27.4566C35.2497 26.7885 35.625 25.8823 35.625 24.9375V13.0625C35.625 12.1177 35.2497 11.2115 34.5816 10.5434C33.9135 9.87533 33.0073 9.5 32.0625 9.5ZM27.3125 32.0625C27.3125 32.3774 27.1874 32.6795 26.9647 32.9022C26.742 33.1249 26.4399 33.25 26.125 33.25H11.875C11.5601 33.25 11.258 33.1249 11.0353 32.9022C10.8126 32.6795 10.6875 32.3774 10.6875 32.0625V20.1875H27.3125V32.0625ZM27.3125 9.5H10.6875V5.9375C10.6875 5.62256 10.8126 5.32051 11.0353 5.09781C11.258 4.87511 11.5601 4.75 11.875 4.75H26.125C26.4399 4.75 26.742 4.87511 26.9647 5.09781C27.1874 5.32051 27.3125 5.62256 27.3125 5.9375V9.5Z" fill="#6E737D"/>
</svg>