<svg width="46" height="46" viewBox="0 0 46 46" fill="none" xmlns="http://www.w3.org/2000/svg">
<path id="Vector" d="M23.2981 11.9915C27.1981 11.9915 31.0971 11.9875 34.9971 11.9985C35.3131 11.9995 35.4171 11.9445 35.4111 11.6005C35.3881 10.1735 35.4071 8.7455 35.4001 7.3185C35.3881 4.9755 33.6701 3.24951 31.3311 3.24651C25.9741 3.24051 20.6181 3.24051 15.2611 3.24651C12.9241 3.24951 11.2041 4.9805 11.1941 7.3195C11.1881 8.7475 11.2061 10.1745 11.1831 11.6015C11.1771 11.9505 11.2871 11.9995 11.5991 11.9985C15.4991 11.9875 19.3981 11.9915 23.2981 11.9915ZM23.3021 28.7785C19.4161 28.7785 15.5311 28.7835 11.6451 28.7705C11.2971 28.7695 11.1811 28.8245 11.1821 29.2105C11.1991 33.3615 11.1921 37.5115 11.1931 41.6615C11.1931 42.6585 11.7161 43.1795 12.7171 43.1795C19.7671 43.1805 26.8171 43.1805 33.8671 43.1795C34.8901 43.1795 35.4011 42.6615 35.4011 41.6275C35.4021 37.4915 35.3961 33.3555 35.4111 29.2205C35.4121 28.8515 35.3241 28.7685 34.9591 28.7695C31.0731 28.7845 27.1871 28.7785 23.3021 28.7785ZM23.3171 14.6425C18.0021 14.6425 12.6871 14.6365 7.3721 14.6445C5.0811 14.6485 3.3401 16.3785 3.3321 18.6575C3.3211 22.1765 3.3191 25.6955 3.3351 29.2145C3.3411 30.6575 3.9841 31.7825 5.1891 32.5785C6.0811 33.1685 7.0851 33.2235 8.1131 33.2055C8.4381 33.1995 8.5621 33.1485 8.5521 32.7845C8.5231 31.7395 8.5421 30.6945 8.5421 29.6485C8.5421 28.8135 8.5421 28.8135 7.7321 28.7785C7.0411 28.7485 6.4901 28.2415 6.4261 27.5765C6.3621 26.9175 6.8191 26.2935 7.4881 26.1565C7.6721 26.1185 7.8681 26.1295 8.0591 26.1295C18.2181 26.1275 28.3771 26.1285 38.5361 26.1285C38.6691 26.1285 38.8021 26.1215 38.9341 26.1315C39.9561 26.2115 40.5131 27.3505 39.9391 28.1905C39.6611 28.5985 39.2621 28.7775 38.7711 28.7805C38.0521 28.7855 38.0521 28.7905 38.0521 29.5185V32.2565C38.0521 33.1965 38.0521 33.1965 39.0131 33.1965C41.5921 33.1945 43.2641 31.5245 43.2651 28.9465C43.2661 25.6045 43.2661 22.2625 43.2651 18.9205C43.2651 16.3075 41.6041 14.6425 38.9981 14.6425C33.7711 14.6415 28.5441 14.6425 23.3171 14.6425ZM0.678101 30.1925V17.6465C0.841101 17.5425 0.795102 17.3565 0.829102 17.2125C1.3171 15.1165 2.5421 13.6035 4.4501 12.6385C5.6261 12.0445 6.8961 11.9325 8.1881 11.9975C8.4791 12.0115 8.5521 11.9235 8.5491 11.6365C8.5341 10.1795 8.5381 8.7225 8.5431 7.2645C8.5561 3.5335 11.4771 0.602504 15.2091 0.596504C20.5971 0.587504 25.9851 0.587504 31.3741 0.596504C35.1101 0.602504 38.0341 3.52451 38.0511 7.25351C38.0571 8.40251 38.0451 9.55051 38.0561 10.6985C38.0601 11.1205 37.8721 11.6805 38.1331 11.9225C38.3581 12.1305 38.9131 11.9875 39.3221 11.9905C42.9701 12.0235 45.8981 14.9485 45.9131 18.6045C45.9271 22.1515 45.9441 25.7005 45.9061 29.2475C45.8791 31.7345 44.7401 33.6355 42.6261 34.9385C41.3511 35.7235 39.9351 35.9235 38.4691 35.8395C38.1151 35.8195 38.0411 35.9335 38.0441 36.2705C38.0601 38.1545 38.0651 40.0395 38.0461 41.9235C38.0291 43.5955 36.9461 45.0595 35.3771 45.6165C35.1511 45.6965 34.8941 45.6725 34.6951 45.8305H11.8111C11.7851 45.7405 11.7031 45.7505 11.6361 45.7305C9.5771 45.1055 8.5431 43.7145 8.5421 41.5715C8.5411 39.9835 8.5421 38.3955 8.5421 36.8075C8.5421 35.8475 8.5421 35.8475 7.6041 35.8465C7.4861 35.8465 7.3691 35.8475 7.2511 35.8465C4.2991 35.8165 1.7331 33.8485 0.924101 31.0095C0.846101 30.7365 0.868101 30.4315 0.678101 30.1925Z" fill="#010101"/>
</svg>
