<svg width="27" height="30" viewBox="0 0 27 30" fill="none" xmlns="http://www.w3.org/2000/svg">
<path d="M17.9024 22.3193C17.9125 23.8565 19.1574 25.0826 20.6965 25.0717C22.223 25.0608 23.4531 23.8207 23.4476 22.2983C23.4421 20.7758 22.2027 19.5451 20.6754 19.5451C19.1386 19.5443 17.8922 20.7914 17.9024 22.3193ZM17.9024 8.26708C17.911 9.79498 19.1441 11.0203 20.673 11.021C22.209 11.0226 23.4515 9.7802 23.4476 8.24841C23.4437 6.7174 22.1934 5.48512 20.6551 5.49445C19.1277 5.50457 17.8938 6.74696 17.9024 8.26708ZM11.0351 15.2827C11.0351 13.7618 9.79959 12.5233 8.27378 12.5139C6.74875 12.5046 5.48987 13.7579 5.48987 15.2842C5.49065 16.802 6.72846 18.0429 8.25271 18.053C9.78008 18.0623 11.0351 16.8121 11.0351 15.2827ZM21.1452 4C21.3208 4.09413 21.5214 4.08091 21.7079 4.12758C23.6396 4.61381 25.0077 6.39766 24.943 8.35577C24.8758 10.394 23.4179 12.1094 21.4285 12.4431C19.93 12.6944 18.6345 12.2611 17.5769 11.1681C17.4255 11.0117 17.328 11.0008 17.143 11.1074C15.5883 11.9982 14.0274 12.8788 12.4657 13.7579C12.3432 13.8271 12.2885 13.8793 12.3392 14.0411C12.6015 14.868 12.5984 15.702 12.34 16.5305C12.2955 16.6729 12.3236 16.7289 12.4493 16.7997C14.0438 17.6959 15.6351 18.596 17.2234 19.5039C17.3686 19.5871 17.4349 19.5443 17.5309 19.4416C18.4807 18.4279 19.6577 17.9798 21.0399 18.0662C22.7171 18.1712 24.31 19.4665 24.7666 21.0862C25.3925 23.3088 24.2647 25.5229 22.1029 26.3141C19.7935 27.1597 17.1703 25.789 16.553 23.4162C16.3461 22.6227 16.354 21.8331 16.6006 21.0512C16.6443 20.9135 16.6115 20.8614 16.4968 20.796C14.8968 19.8959 13.2984 18.9927 11.7039 18.0825C11.5681 18.0047 11.5072 18.0397 11.4151 18.1385C9.87607 19.7995 7.46288 20.0064 5.64518 18.638C3.6027 17.1 3.43334 13.9749 5.29787 12.2277C7.08748 10.5504 9.74652 10.6367 11.4175 12.4307C11.5127 12.5334 11.5759 12.556 11.707 12.4813C13.2953 11.575 14.8867 10.6733 16.4812 9.77865C16.6201 9.70085 16.6388 9.63473 16.5943 9.48925C15.856 7.05114 17.406 4.52746 19.9121 4.07157C19.9839 4.05835 20.0775 4.08557 20.1283 4H21.1452Z" fill="#1D1D1B"/>
</svg>
