<svg xmlns="http://www.w3.org/2000/svg" width="38" height="38" viewBox="0 0 38 38" fill="none">
  <path d="M32.4585 16.1342H27.8827C24.1302 16.1342 21.0743 13.0783 21.0743 9.32582V4.74999C21.0743 3.87916 20.3618 3.16666 19.491 3.16666H12.7777C7.901 3.16666 3.9585 6.33332 3.9585 11.9858V26.0142C3.9585 31.6667 7.901 34.8333 12.7777 34.8333H25.2227C30.0993 34.8333 34.0418 31.6667 34.0418 26.0142V17.7175C34.0418 16.8467 33.3293 16.1342 32.4585 16.1342Z" fill="#6E737D"/>
  <path d="M25.0168 3.49916C24.3677 2.84999 23.2435 3.29332 23.2435 4.19582V9.72166C23.2435 12.0333 25.2068 13.9492 27.5977 13.9492C29.1018 13.965 31.1918 13.965 32.981 13.965C33.8835 13.965 34.3585 12.9042 33.7252 12.2708C31.4452 9.97499 27.3602 5.84249 25.0168 3.49916Z" fill="#6E737D"/>
  <path d="M14.2088 20.668V26.832H12.946V20.668H14.2088ZM16.1008 20.668V21.6629H11.0835V20.668H16.1008Z" fill="white"/>
  <path d="M18.7109 26.832H17.3721L17.3805 25.8414H18.7109C19.0431 25.8414 19.3232 25.7666 19.5513 25.617C19.7794 25.4646 19.9511 25.243 20.0666 24.9523C20.1848 24.6616 20.2439 24.3102 20.2439 23.8982V23.5976C20.2439 23.2815 20.2102 23.0035 20.1426 22.7636C20.0778 22.5237 19.9807 22.3219 19.8512 22.1582C19.7217 21.9945 19.5626 21.8717 19.3739 21.7899C19.1853 21.7052 18.9685 21.6629 18.7235 21.6629H17.3467V20.668H18.7235C19.1346 20.668 19.5105 20.7386 19.8512 20.8797C20.1947 21.018 20.4917 21.217 20.7423 21.4766C20.9929 21.7363 21.1857 22.0467 21.3209 22.408C21.4589 22.7664 21.5278 23.1658 21.5278 23.6061V23.8982C21.5278 24.3356 21.4589 24.735 21.3209 25.0963C21.1857 25.4575 20.9929 25.768 20.7423 26.0276C20.4945 26.2845 20.1975 26.4834 19.8512 26.6246C19.5077 26.7629 19.1276 26.832 18.7109 26.832ZM18.09 20.668V26.832H16.823V20.668H18.09Z" fill="white"/>
  <path d="M25.6498 25.219C25.6498 25.109 25.6329 25.0102 25.5991 24.9227C25.5682 24.8324 25.509 24.7505 25.4218 24.6771C25.3345 24.6009 25.212 24.5262 25.0543 24.4528C24.8967 24.3794 24.6925 24.3032 24.4419 24.2242C24.1632 24.1338 23.8985 24.0322 23.648 23.9194C23.4002 23.8065 23.1806 23.6752 22.9891 23.5256C22.8005 23.3732 22.6512 23.1968 22.5414 22.9964C22.4344 22.7961 22.381 22.5632 22.381 22.2979C22.381 22.0411 22.4373 21.8082 22.5499 21.5994C22.6625 21.3877 22.8202 21.2071 23.0229 21.0575C23.2256 20.9051 23.4649 20.788 23.7409 20.7061C24.0196 20.6243 24.3251 20.5833 24.6573 20.5833C25.1106 20.5833 25.5062 20.6652 25.8441 20.8289C26.182 20.9926 26.4438 21.217 26.6296 21.502C26.8183 21.7871 26.9126 22.1131 26.9126 22.48H25.654C25.654 22.2993 25.616 22.1413 25.54 22.0058C25.4668 21.8675 25.3542 21.7588 25.2021 21.6798C25.0529 21.6008 24.8643 21.5613 24.6362 21.5613C24.4166 21.5613 24.2336 21.5952 24.0872 21.6629C23.9408 21.7278 23.831 21.8167 23.7578 21.9296C23.6846 22.0397 23.648 22.1639 23.648 22.3021C23.648 22.4066 23.6733 22.5011 23.724 22.5858C23.7775 22.6705 23.8563 22.7495 23.9605 22.8229C24.0647 22.8963 24.1928 22.9654 24.3448 23.0303C24.4969 23.0952 24.6728 23.1587 24.8727 23.2208C25.2078 23.3224 25.502 23.4367 25.7554 23.5637C26.0116 23.6907 26.2256 23.8333 26.3974 23.9913C26.5691 24.1494 26.6986 24.3286 26.7859 24.529C26.8732 24.7294 26.9168 24.9566 26.9168 25.2106C26.9168 25.4787 26.8647 25.7186 26.7606 25.9303C26.6564 26.1419 26.5058 26.3212 26.3087 26.4679C26.1116 26.6147 25.8765 26.7262 25.6034 26.8024C25.3303 26.8786 25.0248 26.9167 24.6869 26.9167C24.3828 26.9167 24.083 26.8772 23.7873 26.7981C23.4917 26.7163 23.2228 26.5935 22.9807 26.4298C22.7413 26.2661 22.5499 26.0573 22.4063 25.8033C22.2627 25.5493 22.1909 25.2487 22.1909 24.9015H23.4621C23.4621 25.0934 23.4917 25.2557 23.5508 25.3884C23.6099 25.521 23.693 25.6283 23.8 25.7101C23.9098 25.792 24.0393 25.8512 24.1885 25.8879C24.3406 25.9246 24.5067 25.943 24.6869 25.943C24.9065 25.943 25.0867 25.9119 25.2275 25.8498C25.3711 25.7877 25.4767 25.7017 25.5442 25.5916C25.6146 25.4815 25.6498 25.3573 25.6498 25.219Z" fill="white"/>
</svg>