<svg width="44" height="46" viewBox="0 0 44 46" fill="none" xmlns="http://www.w3.org/2000/svg">
<g clip-path="url(#clip0_17_11)">
<path d="M4.19461 10.9226C5.97361 10.9226 7.72461 10.9246 9.47561 10.9216C10.3256 10.9206 10.6736 10.5676 10.6756 9.70264C10.6786 8.06464 10.6776 6.42764 10.6726 4.78964C10.6726 4.67464 10.7406 4.53264 10.6476 4.46964C8.49861 6.61864 6.36061 8.75664 4.19461 10.9226ZM24.6436 36.3596C29.8716 36.3596 35.0986 36.3596 40.3266 36.3586C41.2786 36.3586 41.6226 36.0196 41.6226 35.0746C41.6246 30.6106 41.6246 26.1466 41.6226 21.6826C41.6226 20.7566 41.2546 20.3926 40.3216 20.3916C29.8836 20.3916 19.4446 20.3916 9.00561 20.3916C8.02761 20.3916 7.69461 20.7266 7.69361 21.7126C7.69261 26.1596 7.69261 30.6076 7.69361 35.0556C7.69461 36.0416 8.01761 36.3596 9.00961 36.3596C14.2206 36.3596 19.4326 36.3596 24.6436 36.3596ZM2.69461 28.0146C2.69461 32.8686 2.69361 37.7226 2.69561 42.5766C2.69561 43.4656 3.06161 43.8496 3.91161 43.8496C12.7596 43.8516 21.6086 43.8516 30.4566 43.8496C31.2536 43.8496 31.6236 43.4816 31.6276 42.6926C31.6336 41.4266 31.6036 40.1596 31.6426 38.8946C31.6566 38.4236 31.4946 38.3566 31.0776 38.3576C23.7066 38.3696 16.3346 38.3676 8.96361 38.3656C6.93561 38.3646 5.69461 37.1156 5.69361 35.0846C5.69261 30.6526 5.74161 26.2196 5.67161 21.7886C5.64061 19.8096 7.05461 18.3736 9.04961 18.3896C16.4036 18.4466 23.7586 18.4076 31.1136 18.4236C31.5486 18.4246 31.6416 18.3146 31.6396 17.8916C31.6226 13.3296 31.6296 8.76764 31.6286 4.20564C31.6286 3.27764 31.2926 2.93764 30.3746 2.93764C24.6266 2.93664 18.8796 2.94064 13.1316 2.92864C12.7706 2.92764 12.6756 3.00964 12.6786 3.37764C12.6986 5.47164 12.6906 7.56564 12.6876 9.65964C12.6846 11.6636 11.4436 12.9096 9.44261 12.9136C7.41261 12.9176 5.38361 12.9126 3.35361 12.9156C2.60161 12.9176 2.69561 12.8286 2.69561 13.5486C2.69361 18.3706 2.69461 23.1926 2.69461 28.0146ZM0.712609 27.4956C0.712609 22.4146 0.717609 17.3336 0.704609 12.2526C0.702609 11.7426 0.853609 11.3616 1.21461 11.0026C4.40261 7.83164 7.58361 4.65164 10.7546 1.46364C11.1126 1.10464 11.4906 0.942642 12.0016 0.943642C18.1216 0.956642 24.2426 0.950641 30.3636 0.952641C32.4046 0.953641 33.6406 2.18564 33.6416 4.21864C33.6426 8.78064 33.6496 13.3416 33.6296 17.9036C33.6276 18.3516 33.7576 18.4266 34.1686 18.4226C36.2466 18.4006 38.3246 18.4096 40.4026 18.4126C42.3616 18.4156 43.6026 19.6456 43.6036 21.5926C43.6076 26.1216 43.6076 30.6506 43.6036 35.1796C43.6026 37.0916 42.3526 38.3536 40.4416 38.3636C38.3146 38.3746 36.1876 38.3746 34.0616 38.3576C33.7216 38.3556 33.6276 38.4396 33.6336 38.7826C33.6546 40.0646 33.6446 41.3476 33.6406 42.6296C33.6356 44.5716 32.3886 45.8326 30.4486 45.8336C21.6006 45.8386 12.7516 45.8386 3.90361 45.8346C1.94861 45.8336 0.714609 44.5936 0.713609 42.6416C0.710609 37.5936 0.712609 32.5446 0.712609 27.4956Z" fill="#1D1D1B"/>
<path d="M4.19461 10.9226C5.97361 10.9226 7.72461 10.9246 9.47561 10.9216C10.3256 10.9206 10.6736 10.5676 10.6756 9.70264C10.6786 8.06464 10.6776 6.42764 10.6726 4.78964C10.6726 4.67464 10.7406 4.53264 10.6476 4.46964C8.49861 6.61864 6.36061 8.75664 4.19461 10.9226ZM24.6436 36.3596C29.8716 36.3596 35.0986 36.3596 40.3266 36.3586C41.2786 36.3586 41.6226 36.0196 41.6226 35.0746C41.6246 30.6106 41.6246 26.1466 41.6226 21.6826C41.6226 20.7566 41.2546 20.3926 40.3216 20.3916C29.8836 20.3916 19.4446 20.3916 9.00561 20.3916C8.02761 20.3916 7.69461 20.7266 7.69361 21.7126C7.69261 26.1596 7.69261 30.6076 7.69361 35.0556C7.69461 36.0416 8.01761 36.3596 9.00961 36.3596C14.2206 36.3596 19.4326 36.3596 24.6436 36.3596ZM2.69461 28.0146C2.69461 32.8686 2.69361 37.7226 2.69561 42.5766C2.69561 43.4656 3.06161 43.8496 3.91161 43.8496C12.7596 43.8516 21.6086 43.8516 30.4566 43.8496C31.2536 43.8496 31.6236 43.4816 31.6276 42.6926C31.6336 41.4266 31.6036 40.1596 31.6426 38.8946C31.6566 38.4236 31.4946 38.3566 31.0776 38.3576C23.7066 38.3696 16.3346 38.3676 8.96361 38.3656C6.93561 38.3646 5.69461 37.1156 5.69361 35.0846C5.69261 30.6526 5.74161 26.2196 5.67161 21.7886C5.64061 19.8096 7.05461 18.3736 9.04961 18.3896C16.4036 18.4466 23.7586 18.4076 31.1136 18.4236C31.5486 18.4246 31.6416 18.3146 31.6396 17.8916C31.6226 13.3296 31.6296 8.76764 31.6286 4.20564C31.6286 3.27764 31.2926 2.93764 30.3746 2.93764C24.6266 2.93664 18.8796 2.94064 13.1316 2.92864C12.7706 2.92764 12.6756 3.00964 12.6786 3.37764C12.6986 5.47164 12.6906 7.56564 12.6876 9.65964C12.6846 11.6636 11.4436 12.9096 9.44261 12.9136C7.41261 12.9176 5.38361 12.9126 3.35361 12.9156C2.60161 12.9176 2.69561 12.8286 2.69561 13.5486C2.69361 18.3706 2.69461 23.1926 2.69461 28.0146ZM0.712609 27.4956C0.712609 22.4146 0.717609 17.3336 0.704609 12.2526C0.702609 11.7426 0.853609 11.3616 1.21461 11.0026C4.40261 7.83164 7.58361 4.65164 10.7546 1.46364C11.1126 1.10464 11.4906 0.942642 12.0016 0.943642C18.1216 0.956642 24.2426 0.950641 30.3636 0.952641C32.4046 0.953641 33.6406 2.18564 33.6416 4.21864C33.6426 8.78064 33.6496 13.3416 33.6296 17.9036C33.6276 18.3516 33.7576 18.4266 34.1686 18.4226C36.2466 18.4006 38.3246 18.4096 40.4026 18.4126C42.3616 18.4156 43.6026 19.6456 43.6036 21.5926C43.6076 26.1216 43.6076 30.6506 43.6036 35.1796C43.6026 37.0916 42.3526 38.3536 40.4416 38.3636C38.3146 38.3746 36.1876 38.3746 34.0616 38.3576C33.7216 38.3556 33.6276 38.4396 33.6336 38.7826C33.6546 40.0646 33.6446 41.3476 33.6406 42.6296C33.6356 44.5716 32.3886 45.8326 30.4486 45.8336C21.6006 45.8386 12.7516 45.8386 3.90361 45.8346C1.94861 45.8336 0.714609 44.5936 0.713609 42.6416C0.710609 37.5936 0.712609 32.5446 0.712609 27.4956Z" stroke="#1D1D1B" stroke-width="0.196" stroke-miterlimit="10"/>
<path d="M22.1836 10.9231C23.9846 10.9231 25.7866 10.9221 27.5876 10.9241C28.0786 10.9251 28.4366 11.1481 28.5856 11.6211C28.7266 12.0691 28.5866 12.4511 28.2076 12.7361C28.0166 12.8811 27.7916 12.9121 27.5626 12.9121C23.9596 12.9131 20.3566 12.9171 16.7536 12.9091C16.0976 12.9071 15.6716 12.4851 15.6796 11.9061C15.6886 11.3271 16.1246 10.9271 16.7796 10.9251C18.5806 10.9191 20.3826 10.9231 22.1836 10.9231Z" fill="#1D1D1B"/>
<path d="M22.1836 10.9231C23.9846 10.9231 25.7866 10.9221 27.5876 10.9241C28.0786 10.9251 28.4366 11.1481 28.5856 11.6211C28.7266 12.0691 28.5866 12.4511 28.2076 12.7361C28.0166 12.8811 27.7916 12.9121 27.5626 12.9121C23.9596 12.9131 20.3566 12.9171 16.7536 12.9091C16.0976 12.9071 15.6716 12.4851 15.6796 11.9061C15.6886 11.3271 16.1246 10.9271 16.7796 10.9251C18.5806 10.9191 20.3826 10.9231 22.1836 10.9231Z" stroke="#1D1D1B" stroke-width="0.196" stroke-miterlimit="10"/>
<path d="M9.57954 25.2102V24.2727H16.125V25.2102H13.3807V33H12.3239V25.2102H9.57954Z" fill="#1D1D1B"/>
<path d="M20.4492 33H17.756V24.2727H20.5685C21.4151 24.2727 22.1396 24.4474 22.7418 24.7969C23.3441 25.1435 23.8058 25.642 24.1268 26.2926C24.4478 26.9403 24.6083 27.7159 24.6083 28.6193C24.6083 29.5284 24.4464 30.3111 24.1225 30.9673C23.7986 31.6207 23.3271 32.1236 22.7077 32.4759C22.0884 32.8253 21.3356 33 20.4492 33ZM18.8129 32.0625H20.381C21.1026 32.0625 21.7006 31.9233 22.1751 31.6449C22.6495 31.3665 23.0032 30.9702 23.2361 30.456C23.4691 29.9418 23.5856 29.3295 23.5856 28.6193C23.5856 27.9148 23.4705 27.3082 23.2404 26.7997C23.0103 26.2884 22.6665 25.8963 22.2092 25.6236C21.7518 25.348 21.1822 25.2102 20.5004 25.2102H18.8129V32.0625Z" fill="#1D1D1B"/>
<path d="M31.1538 26.4545C31.1026 26.0227 30.8952 25.6875 30.5316 25.4489C30.168 25.2102 29.7219 25.0909 29.1935 25.0909C28.8072 25.0909 28.4691 25.1534 28.1793 25.2784C27.8924 25.4034 27.668 25.5753 27.506 25.794C27.3469 26.0128 27.2674 26.2614 27.2674 26.5398C27.2674 26.7727 27.3228 26.973 27.4336 27.1406C27.5472 27.3054 27.6921 27.4432 27.8683 27.554C28.0444 27.6619 28.229 27.7514 28.4222 27.8224C28.6154 27.8906 28.793 27.946 28.9549 27.9886L29.8413 28.2273C30.0685 28.2869 30.3214 28.3693 30.5998 28.4744C30.881 28.5795 31.1495 28.723 31.4052 28.9048C31.6637 29.0838 31.8768 29.3139 32.0444 29.5952C32.212 29.8764 32.2958 30.2216 32.2958 30.6307C32.2958 31.1023 32.1722 31.5284 31.9251 31.9091C31.6808 32.2898 31.3228 32.5923 30.8512 32.8168C30.3825 33.0412 29.8129 33.1534 29.1424 33.1534C28.5174 33.1534 27.9762 33.0526 27.5188 32.8509C27.0643 32.6491 26.7063 32.3679 26.445 32.0071C26.1864 31.6463 26.0401 31.2273 26.006 30.75H27.0969C27.1254 31.0795 27.2361 31.3523 27.4293 31.5682C27.6254 31.7812 27.8725 31.9403 28.1708 32.0455C28.4719 32.1477 28.7958 32.1989 29.1424 32.1989C29.5458 32.1989 29.908 32.1335 30.229 32.0028C30.5501 31.8693 30.8043 31.6847 30.9918 31.4489C31.1793 31.2102 31.2731 30.9318 31.2731 30.6136C31.2731 30.3239 31.1921 30.0881 31.0302 29.9062C30.8683 29.7244 30.6552 29.5767 30.391 29.4631C30.1268 29.3494 29.8413 29.25 29.5344 29.1648L28.4606 28.858C27.7788 28.6619 27.239 28.3821 26.8413 28.0185C26.4435 27.6548 26.2447 27.179 26.2447 26.5909C26.2447 26.1023 26.3768 25.6761 26.641 25.3125C26.908 24.946 27.266 24.6619 27.7148 24.4602C28.1665 24.2557 28.6708 24.1534 29.2276 24.1534C29.7901 24.1534 30.2901 24.2543 30.7276 24.456C31.1651 24.6548 31.5117 24.9276 31.7674 25.2741C32.0259 25.6207 32.1623 26.0142 32.1765 26.4545H31.1538Z" fill="#1D1D1B"/>
</g>
<defs>
<clipPath id="clip0_17_11">
<rect width="44" height="46" fill="white"/>
</clipPath>
</defs>
</svg>
