<svg width="43" height="44" viewBox="0 0 43 44" fill="none" xmlns="http://www.w3.org/2000/svg">
<g id="Group">
<path id="Vector" d="M18.8759 27.2143C21.6749 25.5003 24.4099 23.8253 27.1559 22.1443C27.0949 22.0743 27.0789 22.0463 27.0549 22.0313C24.4329 20.3813 21.8089 18.7343 19.1909 17.0783C18.8019 16.8323 18.8759 17.1103 18.8759 17.3223C18.8759 20.1923 18.8759 23.0623 18.8759 25.9333V27.2143ZM17.4759 12.9463C17.7839 12.9393 18.0529 13.0513 18.3079 13.2123C22.3799 15.7733 26.4559 18.3283 30.5219 20.8983C31.5389 21.5403 31.5379 22.7483 30.5139 23.3783C26.4449 25.8833 22.3689 28.3773 18.2869 30.8613C17.2139 31.5143 16.0729 30.8643 16.0699 29.6013C16.0599 24.5473 16.0629 19.4933 16.0699 14.4393C16.0709 13.5673 16.6769 12.9483 17.4759 12.9463Z" fill="#020202"/>
<path id="Vector_2" d="M18.8759 27.2143C21.6749 25.5003 24.4099 23.8253 27.1559 22.1443C27.0949 22.0743 27.0789 22.0463 27.0549 22.0313C24.4329 20.3813 21.8089 18.7343 19.1909 17.0783C18.8019 16.8323 18.8759 17.1103 18.8759 17.3223C18.8759 20.1923 18.8759 23.0623 18.8759 25.9333V27.2143ZM17.4759 12.9463C17.7839 12.9393 18.0529 13.0513 18.3079 13.2123C22.3799 15.7733 26.4559 18.3283 30.5219 20.8983C31.5389 21.5403 31.5379 22.7483 30.5139 23.3783C26.4449 25.8833 22.3689 28.3773 18.2869 30.8613C17.2139 31.5143 16.0729 30.8643 16.0699 29.6013C16.0599 24.5473 16.0629 19.4933 16.0699 14.4393C16.0709 13.5673 16.6769 12.9483 17.4759 12.9463Z" stroke="white" stroke-width="0.357" stroke-miterlimit="10"/>
<path id="Vector_3" d="M41.5156 22.0326C41.5156 33.1746 32.4836 42.2066 21.3416 42.2066C10.2006 42.2066 1.16858 33.1746 1.16858 22.0326C1.16858 10.8906 10.2006 1.85857 21.3416 1.85857C32.4836 1.85857 41.5156 10.8906 41.5156 22.0326Z" stroke="#1D1D1B" stroke-width="2.089" stroke-miterlimit="10"/>
</g>
</svg>
