<svg xmlns="http://www.w3.org/2000/svg" width="24" height="24" viewBox="0 0 24 24" fill="none">
  <path fill-rule="evenodd" clip-rule="evenodd" d="M2.25 11.55C2.25 6.41375 6.41375 2.25 11.55 2.25C16.6862 2.25 20.85 6.41375 20.85 11.55C20.85 13.8481 20.0164 15.9516 18.6351 17.5745L21.5303 20.4697C21.8232 20.7626 21.8232 21.2374 21.5303 21.5303C21.2374 21.8232 20.7626 21.8232 20.4697 21.5303L17.5745 18.6351C15.9516 20.0164 13.8481 20.85 11.55 20.85C6.41375 20.85 2.25 16.6862 2.25 11.55ZM11.55 3.75C7.24218 3.75 3.75 7.24218 3.75 11.55C3.75 15.8578 7.24218 19.35 11.55 19.35C15.8578 19.35 19.35 15.8578 19.35 11.55C19.35 7.24218 15.8578 3.75 11.55 3.75Z" fill="#29210A"/>
</svg>