<svg xmlns="http://www.w3.org/2000/svg" width="129" height="32" viewBox="0 0 129 32" fill="none">
  <g clip-path="url(#clip0_319_632)">
    <path d="M43.648 22.7556C42.0197 22.7556 40.5344 22.2781 40.2487 22.1657C40.1535 22.1096 40.0201 22.0347 40.0772 21.9036L40.2867 20.9299C40.325 20.7988 40.401 20.7239 40.4961 20.7239C40.5344 20.7239 40.5724 20.7239 40.6296 20.7426C40.839 20.7988 42.1149 21.2201 43.5149 21.2201C44.7716 21.2201 45.6001 20.8362 45.6001 19.8531C45.6001 18.5985 44.6956 18.6734 43.4195 18.4113C42.0864 18.2053 40.1724 17.8589 40.1724 15.5369C40.1724 13.009 42.4578 12.5876 44.1148 12.5876C45.6953 12.5876 46.876 12.9154 47.1521 12.9903C47.3047 13.0277 47.3807 13.1213 47.3616 13.2712L47.1904 14.2636C47.1713 14.3947 47.0761 14.4509 46.9238 14.4321C46.6952 14.3947 45.4002 14.1231 44.3718 14.1231C43.3243 14.1231 42.2863 14.3853 42.2863 15.3965C42.2863 16.4451 43.3147 16.5949 44.467 16.7447C46.0286 16.9881 47.714 17.2409 47.714 19.6752C47.7236 22.0721 45.8476 22.7556 43.648 22.7556Z" fill="white"/>
    <path d="M65.5683 22.2405C65.5683 22.4278 65.4731 22.5214 65.2825 22.5214H63.7401C63.5306 22.5214 63.4352 22.4278 63.4352 22.2405V15.6211C63.4352 14.4601 62.9878 14.1043 61.8545 14.1043C60.6166 14.1043 59.3788 14.432 59.0741 14.4882V22.2405C59.0741 22.4278 58.979 22.5214 58.7884 22.5214H57.2268C57.0365 22.5214 56.9411 22.4278 56.9411 22.2405V15.6211C56.9411 14.4601 56.5126 14.1043 55.3795 14.1043C54.1608 14.1043 52.8658 14.432 52.5609 14.4882V22.2405C52.5609 22.4278 52.4657 22.5214 52.2754 22.5214H50.7138C50.5041 22.5214 50.4089 22.4278 50.4089 22.2405V14.4039C50.4089 13.7204 50.6755 13.4115 51.6659 13.1119C52.6085 12.8123 54.3511 12.5969 55.5318 12.5969C56.7316 12.5969 57.541 12.8404 58.0649 13.2617C58.798 12.9621 60.6549 12.5969 62.045 12.5969C64.3304 12.5969 65.5111 13.2242 65.5111 15.3496V22.2405H65.5683Z" fill="white"/>
    <path d="M76.9566 20.5741C76.9566 21.9223 76.5853 22.1938 75.2903 22.4934C74.6712 22.6432 73.8047 22.7556 72.7575 22.7556C70.8817 22.7556 68.3105 22.6245 68.3105 19.6565C68.3105 17.2409 69.777 17.0537 71.4244 16.7634L74.8427 16.211V15.5276C74.8427 14.9564 74.8047 14.5726 74.2619 14.3478C73.9573 14.2168 73.4525 14.1606 72.7194 14.1606C71.3673 14.1606 70.0532 14.5258 69.4341 14.6755C69.377 14.6943 69.3198 14.6943 69.3009 14.6943C69.2247 14.6943 69.1295 14.6568 69.0723 14.5258L68.8438 13.5146C68.7866 13.3086 68.92 13.2524 69.0532 13.1962C69.5771 13.0277 71.253 12.5876 73.0908 12.5876C74.4429 12.5876 75.3094 12.7749 75.8902 13.0839C76.8615 13.6176 76.9566 14.4883 76.9566 15.462V20.5741ZM71.9861 18.121C71.2147 18.2708 70.4816 18.3457 70.4816 19.6191C70.4816 21.1826 71.8146 21.3137 72.805 21.3137C73.5764 21.3137 74.2523 21.2201 74.8331 21.0141V17.6529L71.9861 18.121Z" fill="white"/>
    <path d="M79.699 14.376C79.699 13.6176 80.0323 13.4023 80.8417 13.1214C81.6511 12.8405 82.9843 12.6252 84.5364 12.6064C84.765 12.6064 84.9648 12.6439 84.9648 12.9248V13.9734C84.9648 14.1232 84.9268 14.2543 84.6982 14.2543C83.5175 14.2543 82.5559 14.3479 81.8321 14.5539V22.2501C81.8321 22.4373 81.7369 22.5309 81.5463 22.5309H79.9752C79.7849 22.5309 79.6897 22.4373 79.6897 22.2501V14.376H79.699Z" fill="white"/>
    <path d="M93.249 21.9786C93.3061 22.222 93.211 22.3063 93.0584 22.3624C92.7062 22.4935 91.916 22.6901 90.735 22.6901C88.7069 22.6901 87.7166 21.913 87.7166 19.9188V10.1815C87.7166 10.013 87.812 9.90064 88.0214 9.87256L89.5448 9.55423C89.7733 9.49805 89.8685 9.66659 89.8685 9.8351V12.8218H92.7254C92.9157 12.8218 93.0108 12.9154 93.0108 13.1027V14.1139C93.0108 14.3011 92.9157 14.3947 92.7254 14.3947H89.8685V19.9468C89.8685 20.8363 90.2781 21.1453 91.2589 21.1453C91.8397 21.1453 92.4396 21.0142 92.8014 20.9393C92.9537 20.9018 93.0491 20.958 93.0871 21.1265L93.249 21.9786Z" fill="white"/>
    <path d="M100.27 22.7557C98.8607 22.7557 97.6225 22.531 96.9466 22.3343C95.9754 22.0347 95.9182 21.5385 95.9182 20.7988V9.27333C95.9182 9.08608 96.0134 8.97372 96.204 8.94564L97.7464 8.64603C97.975 8.58985 98.0702 8.75838 98.0702 8.92692V11.9885L98.0606 13.0184C98.3655 12.9248 99.6129 12.5971 100.794 12.5971C103.812 12.5971 104.831 14.0389 104.831 17.5968C104.802 21.1453 103.888 22.7557 100.27 22.7557ZM100.356 14.1232C99.489 14.1232 98.3083 14.4228 98.0513 14.4696V21.0048C98.2225 21.061 99.0225 21.267 100.137 21.267C102.012 21.267 102.631 20.4899 102.631 17.653C102.631 14.8348 102.165 14.1232 100.356 14.1232Z" fill="white"/>
    <path d="M116.572 17.9338C116.572 18.1023 116.572 18.2521 116.552 18.3738C116.552 18.5424 116.438 18.7202 116.238 18.7202H109.706C109.725 19.6284 109.954 20.1434 110.401 20.5647C110.925 21.0609 111.696 21.2294 112.82 21.2294C113.886 21.2294 114.696 21.0048 115.505 20.7894C115.543 20.7707 115.581 20.7707 115.638 20.7707C115.772 20.7707 115.829 20.7707 115.886 20.9767L116.076 21.8099C116.096 21.8661 116.096 21.9036 116.096 21.9223C116.096 22.0347 116.019 22.1283 115.886 22.1844C115.191 22.4653 113.953 22.7556 112.544 22.7556C108.868 22.7556 107.554 21.2201 107.554 17.6997C107.554 14.3759 108.402 12.5876 112.096 12.5876C114.029 12.5876 115.153 13.1026 115.829 14.067C116.41 14.9003 116.581 16.0425 116.581 17.4937V17.9338H116.572ZM114.41 17.269C114.41 16.623 114.391 16.0893 114.239 15.5182C113.953 14.4134 113.353 14.0763 112.077 14.0763C110.706 14.0763 110.106 14.4415 109.858 15.4808C109.706 16.0519 109.706 16.6604 109.687 17.269H114.41Z" fill="white"/>
    <path d="M128.341 17.9338C128.341 18.1023 128.341 18.2521 128.322 18.3738C128.322 18.5424 128.208 18.7202 128.008 18.7202H121.475C121.495 19.6284 121.723 20.1434 122.171 20.5647C122.694 21.0609 123.466 21.2294 124.589 21.2294C125.656 21.2294 126.465 21.0048 127.274 20.7894C127.312 20.7707 127.351 20.7707 127.408 20.7707C127.541 20.7707 127.598 20.7707 127.655 20.9767L127.846 21.8099C127.865 21.8661 127.865 21.9036 127.865 21.9223C127.865 22.0347 127.789 22.1283 127.655 22.1844C126.96 22.4653 125.722 22.7556 124.313 22.7556C120.638 22.7556 119.323 21.2201 119.323 17.6997C119.323 14.3759 120.171 12.5876 123.866 12.5876C125.798 12.5876 126.922 13.1026 127.598 14.067C128.179 14.9003 128.35 16.0425 128.35 17.4937V17.9338H128.341ZM126.179 17.269C126.179 16.623 126.161 16.0893 126.008 15.5182C125.722 14.4134 125.123 14.0763 123.847 14.0763C122.475 14.0763 121.875 14.4415 121.628 15.4808C121.475 16.0519 121.475 16.6604 121.457 17.269H126.179Z" fill="white"/>
    <path d="M4.79858 14.6477H13.3957L17.6943 21.9683L13.3957 29.289H4.79858L0.5 21.9683L4.79858 14.6477Z" fill="url(#paint0_linear_319_632)"/>
    <path d="M9.09713 21.9683L4.79858 29.289L0.5 21.9683L4.79858 14.6477L9.09713 21.9683Z" fill="url(#paint1_linear_319_632)"/>
    <path d="M34.8886 7.32696H26.2915L21.9929 0H30.5901L34.8886 7.32696Z" fill="url(#paint2_linear_319_632)"/>
    <path d="M9.09713 7.3269H17.6943L21.9928 14.6475L17.6943 21.9682H9.09713L4.79858 14.6475L9.09713 7.3269Z" fill="url(#paint3_linear_319_632)"/>
    <path d="M13.3957 14.6475L9.09713 21.9682L4.79858 14.6475L9.09713 7.3269L13.3957 14.6475Z" fill="url(#paint4_linear_319_632)"/>
    <path d="M17.6943 7.3269H26.2915L30.5901 14.6475L26.2915 21.9682H17.6943L13.3958 14.6475L17.6943 7.3269Z" fill="url(#paint5_linear_319_632)"/>
    <path d="M20.828 26.8274H23.7237L25.1716 29.2952L23.7237 31.7628H20.828L19.3801 29.2952L20.828 26.8274Z" fill="url(#paint6_linear_319_632)"/>
    <path d="M9.09713 7.3269L4.79858 14.6475L0.5 21.9681L4.79858 29.2888L9.09713 21.9681L13.3957 14.6475L9.09713 7.3269Z" fill="url(#paint7_linear_319_632)"/>
    <path d="M34.8886 7.32696H26.2915L21.9929 0H30.5901L34.8886 7.32696Z" fill="url(#paint8_linear_319_632)"/>
    <path d="M34.8886 7.32696H26.2915L21.9929 0H30.5901L34.8886 7.32696Z" fill="url(#paint9_linear_319_632)"/>
    <path d="M34.8886 7.3269L30.5901 14.6475H21.9929V14.6412L26.2915 7.3269H34.8886Z" fill="url(#paint10_linear_319_632)"/>
    <path d="M26.2915 7.32696L21.9929 14.6412L17.6943 7.32696L21.9929 0L26.2915 7.32696Z" fill="url(#paint11_linear_319_632)"/>
  </g>
  <defs>
    <linearGradient id="paint0_linear_319_632" x1="9.09707" y1="29.2875" x2="9.09707" y2="14.6463" gradientUnits="userSpaceOnUse">
      <stop stop-color="#F04B23"/>
      <stop offset="1" stop-color="#FFC908"/>
    </linearGradient>
    <linearGradient id="paint1_linear_319_632" x1="0.501371" y1="21.9683" x2="9.09508" y2="21.9683" gradientUnits="userSpaceOnUse">
      <stop stop-color="#F04B23"/>
      <stop offset="1" stop-color="#FFC908"/>
    </linearGradient>
    <linearGradient id="paint2_linear_319_632" x1="21.9949" y1="3.66529" x2="34.8886" y2="3.66529" gradientUnits="userSpaceOnUse">
      <stop stop-color="#F04B23"/>
      <stop offset="1" stop-color="#FFC908"/>
    </linearGradient>
    <linearGradient id="paint3_linear_319_632" x1="13.3956" y1="21.9667" x2="13.3956" y2="7.32558" gradientUnits="userSpaceOnUse">
      <stop stop-color="#F04B23"/>
      <stop offset="1" stop-color="#FFC908"/>
    </linearGradient>
    <linearGradient id="paint4_linear_319_632" x1="4.80132" y1="14.6481" x2="13.395" y2="14.6481" gradientUnits="userSpaceOnUse">
      <stop stop-color="#F04B23"/>
      <stop offset="1" stop-color="#FFC908"/>
    </linearGradient>
    <linearGradient id="paint5_linear_319_632" x1="21.9926" y1="21.9667" x2="21.9926" y2="7.32558" gradientUnits="userSpaceOnUse">
      <stop stop-color="#F04B23"/>
      <stop offset="1" stop-color="#FFC908"/>
    </linearGradient>
    <linearGradient id="paint6_linear_319_632" x1="22.2767" y1="31.7597" x2="22.2767" y2="26.8254" gradientUnits="userSpaceOnUse">
      <stop stop-color="#F04B23"/>
      <stop offset="1" stop-color="#FFC908"/>
    </linearGradient>
    <linearGradient id="paint7_linear_319_632" x1="0.501371" y1="18.3081" x2="13.395" y2="18.3081" gradientUnits="userSpaceOnUse">
      <stop stop-color="#F04B23"/>
      <stop offset="1" stop-color="#FFC908"/>
    </linearGradient>
    <linearGradient id="paint8_linear_319_632" x1="21.9949" y1="3.66529" x2="34.8886" y2="3.66529" gradientUnits="userSpaceOnUse">
      <stop stop-color="#F04B23"/>
      <stop offset="1" stop-color="#FFC908"/>
    </linearGradient>
    <linearGradient id="paint9_linear_319_632" x1="21.9949" y1="3.66529" x2="34.8886" y2="3.66529" gradientUnits="userSpaceOnUse">
      <stop stop-color="#F04B23"/>
      <stop offset="1" stop-color="#FFC908"/>
    </linearGradient>
    <linearGradient id="paint10_linear_319_632" x1="28.4418" y1="14.6481" x2="28.4418" y2="7.32822" gradientUnits="userSpaceOnUse">
      <stop stop-color="#F04B23"/>
      <stop offset="1" stop-color="#FFC908"/>
    </linearGradient>
    <linearGradient id="paint11_linear_319_632" x1="21.9918" y1="14.6421" x2="21.9918" y2="0.00229669" gradientUnits="userSpaceOnUse">
      <stop stop-color="#F04B23"/>
      <stop offset="1" stop-color="#FFC908"/>
    </linearGradient>
    <clipPath id="clip0_319_632">
      <rect width="128" height="32" fill="white" transform="translate(0.5)"/>
    </clipPath>
  </defs>
</svg>