<svg xmlns="http://www.w3.org/2000/svg" width="24" height="24" viewBox="0 0 24 24">
  <g id="Phone" transform="translate(-1027.83 -500.83)">
    <rect id="Rectangle_1849" data-name="Rectangle 1849" width="24" height="24" transform="translate(1027.83 500.83)" fill="none"/>
    <g id="Layer_x0020_1" transform="translate(996.679 503.027)">
      <path id="Path_7055" data-name="Path 7055" d="M50.367,12.03a2.468,2.468,0,0,0-.937.247,5.651,5.651,0,0,0-2.145,1.886c-1.12,1.565-.5,5.276,1.531,9.234a20.842,20.842,0,0,0,3.6,5.1c1.419,1.417,2.8,2.166,4,2.166h0c.071,0,.143,0,.213-.008a5.751,5.751,0,0,0,2.876-.929c.514-.384.752-.688.8-1.015.081-.573-.409-1.348-1.4-2.668-.7-.93-1.217-1.382-1.577-1.382-.283,0-.533.291-.85.66l-.146.169a1.592,1.592,0,0,1-1.215.6,1.537,1.537,0,0,1-.754-.2c-1.648-.989-4.146-5.316-4.179-7.238a1.524,1.524,0,0,1,1.334-1.5l.22-.042c.484-.091.866-.163,1-.418.17-.317.034-.986-.415-2.045-.87-2.051-1.289-2.612-1.95-2.612Z" transform="translate(-11.57 -11.542)" fill-rule="evenodd"/>
      <path id="Path_7056" data-name="Path 7056" d="M44.843,19.576c-1.322,0-2.817-.8-4.324-2.3a21.316,21.316,0,0,1-3.68-5.212,20.486,20.486,0,0,1-1.966-5.5,5.64,5.64,0,0,1,.471-4.211A5.971,5.971,0,0,1,37.68.314,2.887,2.887,0,0,1,38.8.03c.986,0,1.507.853,2.372,2.892.528,1.244.647,1.974.4,2.44-.24.449-.766.547-1.322.652l-.215.041a1.058,1.058,0,0,0-.965,1.04.024.024,0,0,0,0,.005c.029,1.773,2.422,5.922,3.947,6.849l.022.013a1.089,1.089,0,0,0,.506.128,1.15,1.15,0,0,0,.871-.447l.144-.166c.362-.422.7-.819,1.2-.819.536,0,1.117.468,1.943,1.564,1.094,1.451,1.6,2.271,1.492,3.008a2.068,2.068,0,0,1-.977,1.318,6.208,6.208,0,0,1-3.117,1.019c-.081.006-.164.009-.247.009h0Z" fill-rule="evenodd"/>
      <path id="Path_7057" data-name="Path 7057" d="M321.795,44.484a.244.244,0,0,1-.059-.008.23.23,0,0,1-.162-.281,7.462,7.462,0,0,0-5.271-9.129.229.229,0,0,1,.119-.443,7.921,7.921,0,0,1,5.594,9.69.229.229,0,0,1-.221.17Z" transform="translate(-270.685 -33.266)" fill-rule="evenodd"/>
      <path id="Path_7058" data-name="Path 7058" d="M305.274,97.618a.245.245,0,0,1-.06-.008.229.229,0,0,1-.162-.281,5.247,5.247,0,0,0-3.71-6.426.229.229,0,0,1,.119-.443,5.7,5.7,0,0,1,4.034,6.987A.229.229,0,0,1,305.274,97.618Z" transform="translate(-256.297 -86.971)" fill-rule="evenodd"/>
      <path id="Path_7059" data-name="Path 7059" d="M288.754,150.745a.23.23,0,0,1-.221-.288,3.043,3.043,0,0,0-2.15-3.723.229.229,0,1,1,.119-.443,3.5,3.5,0,0,1,2.473,4.284A.23.23,0,0,1,288.754,150.745Z" transform="translate(-241.908 -140.669)" fill-rule="evenodd"/>
    </g>
  </g>
</svg>
