<svg xmlns="http://www.w3.org/2000/svg" width="20" height="20" viewBox="0 0 20 20" fill="none">
  <path d="M14.0182 4.27867C13.4072 3.57828 13.04 2.66504 13.04 1.66666H12.2744C12.4716 2.75791 13.1212 3.69438 14.0182 4.27867Z" fill="#414752"/>
  <path d="M6.93483 9.92064C5.60865 9.92064 4.52993 11.0003 4.52993 12.3276C4.52993 13.2525 5.05575 14.0573 5.8213 14.4598C5.53519 14.0651 5.36507 13.5814 5.36507 13.0551C5.36507 11.7278 6.44379 10.6481 7.77 10.6481C8.01744 10.6481 8.25714 10.6907 8.4814 10.7604V7.83493C8.24939 7.80394 8.01357 7.78457 7.77 7.78457C7.72745 7.78457 7.68878 7.78844 7.64625 7.78844V10.0329C7.41813 9.96319 7.18228 9.92064 6.93483 9.92064Z" fill="#414752"/>
  <path d="M16.1871 5.5634V7.78844C14.7024 7.78844 13.326 7.31251 12.2047 6.50759V12.3315C12.2047 15.2376 9.84233 17.6058 6.93476 17.6058C5.81351 17.6058 4.76958 17.2498 3.9151 16.65C4.87784 17.6832 6.25041 18.3333 7.76994 18.3333C10.6736 18.3333 13.0398 15.9689 13.0398 13.059V7.23509C14.1611 8.04 15.5375 8.51594 17.0222 8.51594V5.65244C16.7322 5.65244 16.4539 5.62144 16.1871 5.5634Z" fill="#414752"/>
  <path d="M12.2047 12.3315V6.50759C13.326 7.31251 14.7024 7.78844 16.1871 7.78844V5.5634C15.3287 5.38157 14.5749 4.91719 14.0182 4.27867C13.1211 3.69438 12.4753 2.75791 12.2704 1.66666H10.1748L10.1709 13.1479C10.1246 14.4327 9.06514 15.4659 7.76994 15.4659C6.9657 15.4659 6.25815 15.0673 5.81738 14.4636C5.05183 14.0573 4.526 13.2563 4.526 12.3315C4.526 11.0042 5.60472 9.92452 6.9309 9.92452C7.17835 9.92452 7.41807 9.96707 7.64232 10.0367V7.79232C4.79665 7.85424 2.5 10.1915 2.5 13.059C2.5 14.4443 3.03743 15.7058 3.9151 16.65C4.76958 17.2498 5.81351 17.6058 6.93476 17.6058C9.83845 17.6058 12.2047 15.2376 12.2047 12.3315Z" fill="#414752"/>
</svg>