<svg xmlns="http://www.w3.org/2000/svg" width="32" height="32" viewBox="0 0 32 32" fill="none">
  <path d="M22.4291 6.84595C21.4516 5.72533 20.8639 4.26414 20.8639 2.66675H19.6391C19.9545 4.41274 20.9939 5.9111 22.4291 6.84595Z" fill="#D7F4FA"/>
  <path d="M11.0957 15.8731C8.97384 15.8731 7.24788 17.6006 7.24788 19.7242C7.24788 21.204 8.08921 22.4918 9.31408 23.1357C8.85631 22.5042 8.58411 21.7303 8.58411 20.8882C8.58411 18.7646 10.3101 17.0371 12.432 17.0371C12.8279 17.0371 13.2114 17.1052 13.5702 17.2167V12.536C13.199 12.4864 12.8217 12.4554 12.432 12.4554C12.3639 12.4554 12.302 12.4616 12.234 12.4616V16.0527C11.869 15.9412 11.4916 15.8731 11.0957 15.8731Z" fill="#D7F4FA"/>
  <path d="M25.8994 8.90152V12.4616C23.5238 12.4616 21.3215 11.7001 19.5275 10.4122V19.7304C19.5275 24.3802 15.7477 28.1694 11.0956 28.1694C9.30161 28.1694 7.63133 27.5998 6.26416 26.6401C7.80454 28.2932 10.0007 29.3334 12.4319 29.3334C17.0777 29.3334 20.8637 25.5504 20.8637 20.8944V11.5762C22.6577 12.8641 24.86 13.6256 27.2356 13.6256V9.04398C26.7716 9.04398 26.3262 8.9944 25.8994 8.90152Z" fill="#D7F4FA"/>
  <path d="M19.5275 19.7304V10.4122C21.3215 11.7001 23.5238 12.4616 25.8994 12.4616V8.90152C24.526 8.61059 23.3199 7.86759 22.4291 6.84595C20.9938 5.9111 19.9606 4.41274 19.6326 2.66675H16.2797L16.2735 21.0368C16.1993 23.0923 14.5042 24.7455 12.4319 24.7455C11.1451 24.7455 10.013 24.1078 9.30781 23.1419C8.08292 22.4918 7.2416 21.2102 7.2416 19.7304C7.2416 17.6068 8.96756 15.8793 11.0894 15.8793C11.4854 15.8793 11.8689 15.9474 12.2277 16.0589V12.4678C7.67464 12.5669 4 16.3065 4 20.8944C4 23.1109 4.85989 25.1294 6.26416 26.6401C7.63133 27.5998 9.30161 28.1694 11.0956 28.1694C15.7415 28.1694 19.5275 24.3802 19.5275 19.7304Z" fill="#D7F4FA"/>
</svg>