<svg xmlns="http://www.w3.org/2000/svg" width="20" height="20" viewBox="0 0 20 20" fill="none">
  <path fill-rule="evenodd" clip-rule="evenodd" d="M17.1625 3.71666C17.9518 3.92795 18.5721 4.54821 18.7834 5.33751C19.1652 6.76668 19.1667 9.7503 19.1667 9.7503C19.1667 9.7503 19.1667 12.7339 18.7834 14.1631C18.5721 14.9524 17.9518 15.5727 17.1625 15.7839C15.7334 16.1673 10 16.1673 10 16.1673C10 16.1673 4.26672 16.1673 2.83754 15.7839C2.04825 15.5727 1.42798 14.9524 1.2167 14.1631C0.833374 12.7339 0.833374 9.7503 0.833374 9.7503C0.833374 9.7503 0.833374 6.76668 1.2167 5.33751C1.42798 4.54821 2.04825 3.92795 2.83754 3.71666C4.26672 3.33334 10 3.33334 10 3.33334C10 3.33334 15.7334 3.33334 17.1625 3.71666ZM12.9279 9.75056L8.16494 12.5002V7.00084L12.9279 9.75056Z" fill="#414752"/>
</svg>