<svg xmlns="http://www.w3.org/2000/svg" width="32" height="32" viewBox="0 0 32 32" fill="none">
  <path fill-rule="evenodd" clip-rule="evenodd" d="M27.46 5.94658C28.7228 6.28463 29.7154 7.27706 30.0533 8.53993C30.6642 10.8266 30.6667 15.6004 30.6667 15.6004C30.6667 15.6004 30.6667 20.3742 30.0533 22.6609C29.7154 23.9238 28.7228 24.9162 27.46 25.2542C25.1734 25.8675 16 25.8675 16 25.8675C16 25.8675 6.82673 25.8675 4.54004 25.2542C3.27718 24.9162 2.28475 23.9238 1.9467 22.6609C1.33337 20.3742 1.33337 15.6004 1.33337 15.6004C1.33337 15.6004 1.33337 10.8266 1.9467 8.53993C2.28475 7.27706 3.27718 6.28463 4.54004 5.94658C6.82673 5.33325 16 5.33325 16 5.33325C16 5.33325 25.1734 5.33325 27.46 5.94658ZM20.6846 15.6008L13.0639 20.0003V11.2013L20.6846 15.6008Z" fill="#D7F4FA"/>
</svg>